<?xml version="1.0" encoding="UTF-8" ?>
<!DOCTYPE svg PUBLIC "-//W3C//DTD SVG 1.1//EN" "http://www.w3.org/Graphics/SVG/1.1/DTD/svg11.dtd">
<svg width="758pt" height="224pt" viewBox="0 0 758 224" version="1.1" xmlns="http://www.w3.org/2000/svg">
<path fill="#ffffff" d=" M 0.00 0.00 L 28.61 0.00 C 28.35 10.00 28.88 19.99 29.15 29.98 C 29.83 37.99 31.42 45.90 32.41 53.87 C 32.95 60.00 36.04 65.43 38.09 71.12 C 39.98 76.45 43.20 81.13 46.29 85.82 C 51.45 92.39 60.00 94.62 67.93 95.45 C 75.12 94.81 82.39 94.54 89.52 93.43 C 94.82 90.74 100.56 88.25 104.40 83.52 C 109.75 77.54 115.48 71.93 121.14 66.25 C 144.24 63.43 167.57 63.61 190.80 62.88 C 193.71 66.37 198.78 68.84 198.95 73.91 C 199.47 77.32 200.19 80.71 200.46 84.15 C 199.81 96.81 195.91 108.97 192.10 120.97 C 187.59 136.38 182.03 151.77 181.36 167.95 C 181.31 174.69 180.23 181.48 181.48 188.17 C 183.32 200.31 185.31 212.50 189.78 224.00 L 0.00 224.00 L 0.00 0.00 Z" />
<path fill="#000101" d=" M 28.61 0.00 L 31.60 0.00 C 31.55 15.66 31.52 31.42 34.41 46.87 C 35.02 56.81 38.94 66.03 43.06 74.96 C 46.23 80.73 49.79 86.99 56.16 89.69 C 61.19 91.54 66.58 92.92 71.97 92.18 C 77.49 91.53 83.10 91.57 88.56 90.46 C 93.67 88.39 98.66 85.53 102.32 81.32 C 107.18 75.88 112.36 70.74 117.54 65.60 C 120.15 62.68 124.32 62.94 127.88 62.44 C 147.22 60.69 166.65 60.56 186.05 59.94 C 188.57 60.02 191.54 59.51 193.51 61.48 C 196.92 64.68 201.33 67.84 201.79 72.89 C 202.66 78.22 204.01 83.64 203.04 89.05 C 201.67 101.39 197.60 113.17 193.95 124.96 C 189.30 140.63 183.99 156.45 184.16 173.00 C 183.01 184.11 185.56 195.06 187.56 205.92 C 188.69 212.13 190.83 218.08 192.98 224.00 L 189.78 224.00 C 185.31 212.50 183.32 200.31 181.48 188.17 C 180.23 181.48 181.31 174.69 181.36 167.95 C 182.03 151.77 187.59 136.38 192.10 120.97 C 195.91 108.97 199.81 96.81 200.46 84.15 C 200.19 80.71 199.47 77.32 198.95 73.91 C 198.78 68.84 193.71 66.37 190.80 62.88 C 167.57 63.61 144.24 63.43 121.14 66.25 C 115.48 71.93 109.75 77.54 104.40 83.52 C 100.56 88.25 94.82 90.74 89.52 93.43 C 82.39 94.54 75.12 94.81 67.93 95.45 C 60.00 94.62 51.45 92.39 46.29 85.82 C 43.20 81.13 39.98 76.45 38.09 71.12 C 36.04 65.43 32.95 60.00 32.41 53.87 C 31.42 45.90 29.83 37.99 29.15 29.98 C 28.88 19.99 28.35 10.00 28.61 0.00 Z" />
<path fill="#4286f4" d=" M 31.60 0.00 L 36.07 0.00 C 35.48 15.32 36.25 30.71 38.53 45.87 C 40.02 58.43 44.41 70.81 52.20 80.86 C 53.36 82.36 54.84 83.69 56.74 84.16 C 61.11 85.41 65.52 86.62 70.03 87.32 C 73.39 87.45 76.69 86.58 80.01 86.11 C 83.89 85.35 88.34 85.31 91.31 82.30 C 96.26 77.59 101.27 72.95 106.34 68.37 C 110.42 64.76 113.92 60.01 119.35 58.39 C 125.01 56.62 131.04 57.11 136.88 56.55 C 153.22 55.25 169.62 55.30 186.00 54.81 C 190.05 54.76 194.53 54.63 197.95 57.18 C 200.37 59.03 202.45 61.28 204.58 63.44 C 208.82 67.32 208.79 73.61 208.99 78.92 C 208.86 85.95 209.97 93.17 207.93 100.03 C 204.33 113.27 201.45 126.72 196.65 139.60 C 195.96 142.29 194.24 145.04 194.84 147.86 C 195.27 150.28 198.24 149.88 200.01 150.65 C 199.96 156.92 199.33 163.33 200.84 169.48 C 202.14 172.27 204.44 174.68 207.13 176.16 C 210.57 176.77 214.18 176.10 217.51 175.16 C 222.22 172.63 224.78 167.43 229.31 164.64 C 234.81 163.88 240.44 165.17 245.90 164.07 C 249.41 161.60 252.19 158.16 254.63 154.67 C 256.76 148.99 256.76 142.77 258.18 136.90 C 258.88 132.65 262.31 129.58 263.51 125.52 C 266.39 116.03 268.43 106.28 272.03 97.02 C 275.20 88.69 277.44 79.49 283.96 73.02 C 292.97 68.15 302.56 64.35 311.72 59.74 C 320.21 55.34 329.73 53.72 338.68 50.58 C 342.86 48.76 346.09 45.39 349.71 42.71 C 354.06 39.69 355.91 34.22 356.64 29.22 C 355.58 25.60 353.89 19.85 349.06 20.56 C 343.51 20.23 339.02 23.74 333.99 25.30 C 323.23 25.55 312.20 26.04 301.73 23.02 C 295.14 20.79 288.99 16.78 284.96 11.02 C 283.07 7.57 282.37 3.63 280.91 0.00 L 291.44 0.00 C 291.98 2.69 291.62 6.03 294.03 7.90 C 295.95 9.53 298.21 11.59 300.94 11.10 C 306.84 10.23 312.57 8.45 318.10 6.23 C 324.98 3.09 332.70 4.57 339.99 4.05 C 346.70 3.41 353.36 6.25 358.13 10.87 C 360.47 13.63 362.26 16.86 363.66 20.19 C 364.45 23.72 364.51 27.40 364.26 31.00 C 363.38 34.78 361.38 38.19 359.63 41.63 C 358.14 44.72 355.12 46.54 352.55 48.63 C 349.28 51.06 346.25 53.98 342.39 55.47 C 330.48 59.83 318.17 63.14 306.60 68.41 C 303.07 70.09 298.76 71.05 296.49 74.53 C 293.23 79.31 290.06 84.15 286.82 88.95 C 283.91 92.95 285.33 98.16 285.12 102.75 C 282.49 106.12 278.91 109.38 278.86 113.98 C 277.48 128.70 276.14 143.43 274.74 158.15 C 274.46 161.73 272.31 164.73 270.68 167.81 C 268.24 166.60 265.84 165.07 263.07 164.77 C 259.33 167.06 256.93 170.88 253.97 174.02 C 249.95 178.71 245.30 182.92 241.89 188.10 C 242.84 192.50 247.22 194.90 250.07 198.04 C 249.78 199.13 249.49 200.23 249.20 201.32 C 245.29 201.48 241.02 200.47 237.41 202.41 C 235.97 206.92 236.36 211.96 237.48 216.51 C 239.48 217.04 241.54 217.30 243.58 217.65 C 243.60 219.76 243.63 221.88 243.67 224.00 L 192.98 224.00 C 190.83 218.08 188.69 212.13 187.56 205.92 C 185.56 195.06 183.01 184.11 184.16 173.00 C 183.99 156.45 189.30 140.63 193.95 124.96 C 197.60 113.17 201.67 101.39 203.04 89.05 C 204.01 83.64 202.66 78.22 201.79 72.89 C 201.33 67.84 196.92 64.68 193.51 61.48 C 191.54 59.51 188.57 60.02 186.05 59.94 C 166.65 60.56 147.22 60.69 127.88 62.44 C 124.32 62.94 120.15 62.68 117.54 65.60 C 112.36 70.74 107.18 75.88 102.32 81.32 C 98.66 85.53 93.67 88.39 88.56 90.46 C 83.10 91.57 77.49 91.53 71.97 92.18 C 66.58 92.92 61.19 91.54 56.16 89.69 C 49.79 86.99 46.23 80.73 43.06 74.96 C 38.94 66.03 35.02 56.81 34.41 46.87 C 31.52 31.42 31.55 15.66 31.60 0.00 Z" />
<path fill="#000101" d=" M 36.07 0.00 L 39.07 0.00 C 38.34 17.67 39.62 35.40 42.62 52.82 C 45.11 62.92 48.96 73.17 56.32 80.74 C 60.74 82.56 65.54 83.39 70.20 84.42 C 75.25 84.15 80.23 82.93 85.23 82.18 C 86.75 82.03 88.05 81.22 89.12 80.16 C 96.90 72.95 104.67 65.71 112.48 58.54 C 118.60 53.85 126.67 54.17 133.98 53.72 C 151.97 52.30 170.02 52.23 188.05 51.79 C 192.86 51.73 198.24 52.63 201.65 56.34 C 204.27 59.06 207.17 61.54 209.53 64.49 C 213.12 73.93 211.79 84.19 212.11 94.06 C 210.91 102.05 208.17 109.74 206.37 117.61 C 204.06 127.68 200.49 137.37 197.28 147.17 C 199.21 147.21 201.14 147.26 203.08 147.31 C 202.91 154.37 202.60 161.45 203.41 168.49 C 204.99 170.19 206.56 171.89 208.13 173.59 C 210.94 173.26 213.74 172.92 216.55 172.58 C 220.26 168.85 223.99 165.13 227.69 161.39 C 233.39 161.45 239.10 161.48 244.80 161.47 C 247.61 157.80 252.41 155.04 252.90 150.06 C 253.82 145.06 254.53 140.01 255.50 135.02 C 256.03 131.13 259.53 128.62 260.60 124.94 C 263.66 114.89 265.79 104.55 269.70 94.78 C 272.76 86.17 275.60 76.94 282.26 70.40 C 291.95 65.59 301.87 61.23 311.62 56.53 C 320.11 52.20 329.69 50.82 338.53 47.43 C 342.13 45.19 345.27 42.27 348.62 39.67 C 351.90 37.35 352.36 33.04 353.93 29.63 C 352.89 27.54 351.84 25.46 350.79 23.37 C 348.83 23.59 346.87 23.76 344.93 24.08 C 341.03 24.72 338.03 27.89 334.13 28.42 C 322.52 28.48 310.67 29.00 299.45 25.50 C 292.64 22.61 286.12 18.46 282.00 12.18 C 280.33 8.22 279.39 4.00 277.82 0.00 L 280.91 0.00 C 282.37 3.63 283.07 7.57 284.96 11.02 C 288.99 16.78 295.14 20.79 301.73 23.02 C 312.20 26.04 323.23 25.55 333.99 25.30 C 339.02 23.74 343.51 20.23 349.06 20.56 C 353.89 19.85 355.58 25.60 356.64 29.22 C 355.91 34.22 354.06 39.69 349.71 42.71 C 346.09 45.39 342.86 48.76 338.68 50.58 C 329.73 53.72 320.21 55.34 311.72 59.74 C 302.56 64.35 292.97 68.15 283.96 73.02 C 277.44 79.49 275.20 88.69 272.03 97.02 C 268.43 106.28 266.39 116.03 263.51 125.52 C 262.31 129.58 258.88 132.65 258.18 136.90 C 256.76 142.77 256.76 148.99 254.63 154.67 C 252.19 158.16 249.41 161.60 245.90 164.07 C 240.44 165.17 234.81 163.88 229.31 164.64 C 224.78 167.43 222.22 172.63 217.51 175.16 C 214.18 176.10 210.57 176.77 207.13 176.16 C 204.44 174.68 202.14 172.27 200.84 169.48 C 199.33 163.33 199.96 156.92 200.01 150.65 C 198.24 149.88 195.27 150.28 194.84 147.86 C 194.24 145.04 195.96 142.29 196.65 139.60 C 201.45 126.72 204.33 113.27 207.93 100.03 C 209.97 93.17 208.86 85.95 208.99 78.92 C 208.79 73.61 208.82 67.32 204.58 63.44 C 202.45 61.28 200.37 59.03 197.95 57.18 C 194.53 54.63 190.05 54.76 186.00 54.81 C 169.62 55.30 153.22 55.25 136.88 56.55 C 131.04 57.11 125.01 56.62 119.35 58.39 C 113.92 60.01 110.42 64.76 106.34 68.37 C 101.27 72.95 96.26 77.59 91.31 82.30 C 88.34 85.31 83.89 85.35 80.01 86.11 C 76.69 86.58 73.39 87.45 70.03 87.32 C 65.52 86.62 61.11 85.41 56.74 84.16 C 54.84 83.69 53.36 82.36 52.20 80.86 C 44.41 70.81 40.02 58.43 38.53 45.87 C 36.25 30.71 35.48 15.32 36.07 0.00 Z" />
<path fill="#ffffff" d=" M 39.07 0.00 L 277.82 0.00 C 279.39 4.00 280.33 8.22 282.00 12.18 C 286.12 18.46 292.64 22.61 299.45 25.50 C 310.67 29.00 322.52 28.48 334.13 28.42 C 338.03 27.89 341.03 24.72 344.93 24.08 C 346.87 23.76 348.83 23.59 350.79 23.37 C 351.84 25.46 352.89 27.54 353.93 29.63 C 352.36 33.04 351.90 37.35 348.62 39.67 C 345.27 42.27 342.13 45.19 338.53 47.43 C 329.69 50.82 320.11 52.20 311.62 56.53 C 301.87 61.23 291.95 65.59 282.26 70.40 C 275.60 76.94 272.76 86.17 269.70 94.78 C 265.79 104.55 263.66 114.89 260.60 124.94 C 259.53 128.62 256.03 131.13 255.50 135.02 C 254.53 140.01 253.82 145.06 252.90 150.06 C 252.41 155.04 247.61 157.80 244.80 161.47 C 239.10 161.48 233.39 161.45 227.69 161.39 C 223.99 165.13 220.26 168.85 216.55 172.58 C 213.74 172.92 210.94 173.26 208.13 173.59 C 206.56 171.89 204.99 170.19 203.41 168.49 C 202.60 161.45 202.91 154.37 203.08 147.31 C 201.14 147.26 199.21 147.21 197.28 147.17 C 200.49 137.37 204.06 127.68 206.37 117.61 C 208.17 109.74 210.91 102.05 212.11 94.06 C 211.79 84.19 213.12 73.93 209.53 64.49 C 207.17 61.54 204.27 59.06 201.65 56.34 C 198.24 52.63 192.86 51.73 188.05 51.79 C 170.02 52.23 151.97 52.30 133.98 53.72 C 126.67 54.17 118.60 53.85 112.48 58.54 C 104.67 65.71 96.90 72.95 89.12 80.16 C 88.05 81.22 86.75 82.03 85.23 82.18 C 80.23 82.93 75.25 84.15 70.20 84.42 C 65.54 83.39 60.74 82.56 56.32 80.74 C 48.96 73.17 45.11 62.92 42.62 52.82 C 39.62 35.40 38.34 17.67 39.07 0.00 Z" />
<path fill="#000101" d=" M 291.44 0.00 L 294.66 0.00 C 294.76 1.59 294.86 3.17 294.98 4.76 C 296.58 5.99 298.19 7.23 299.80 8.46 C 304.71 7.31 309.70 6.40 314.40 4.50 C 318.15 3.21 321.81 1.14 325.90 1.28 C 332.34 1.28 338.79 0.92 345.23 1.12 C 351.25 2.21 357.15 5.14 361.21 9.76 C 363.53 13.99 367.33 17.93 367.16 23.04 C 367.10 27.05 368.28 31.40 366.12 35.06 C 363.53 39.68 362.29 45.50 357.55 48.51 C 353.27 51.51 349.57 55.42 344.84 57.72 C 329.94 63.13 314.52 67.32 300.37 74.57 C 296.39 79.29 293.44 84.81 289.80 89.81 C 286.55 93.62 288.78 98.86 287.99 103.34 C 286.43 107.16 281.95 109.54 281.87 113.97 C 280.52 128.70 279.09 143.41 277.76 158.14 C 277.60 163.36 273.88 167.41 271.70 171.90 C 269.05 170.46 266.40 169.03 263.76 167.60 C 257.42 174.66 251.07 181.72 244.75 188.79 C 247.78 191.68 250.75 194.63 253.82 197.48 C 252.87 199.73 252.10 202.04 251.39 204.37 C 247.46 204.31 243.52 204.27 239.59 204.25 C 239.64 207.61 239.68 210.96 239.72 214.32 C 241.95 214.33 244.17 214.34 246.40 214.37 C 246.50 217.58 246.60 220.79 246.71 224.00 L 243.67 224.00 C 243.63 221.88 243.60 219.76 243.58 217.65 C 241.54 217.30 239.48 217.04 237.48 216.51 C 236.36 211.96 235.97 206.92 237.41 202.41 C 241.02 200.47 245.29 201.48 249.20 201.32 C 249.49 200.23 249.78 199.13 250.07 198.04 C 247.22 194.90 242.84 192.50 241.89 188.10 C 245.30 182.92 249.95 178.71 253.97 174.02 C 256.93 170.88 259.33 167.06 263.07 164.77 C 265.84 165.07 268.24 166.60 270.68 167.81 C 272.31 164.73 274.46 161.73 274.74 158.15 C 276.14 143.43 277.48 128.70 278.86 113.98 C 278.91 109.38 282.49 106.12 285.12 102.75 C 285.33 98.16 283.91 92.95 286.82 88.95 C 290.06 84.15 293.23 79.31 296.49 74.53 C 298.76 71.05 303.07 70.09 306.60 68.41 C 318.17 63.14 330.48 59.83 342.39 55.47 C 346.25 53.98 349.28 51.06 352.55 48.63 C 355.12 46.54 358.14 44.72 359.63 41.63 C 361.38 38.19 363.38 34.78 364.26 31.00 C 364.51 27.40 364.45 23.72 363.66 20.19 C 362.26 16.86 360.47 13.63 358.13 10.87 C 353.36 6.25 346.70 3.41 339.99 4.05 C 332.70 4.57 324.98 3.09 318.10 6.23 C 312.57 8.45 306.84 10.23 300.94 11.10 C 298.21 11.59 295.95 9.53 294.03 7.90 C 291.62 6.03 291.98 2.69 291.44 0.00 Z" />
<path fill="#ffffff" d=" M 294.66 0.00 L 544.93 0.00 C 545.03 4.69 544.75 9.40 545.17 14.07 C 546.41 17.79 549.85 20.79 549.45 24.98 C 549.33 27.80 549.97 30.91 548.41 33.45 C 547.22 35.71 545.87 37.87 544.59 40.07 C 544.89 43.61 545.19 47.16 545.47 50.71 C 547.70 50.82 549.94 50.95 552.18 51.12 C 552.20 51.84 552.23 53.30 552.24 54.03 C 549.51 53.92 546.79 53.80 544.07 53.69 C 543.69 64.06 543.31 74.44 542.94 84.81 C 540.05 85.14 537.17 85.46 534.29 85.79 C 534.29 96.76 534.25 107.73 534.15 118.70 C 531.27 118.75 528.38 118.81 525.50 118.88 C 525.34 121.95 525.18 125.03 525.03 128.10 C 523.14 128.14 521.26 128.19 519.39 128.24 C 518.99 130.13 518.60 132.02 518.21 133.91 C 522.97 134.41 527.73 134.91 532.50 135.41 C 532.61 136.39 532.83 138.36 532.94 139.34 C 529.92 139.24 526.90 139.13 523.88 139.03 C 523.67 141.27 523.47 143.51 523.28 145.75 C 524.99 147.12 526.71 148.50 528.44 149.88 C 526.44 152.89 524.43 155.89 522.44 158.91 C 524.42 159.83 526.41 160.76 528.40 161.69 C 527.25 165.53 526.09 169.38 524.94 173.22 C 526.72 174.22 528.52 175.22 530.32 176.22 C 527.94 183.40 525.59 190.60 523.21 197.78 C 521.03 196.69 518.86 195.61 516.68 194.53 C 516.22 196.17 515.76 197.82 515.30 199.47 C 508.32 200.42 501.28 200.54 494.25 200.18 C 493.07 201.63 491.88 203.07 490.71 204.52 C 488.84 204.36 486.98 204.19 485.13 204.03 C 482.98 201.09 481.93 197.66 482.37 194.01 C 478.40 193.82 474.44 193.61 470.48 193.42 C 470.08 200.81 471.97 208.60 476.67 214.42 C 486.37 215.49 496.08 216.58 505.78 217.66 C 505.66 219.77 505.55 221.88 505.44 224.00 L 246.71 224.00 C 246.60 220.79 246.50 217.58 246.40 214.37 C 244.17 214.34 241.95 214.33 239.72 214.32 C 239.68 210.96 239.64 207.61 239.59 204.25 C 243.52 204.27 247.46 204.31 251.39 204.37 C 252.10 202.04 252.87 199.73 253.82 197.48 C 250.75 194.63 247.78 191.68 244.75 188.79 C 251.07 181.72 257.42 174.66 263.76 167.60 C 266.40 169.03 269.05 170.46 271.70 171.90 C 273.88 167.41 277.60 163.36 277.76 158.14 C 279.09 143.41 280.52 128.70 281.87 113.97 C 281.95 109.54 286.43 107.16 287.99 103.34 C 288.78 98.86 286.55 93.62 289.80 89.81 C 293.44 84.81 296.39 79.29 300.37 74.57 C 314.52 67.32 329.94 63.13 344.84 57.72 C 349.57 55.42 353.27 51.51 357.55 48.51 C 362.29 45.50 363.53 39.68 366.12 35.06 C 368.28 31.40 367.10 27.05 367.16 23.04 C 367.33 17.93 363.53 13.99 361.21 9.76 C 357.15 5.14 351.25 2.21 345.23 1.12 C 338.79 0.92 332.34 1.28 325.90 1.28 C 321.81 1.14 318.15 3.21 314.40 4.50 C 309.70 6.40 304.71 7.31 299.80 8.46 C 298.19 7.23 296.58 5.99 294.98 4.76 C 294.86 3.17 294.76 1.59 294.66 0.00 Z" />
<path fill="#000101" d=" M 544.93 0.00 L 547.95 0.00 C 548.00 4.36 547.69 8.75 548.22 13.08 C 549.23 16.54 551.96 19.35 552.35 23.01 C 552.58 25.99 552.65 29.01 552.18 31.97 C 551.35 35.19 548.94 37.72 547.97 40.88 C 547.74 43.11 547.96 45.35 548.03 47.59 C 550.15 47.89 552.30 48.04 554.40 48.53 C 555.33 51.01 556.13 54.73 553.45 56.41 C 551.35 57.09 549.11 56.91 546.95 57.06 C 546.66 64.70 546.38 72.34 546.16 79.99 C 546.01 82.34 546.01 84.80 544.97 86.97 C 542.53 88.00 539.84 88.13 537.25 88.54 C 537.21 98.35 537.43 108.17 537.07 117.97 C 537.17 122.54 531.41 121.55 528.43 121.99 C 528.25 124.82 528.20 127.70 527.40 130.43 C 525.20 131.08 522.92 131.31 520.68 131.69 C 525.29 131.84 530.28 131.33 534.54 133.44 C 535.94 135.86 536.50 139.31 534.52 141.58 C 532.02 142.70 529.16 142.11 526.51 142.25 C 526.49 142.76 526.44 143.76 526.42 144.27 C 528.12 146.00 531.08 147.25 531.17 149.99 C 530.54 152.79 528.52 154.99 526.99 157.34 C 528.40 158.79 531.48 159.46 531.07 161.98 C 530.73 165.21 529.50 168.24 528.56 171.32 C 530.15 172.80 532.40 173.91 533.13 176.08 C 532.59 180.09 530.84 183.81 529.68 187.66 C 528.24 191.61 527.40 195.81 525.39 199.53 C 523.24 201.17 520.70 199.60 518.43 199.13 C 518.18 199.82 517.66 201.19 517.40 201.88 C 510.29 203.45 502.99 203.53 495.75 203.29 C 494.02 204.84 492.70 207.57 490.03 207.42 C 487.88 207.39 485.57 207.40 483.65 206.34 C 480.86 203.98 479.81 200.29 478.91 196.89 C 476.97 196.75 475.03 196.62 473.11 196.49 C 473.78 201.77 475.32 206.94 477.92 211.61 C 485.30 212.31 492.65 213.24 500.03 213.97 C 502.56 214.29 505.20 214.41 507.57 215.47 C 509.21 218.00 508.47 221.16 508.61 224.00 L 505.44 224.00 C 505.55 221.88 505.66 219.77 505.78 217.66 C 496.08 216.58 486.37 215.49 476.67 214.42 C 471.97 208.60 470.08 200.81 470.48 193.42 C 474.44 193.61 478.40 193.82 482.37 194.01 C 481.93 197.66 482.98 201.09 485.13 204.03 C 486.98 204.19 488.84 204.36 490.71 204.52 C 491.88 203.07 493.07 201.63 494.25 200.18 C 501.28 200.54 508.32 200.42 515.30 199.47 C 515.76 197.82 516.22 196.17 516.68 194.53 C 518.86 195.61 521.03 196.69 523.21 197.78 C 525.59 190.60 527.94 183.40 530.32 176.22 C 528.52 175.22 526.72 174.22 524.94 173.22 C 526.09 169.38 527.25 165.53 528.40 161.69 C 526.41 160.76 524.42 159.83 522.44 158.91 C 524.43 155.89 526.44 152.89 528.44 149.88 C 526.71 148.50 524.99 147.12 523.28 145.75 C 523.47 143.51 523.67 141.27 523.88 139.03 C 526.90 139.13 529.92 139.24 532.94 139.34 C 532.83 138.36 532.61 136.39 532.50 135.41 C 527.73 134.91 522.97 134.41 518.21 133.91 C 518.60 132.02 518.99 130.13 519.39 128.24 C 521.26 128.19 523.14 128.14 525.03 128.10 C 525.18 125.03 525.34 121.95 525.50 118.88 C 528.38 118.81 531.27 118.75 534.15 118.70 C 534.25 107.73 534.29 96.76 534.29 85.79 C 537.17 85.46 540.05 85.14 542.94 84.81 C 543.31 74.44 543.69 64.06 544.07 53.69 C 546.79 53.80 549.51 53.92 552.24 54.03 C 552.23 53.30 552.20 51.84 552.18 51.12 C 549.94 50.95 547.70 50.82 545.47 50.71 C 545.19 47.16 544.89 43.61 544.59 40.07 C 545.87 37.87 547.22 35.71 548.41 33.45 C 549.97 30.91 549.33 27.80 549.45 24.98 C 549.85 20.79 546.41 17.79 545.17 14.07 C 544.75 9.40 545.03 4.69 544.93 0.00 Z" />
<path fill="#4286f4" d=" M 547.95 0.00 L 593.42 0.00 C 591.25 27.01 588.60 53.97 586.66 80.99 C 584.92 99.29 584.29 117.67 582.60 135.97 C 581.37 146.15 579.68 156.26 578.45 166.43 C 575.05 165.80 571.62 164.58 568.12 165.04 C 566.21 166.15 566.14 168.58 565.78 170.50 C 563.78 188.34 561.67 206.17 559.62 224.00 L 508.61 224.00 C 508.47 221.16 509.21 218.00 507.57 215.47 C 505.20 214.41 502.56 214.29 500.03 213.97 C 492.65 213.24 485.30 212.31 477.92 211.61 C 475.32 206.94 473.78 201.77 473.11 196.49 C 475.03 196.62 476.97 196.75 478.91 196.89 C 479.81 200.29 480.86 203.98 483.65 206.34 C 485.57 207.40 487.88 207.39 490.03 207.42 C 492.70 207.57 494.02 204.84 495.75 203.29 C 502.99 203.53 510.29 203.45 517.40 201.88 C 517.66 201.19 518.18 199.82 518.43 199.13 C 520.70 199.60 523.24 201.17 525.39 199.53 C 527.40 195.81 528.24 191.61 529.68 187.66 C 530.84 183.81 532.59 180.09 533.13 176.08 C 532.40 173.91 530.15 172.80 528.56 171.32 C 529.50 168.24 530.73 165.21 531.07 161.98 C 531.48 159.46 528.40 158.79 526.99 157.34 C 528.52 154.99 530.54 152.79 531.17 149.99 C 531.08 147.25 528.12 146.00 526.42 144.27 C 526.44 143.76 526.49 142.76 526.51 142.25 C 529.16 142.11 532.02 142.70 534.52 141.58 C 536.50 139.31 535.94 135.86 534.54 133.44 C 530.28 131.33 525.29 131.84 520.68 131.69 C 522.92 131.31 525.20 131.08 527.40 130.43 C 528.20 127.70 528.25 124.82 528.43 121.99 C 531.41 121.55 537.17 122.54 537.07 117.97 C 537.43 108.17 537.21 98.35 537.25 88.54 C 539.84 88.13 542.53 88.00 544.97 86.97 C 546.01 84.80 546.01 82.34 546.16 79.99 C 546.38 72.34 546.66 64.70 546.95 57.06 C 549.11 56.91 551.35 57.09 553.45 56.41 C 556.13 54.73 555.33 51.01 554.40 48.53 C 552.30 48.04 550.15 47.89 548.03 47.59 C 547.96 45.35 547.74 43.11 547.97 40.88 C 548.94 37.72 551.35 35.19 552.18 31.97 C 552.65 29.01 552.58 25.99 552.35 23.01 C 551.96 19.35 549.23 16.54 548.22 13.08 C 547.69 8.75 548.00 4.36 547.95 0.00 Z" />
<path fill="#000101" d=" M 593.42 0.00 L 596.43 0.00 C 593.55 34.35 590.39 68.68 587.96 103.07 C 586.94 117.72 586.43 132.46 584.12 146.99 C 583.04 154.60 581.98 162.21 580.90 169.81 C 576.99 169.09 573.07 168.35 569.16 167.63 C 566.98 186.42 564.80 205.21 562.62 224.00 L 559.62 224.00 C 561.67 206.17 563.78 188.34 565.78 170.50 C 566.14 168.58 566.21 166.15 568.12 165.04 C 571.62 164.58 575.05 165.80 578.45 166.43 C 579.68 156.26 581.37 146.15 582.60 135.97 C 584.29 117.67 584.92 99.29 586.66 80.99 C 588.60 53.97 591.25 27.01 593.42 0.00 Z" />
<path fill="#ffffff" d=" M 596.43 0.00 L 758.00 0.00 L 758.00 17.45 C 753.24 22.04 750.08 27.90 745.93 32.99 C 743.25 36.73 739.80 40.07 738.33 44.54 C 735.75 51.57 733.16 58.60 730.49 65.61 C 726.97 74.31 728.89 83.86 728.82 92.95 C 728.51 101.42 733.86 108.43 736.76 115.98 C 736.01 127.38 735.47 138.93 733.12 150.15 C 729.76 169.83 722.01 188.38 714.82 206.90 C 710.01 207.80 705.20 208.74 700.38 209.59 C 700.24 211.09 700.16 212.60 699.91 214.10 C 694.98 215.85 689.83 216.88 684.81 218.34 C 683.98 216.68 683.16 215.03 682.34 213.38 C 669.70 216.63 657.20 220.36 644.67 224.00 L 562.62 224.00 C 564.80 205.21 566.98 186.42 569.16 167.63 C 573.07 168.35 576.99 169.09 580.90 169.81 C 581.98 162.21 583.04 154.60 584.12 146.99 C 586.43 132.46 586.94 117.72 587.96 103.07 C 590.39 68.68 593.55 34.35 596.43 0.00 Z" />
<path fill="#000101" d=" M 745.93 32.99 C 750.08 27.90 753.24 22.04 758.00 17.45 L 758.00 21.30 C 753.32 28.73 747.52 35.37 742.58 42.60 C 739.07 49.79 736.95 57.56 733.88 64.94 C 729.96 73.78 731.80 83.60 731.82 92.93 C 731.71 98.21 733.90 103.11 736.30 107.69 C 737.96 111.27 740.39 114.89 739.72 119.04 C 738.63 129.43 738.40 139.95 736.12 150.18 C 733.34 166.81 727.38 182.67 721.35 198.35 C 719.69 201.97 719.01 206.26 716.35 209.30 C 712.27 210.77 707.88 211.13 703.65 212.00 C 702.88 213.66 703.16 216.44 700.94 216.92 C 695.73 218.56 690.45 220.17 685.06 221.01 C 682.55 221.42 681.80 218.38 680.41 216.94 C 671.95 219.15 663.54 221.56 655.15 224.00 L 644.67 224.00 C 657.20 220.36 669.70 216.63 682.34 213.38 C 683.16 215.03 683.98 216.68 684.81 218.34 C 689.83 216.88 694.98 215.85 699.91 214.10 C 700.16 212.60 700.24 211.09 700.38 209.59 C 705.20 208.74 710.01 207.80 714.82 206.90 C 722.01 188.38 729.76 169.83 733.12 150.15 C 735.47 138.93 736.01 127.38 736.76 115.98 C 733.86 108.43 728.51 101.42 728.82 92.95 C 728.89 83.86 726.97 74.31 730.49 65.61 C 733.16 58.60 735.75 51.57 738.33 44.54 C 739.80 40.07 743.25 36.73 745.93 32.99 Z" />
<path fill="#4286f4" d=" M 742.58 42.60 C 747.52 35.37 753.32 28.73 758.00 21.30 L 758.00 159.75 C 752.05 164.62 748.78 171.80 746.75 179.05 C 744.27 188.00 742.16 197.06 739.77 206.04 C 738.46 210.59 738.85 215.35 739.02 220.02 C 737.66 220.02 736.32 220.02 734.99 220.03 C 732.80 218.46 730.80 216.29 728.07 215.76 C 724.47 217.44 722.57 221.17 720.00 224.00 L 655.15 224.00 C 663.54 221.56 671.95 219.15 680.41 216.94 C 681.80 218.38 682.55 221.42 685.06 221.01 C 690.45 220.17 695.73 218.56 700.94 216.92 C 703.16 216.44 702.88 213.66 703.65 212.00 C 707.88 211.13 712.27 210.77 716.35 209.30 C 719.01 206.26 719.69 201.97 721.35 198.35 C 727.38 182.67 733.34 166.81 736.12 150.18 C 738.40 139.95 738.63 129.43 739.72 119.04 C 740.39 114.89 737.96 111.27 736.30 107.69 C 733.90 103.11 731.71 98.21 731.82 92.93 C 731.80 83.60 729.96 73.78 733.88 64.94 C 736.95 57.56 739.07 49.79 742.58 42.60 Z" />
<path fill="#000101" d=" M 746.75 179.05 C 748.78 171.80 752.05 164.62 758.00 159.75 L 758.00 163.04 C 756.17 166.09 753.81 168.83 752.42 172.12 C 749.24 179.10 747.89 186.69 745.90 194.04 C 744.63 199.40 742.95 204.66 741.95 210.07 C 741.60 214.38 742.09 218.71 742.14 223.03 C 740.03 223.03 737.93 222.99 735.85 222.88 C 735.59 223.16 735.08 223.72 734.83 224.00 L 734.33 224.00 C 732.52 222.00 730.46 220.28 728.41 218.55 C 726.85 220.35 725.30 222.16 723.77 223.99 L 730.30 224.00 L 720.00 224.00 C 722.57 221.17 724.47 217.44 728.07 215.76 C 730.80 216.29 732.80 218.46 734.99 220.03 C 736.32 220.02 737.66 220.02 739.02 220.02 C 738.85 215.35 738.46 210.59 739.77 206.04 C 742.16 197.06 744.27 188.00 746.75 179.05 Z" />
<path fill="#ffffff" d=" M 752.42 172.12 C 753.81 168.83 756.17 166.09 758.00 163.04 L 758.00 224.00 L 734.83 224.00 C 735.08 223.72 735.59 223.16 735.85 222.88 C 737.93 222.99 740.03 223.03 742.14 223.03 C 742.09 218.71 741.60 214.38 741.95 210.07 C 742.95 204.66 744.63 199.40 745.90 194.04 C 747.89 186.69 749.24 179.10 752.42 172.12 Z" />
<path fill="#ffffff" d=" M 728.41 218.55 C 730.46 220.28 732.52 222.00 734.33 224.00 L 730.30 224.00 L 723.77 223.99 C 725.30 222.16 726.85 220.35 728.41 218.55 Z" />
</svg>
