<?xml version="1.0" encoding="UTF-8" ?>
<!DOCTYPE svg PUBLIC "-//W3C//DTD SVG 1.1//EN" "http://www.w3.org/Graphics/SVG/1.1/DTD/svg11.dtd">
<svg width="758pt" height="224pt" viewBox="0 0 758 224" version="1.1" xmlns="http://www.w3.org/2000/svg">
<path fill="#00a651" d=" M 517.80 51.56 C 523.90 51.09 530.05 51.17 536.16 51.59 C 536.48 52.56 537.11 54.51 537.42 55.48 C 536.88 54.72 535.79 53.21 535.24 52.45 C 533.49 52.28 531.52 51.61 529.94 52.73 C 528.51 53.56 528.27 55.37 527.58 56.72 C 522.92 56.75 517.84 56.14 513.66 58.66 C 508.92 61.73 506.20 67.15 505.28 72.60 C 502.36 89.23 499.42 105.85 496.44 122.47 C 493.97 122.16 491.48 122.66 490.19 125.00 C 494.11 107.06 496.70 88.84 500.12 70.80 C 501.72 61.83 508.26 52.82 517.80 51.56 Z" />
<path fill="#00a651" d=" M 487.12 148.81 C 486.74 141.87 489.08 135.21 489.71 128.35 C 490.82 130.25 492.73 131.22 494.76 131.86 C 493.34 140.54 490.06 150.48 495.56 158.45 C 500.49 166.54 510.43 168.08 518.35 171.82 C 515.86 172.04 513.61 173.00 512.13 175.07 C 506.56 172.80 500.49 171.19 495.95 167.04 C 490.69 162.52 487.14 155.83 487.12 148.81 Z" />
<path fill="#00a651" d=" M 518.77 171.79 C 537.95 179.42 557.22 186.81 576.44 194.36 C 580.57 196.01 584.91 197.30 588.67 199.75 C 588.38 201.06 588.11 202.36 587.77 203.65 C 587.46 203.52 586.84 203.26 586.53 203.12 L 588.07 202.46 C 586.70 200.76 585.69 198.10 583.08 198.23 C 580.99 197.79 579.61 199.68 578.22 200.85 C 559.28 193.61 540.51 185.96 521.51 178.88 C 521.58 176.18 520.53 173.78 518.77 171.79 Z" />
</svg>
