<?xml version="1.0" encoding="UTF-8" ?>
<!DOCTYPE svg PUBLIC "-//W3C//DTD SVG 1.1//EN" "http://www.w3.org/Graphics/SVG/1.1/DTD/svg11.dtd">
<svg width="758pt" height="224pt" viewBox="0 0 758 224" version="1.1" xmlns="http://www.w3.org/2000/svg">
<path fill="#ffffff" d=" M 0.00 0.00 L 758.00 0.00 L 758.00 224.00 L 0.00 224.00 L 0.00 0.00 Z" />
<path fill="#ffff22" d=" M 659.89 31.65 C 660.81 30.29 661.77 28.94 662.77 27.62 C 663.91 28.34 665.07 29.06 666.23 29.77 C 665.32 31.12 664.44 32.48 663.58 33.85 C 662.34 33.12 661.11 32.39 659.89 31.65 Z" />
<path fill="#1313ec" d=" M 655.41 38.50 C 656.76 36.13 658.28 33.86 659.89 31.65 C 661.11 32.39 662.34 33.12 663.58 33.85 C 662.25 36.15 660.81 38.37 659.36 40.58 C 658.02 39.89 656.72 39.19 655.41 38.50 Z" />
<path fill="#ffff22" d=" M 650.28 46.52 C 651.50 47.17 652.73 47.83 653.96 48.47 C 652.90 50.11 651.84 51.75 650.80 53.41 C 649.53 52.74 648.26 52.09 647.00 51.41 C 648.15 49.82 649.21 48.17 650.28 46.52 Z" />
<path fill="#1313ec" d=" M 642.65 57.96 C 643.95 55.68 645.33 53.44 647.00 51.41 C 648.26 52.09 649.53 52.74 650.80 53.41 C 649.45 55.72 647.99 57.96 646.57 60.22 C 645.25 59.47 643.94 58.71 642.65 57.96 Z" />
<path fill="#ffff22" d=" M 502.28 68.38 C 504.98 63.54 509.93 60.27 515.48 59.83 C 515.48 61.39 515.48 62.95 515.48 64.51 C 518.87 64.23 522.28 64.18 525.69 64.28 C 525.70 62.77 525.71 61.27 525.74 59.76 C 526.30 59.78 527.44 59.83 528.00 59.85 C 528.00 61.47 528.00 63.09 528.00 64.71 C 521.36 64.70 513.63 63.30 508.18 68.05 C 506.20 68.13 504.24 68.22 502.28 68.38 Z" />
<path fill="#1313ec" d=" M 515.48 59.83 C 518.89 59.73 522.31 59.53 525.74 59.76 C 525.71 61.27 525.70 62.77 525.69 64.28 C 522.28 64.18 518.87 64.23 515.48 64.51 C 515.48 62.95 515.48 61.39 515.48 59.83 Z" />
<path fill="#ffff22" d=" M 637.39 65.91 C 638.61 66.66 639.84 67.41 641.08 68.16 C 639.91 69.92 638.76 71.70 637.65 73.50 C 636.29 72.92 634.93 72.33 633.59 71.75 C 634.96 69.88 636.21 67.91 637.39 65.91 Z" />
<path fill="#1313ec" d=" M 502.28 68.38 C 504.24 68.22 506.20 68.13 508.18 68.05 C 505.95 71.02 504.91 74.70 504.90 78.39 C 503.18 78.35 501.46 78.32 499.76 78.29 C 500.41 74.94 501.27 71.64 502.28 68.38 Z" />
<path fill="#1313ec" d=" M 629.26 78.47 C 630.60 76.17 632.03 73.91 633.59 71.75 C 634.93 72.33 636.29 72.92 637.65 73.50 C 636.24 75.90 634.73 78.23 633.08 80.46 C 631.80 79.79 630.53 79.13 629.26 78.47 Z" />
<path fill="#ffff22" d=" M 499.76 78.29 C 501.46 78.32 503.18 78.35 504.90 78.39 C 505.12 82.08 504.49 85.98 506.23 89.41 C 504.43 87.99 502.11 88.18 499.98 88.03 C 499.99 84.78 499.87 81.53 499.76 78.29 Z" />
<path fill="#ffff22" d=" M 619.44 91.23 C 621.00 89.62 622.54 87.99 624.06 86.34 C 625.28 87.07 626.52 87.81 627.75 88.55 C 625.83 90.67 623.84 92.72 621.86 94.78 C 621.04 93.59 620.24 92.41 619.44 91.23 Z" />
<path fill="#1313ec" d=" M 499.98 88.03 C 502.11 88.18 504.43 87.99 506.23 89.41 C 506.95 90.25 507.55 91.30 507.67 92.43 C 507.78 94.34 507.83 96.25 507.90 98.16 C 503.70 96.30 500.97 92.46 499.98 88.03 Z" />
<path fill="#1313ec" d=" M 613.90 94.48 C 615.81 93.52 617.65 92.41 619.44 91.23 C 620.24 92.41 621.04 93.59 621.86 94.78 C 619.61 96.82 616.94 98.36 614.03 99.22 C 613.96 97.64 613.92 96.06 613.90 94.48 Z" />
<path fill="#ffff22" d=" M 507.67 92.43 C 511.93 96.29 517.82 97.44 523.41 97.02 C 523.42 98.54 523.43 100.06 523.45 101.58 C 518.14 101.23 512.56 101.09 507.90 98.16 C 507.83 96.25 507.78 94.34 507.67 92.43 Z" />
<path fill="#1313ec" d=" M 523.41 97.02 C 526.87 96.95 530.34 96.96 533.80 97.00 C 533.79 98.48 533.78 99.97 533.78 101.47 C 530.34 101.74 526.89 101.66 523.45 101.58 C 523.43 100.06 523.42 98.54 523.41 97.02 Z" />
<path fill="#ffff22" d=" M 533.80 97.00 C 537.01 97.00 540.21 96.99 543.42 96.99 C 543.42 98.48 543.43 99.97 543.44 101.46 C 540.22 101.28 536.99 101.27 533.78 101.47 C 533.78 99.97 533.79 98.48 533.80 97.00 Z" />
<path fill="#1313ec" d=" M 543.42 96.99 C 546.88 96.98 550.34 96.96 553.81 97.00 C 553.79 98.49 553.78 99.98 553.78 101.47 C 550.34 101.71 546.88 101.77 543.44 101.46 C 543.43 99.97 543.42 98.48 543.42 96.99 Z" />
<path fill="#ffff22" d=" M 553.81 97.00 C 557.01 96.99 560.22 96.99 563.43 97.00 C 563.42 98.50 563.43 100.01 563.44 101.51 C 560.22 101.33 556.99 101.31 553.78 101.47 C 553.78 99.98 553.79 98.49 553.81 97.00 Z" />
<path fill="#1313ec" d=" M 563.43 97.00 C 566.88 96.98 570.33 96.98 573.79 97.00 C 573.78 98.51 573.78 100.02 573.78 101.53 C 570.34 101.80 566.88 101.79 563.44 101.51 C 563.43 100.01 563.42 98.50 563.43 97.00 Z" />
<path fill="#ffff22" d=" M 573.79 97.00 C 577.00 97.00 580.20 96.99 583.42 96.99 C 583.42 98.50 583.43 100.01 583.45 101.52 C 580.22 101.39 577.00 101.38 573.78 101.53 C 573.78 100.02 573.78 98.51 573.79 97.00 Z" />
<path fill="#1313ec" d=" M 583.42 96.99 C 586.88 96.97 590.35 96.96 593.82 97.00 C 593.79 98.47 593.76 99.94 593.74 101.42 L 593.74 101.68 C 590.30 101.73 586.86 101.80 583.45 101.52 C 583.43 100.01 583.42 98.50 583.42 96.99 Z" />
<path fill="#ffff22" d=" M 593.82 97.00 C 597.07 96.98 600.32 96.91 603.57 97.18 C 603.42 98.48 603.31 99.79 603.26 101.10 C 600.09 101.32 596.91 101.44 593.74 101.42 C 593.76 99.94 593.79 98.47 593.82 97.00 Z" />
<path fill="#1313ec" d=" M 603.57 97.18 L 603.78 96.41 C 604.34 97.92 604.76 99.47 605.18 101.03 C 604.70 101.05 603.74 101.09 603.26 101.10 C 603.31 99.79 603.42 98.48 603.57 97.18 Z" />
</svg>
