<?xml version="1.0" encoding="UTF-8" ?>
<!DOCTYPE svg PUBLIC "-//W3C//DTD SVG 1.1//EN" "http://www.w3.org/Graphics/SVG/1.1/DTD/svg11.dtd">
<svg width="758pt" height="224pt" viewBox="0 0 758 224" version="1.1" xmlns="http://www.w3.org/2000/svg">
<path fill="#0000ff" d=" M 648.69 34.49 C 651.00 30.83 653.34 27.20 655.77 23.63 C 657.28 24.61 658.80 25.58 660.35 26.50 C 657.96 30.05 655.80 33.75 653.23 37.17 C 651.73 36.25 650.21 35.35 648.69 34.49 Z" />
<path fill="#0000ff" d=" M 643.22 42.45 C 644.83 43.38 646.45 44.33 648.03 45.36 C 645.56 49.09 642.95 52.74 640.82 56.68 C 639.46 55.51 636.05 55.45 636.37 53.22 C 638.49 49.53 641.24 46.23 643.22 42.45 Z" />
<path fill="#0000ff" d=" M 622.20 74.16 C 625.12 70.02 628.16 65.93 630.69 61.54 C 631.99 62.81 633.50 63.84 635.10 64.74 C 632.54 68.91 629.63 72.86 627.01 76.98 C 625.41 76.03 623.80 75.09 622.20 74.16 Z" />
<path fill="#0000ff" d=" M 518.09 71.13 C 520.61 68.37 524.45 68.25 527.92 68.20 C 527.95 70.09 527.88 72.04 528.63 73.82 C 526.21 73.73 523.21 73.27 521.48 75.39 C 518.15 79.41 521.22 87.14 526.93 86.27 C 553.35 86.06 579.79 86.54 606.21 86.09 C 604.77 86.82 603.77 88.04 602.93 89.37 C 602.94 89.96 602.97 91.14 602.98 91.73 C 577.10 91.57 551.22 91.70 525.36 91.61 C 515.49 91.60 511.18 77.49 518.09 71.13 Z" />
<path fill="#0000ff" d=" M 609.41 85.75 C 612.46 85.85 614.77 83.70 616.76 81.66 C 618.13 82.89 619.68 83.92 621.27 84.88 C 619.05 87.27 616.38 89.15 613.62 90.87 C 612.78 88.72 611.69 86.61 609.41 85.75 Z" />
</svg>
