<?xml version="1.0" encoding="UTF-8" ?>
<!DOCTYPE svg PUBLIC "-//W3C//DTD SVG 1.1//EN" "http://www.w3.org/Graphics/SVG/1.1/DTD/svg11.dtd">
<svg width="758pt" height="224pt" viewBox="0 0 758 224" version="1.1" xmlns="http://www.w3.org/2000/svg">
<path fill="#ffffff" d=" M 0.00 0.00 L 758.00 0.00 L 758.00 224.00 L 0.00 224.00 L 0.00 0.00 Z" />
<path fill="#ffff23" d=" M 665.03 23.97 C 666.20 22.67 668.31 23.19 668.67 24.97 C 667.70 28.29 665.26 30.88 663.59 33.84 C 662.35 33.12 661.13 32.39 659.92 31.66 C 661.73 29.17 663.12 26.40 665.03 23.97 Z" />
<path fill="#1616e9" d=" M 654.36 40.34 C 656.05 37.35 657.78 34.37 659.92 31.66 C 661.13 32.39 662.35 33.12 663.59 33.84 C 661.87 36.62 660.33 39.58 658.11 41.99 C 656.84 41.48 655.60 40.91 654.36 40.34 Z" />
<path fill="#ffff23" d=" M 654.36 40.34 C 655.60 40.91 656.84 41.48 658.11 41.99 C 655.81 45.88 653.19 49.57 650.80 53.40 C 649.53 52.74 648.27 52.08 647.02 51.42 C 649.51 47.75 651.90 44.02 654.36 40.34 Z" />
<path fill="#1616e9" d=" M 641.17 60.22 C 643.30 57.40 644.60 54.03 647.02 51.42 C 648.27 52.08 649.53 52.74 650.80 53.40 C 649.19 56.32 647.26 59.04 645.34 61.76 C 644.03 61.22 642.72 60.68 641.38 60.28 L 641.17 60.22 Z" />
<path fill="#ffff23" d=" M 502.42 68.25 C 505.01 63.42 510.03 60.28 515.47 59.85 C 515.47 61.41 515.47 62.97 515.48 64.53 C 518.87 64.23 522.29 64.16 525.70 64.30 C 525.71 62.79 525.72 61.29 525.75 59.78 C 528.34 60.16 533.83 58.75 533.24 63.05 C 531.41 65.79 527.73 64.51 525.01 64.61 C 519.31 64.54 512.73 63.87 508.21 68.08 C 506.27 68.13 504.34 68.18 502.42 68.25 Z" />
<path fill="#1616e9" d=" M 515.47 59.85 C 518.89 59.74 522.32 59.47 525.75 59.78 C 525.72 61.29 525.71 62.79 525.70 64.30 C 522.29 64.16 518.87 64.23 515.48 64.53 C 515.47 62.97 515.47 61.41 515.47 59.85 Z" />
<path fill="#ffff23" d=" M 633.59 71.74 C 636.30 68.00 638.61 63.98 641.38 60.28 C 642.72 60.68 644.03 61.22 645.34 61.76 C 642.74 65.65 640.12 69.53 637.65 73.50 C 636.29 72.91 634.93 72.33 633.59 71.74 Z" />
<path fill="#1616e9" d=" M 499.77 78.29 C 500.38 74.87 501.26 71.52 502.42 68.25 C 504.34 68.18 506.27 68.13 508.21 68.08 C 505.92 71.00 504.91 74.72 504.92 78.39 C 503.20 78.36 501.48 78.32 499.77 78.29 Z" />
<path fill="#1616e9" d=" M 628.06 80.32 C 629.79 77.39 631.61 74.51 633.59 71.74 C 634.93 72.33 636.29 72.91 637.65 73.50 C 635.95 76.42 634.07 79.23 632.01 81.92 C 630.69 81.39 629.37 80.85 628.06 80.32 Z" />
<path fill="#ffff23" d=" M 499.77 78.29 C 501.48 78.32 503.20 78.36 504.92 78.39 C 505.14 82.07 504.46 85.96 506.20 89.37 C 504.42 87.94 502.11 88.20 499.99 88.06 C 500.00 84.80 499.85 81.55 499.77 78.29 Z" />
<path fill="#ffff23" d=" M 619.44 91.21 C 622.88 88.06 625.59 84.25 628.06 80.32 C 629.37 80.85 630.69 81.39 632.01 81.92 C 629.03 86.47 626.11 91.26 621.68 94.56 C 620.93 93.44 620.18 92.32 619.44 91.21 Z" />
<path fill="#1616e9" d=" M 499.99 88.06 C 502.11 88.20 504.42 87.94 506.20 89.37 C 506.92 90.24 507.55 91.27 507.69 92.42 C 507.80 94.33 507.84 96.24 507.90 98.16 C 503.73 96.28 500.91 92.53 499.99 88.06 Z" />
<path fill="#1616e9" d=" M 607.99 96.27 C 612.32 96.04 615.93 93.50 619.44 91.21 C 620.18 92.32 620.93 93.44 621.68 94.56 L 621.95 94.94 C 616.75 99.22 609.91 100.68 603.35 101.11 C 603.34 99.73 603.34 98.34 603.34 96.96 C 604.89 96.74 606.43 96.51 607.99 96.27 Z" />
<path fill="#ffff23" d=" M 507.69 92.42 C 511.92 96.30 517.82 97.44 523.39 97.01 C 523.41 98.50 523.44 99.99 523.48 101.48 C 518.14 101.32 512.56 101.08 507.90 98.16 C 507.84 96.24 507.80 94.33 507.69 92.42 Z" />
<path fill="#ffff23" d=" M 593.83 96.99 C 598.56 97.12 603.30 97.00 607.99 96.27 C 606.43 96.51 604.89 96.74 603.34 96.96 C 603.34 98.34 603.34 99.73 603.35 101.11 C 600.15 101.30 596.95 101.46 593.74 101.42 C 593.77 99.94 593.80 98.47 593.83 96.99 Z" />
<path fill="#1616e9" d=" M 523.39 97.01 C 526.86 96.95 530.34 96.96 533.81 97.00 C 533.80 98.48 533.79 99.97 533.79 101.46 C 530.36 101.79 526.91 101.59 523.48 101.65 L 523.48 101.48 C 523.44 99.99 523.41 98.50 523.39 97.01 Z" />
<path fill="#ffff23" d=" M 533.81 97.00 C 537.01 97.00 540.21 96.99 543.41 96.99 C 543.41 98.48 543.42 99.97 543.43 101.45 C 540.22 101.28 537.00 101.27 533.79 101.46 C 533.79 99.97 533.80 98.48 533.81 97.00 Z" />
<path fill="#1616e9" d=" M 543.41 96.99 C 546.87 96.97 550.34 96.96 553.82 97.00 C 553.80 98.49 553.79 99.97 553.79 101.46 C 550.34 101.72 546.87 101.81 543.43 101.45 C 543.42 99.97 543.41 98.48 543.41 96.99 Z" />
<path fill="#ffff23" d=" M 553.82 97.00 C 557.01 96.99 560.21 96.99 563.41 97.00 C 563.42 98.44 563.44 99.89 563.47 101.33 C 560.24 101.41 557.01 101.32 553.79 101.46 C 553.79 99.97 553.80 98.49 553.82 97.00 Z" />
<path fill="#1616e9" d=" M 563.41 97.00 C 566.87 96.97 570.34 96.98 573.82 97.00 C 573.79 98.46 573.77 99.92 573.75 101.39 L 573.75 101.63 C 570.32 101.76 566.89 101.72 563.47 101.64 L 563.47 101.33 C 563.44 99.89 563.42 98.44 563.41 97.00 Z" />
<path fill="#ffff23" d=" M 573.82 97.00 C 577.01 97.00 580.20 96.99 583.40 96.99 C 583.41 98.43 583.44 99.88 583.47 101.32 C 580.23 101.49 576.99 101.46 573.75 101.39 C 573.77 99.92 573.79 98.46 573.82 97.00 Z" />
<path fill="#1616e9" d=" M 583.40 96.99 C 586.87 96.96 590.35 96.97 593.83 96.99 C 593.80 98.47 593.77 99.94 593.74 101.42 L 593.74 101.68 C 590.31 101.76 586.89 101.72 583.47 101.65 L 583.47 101.32 C 583.44 99.88 583.41 98.43 583.40 96.99 Z" />
</svg>
