<?xml version="1.0" encoding="UTF-8" ?>
<!DOCTYPE svg PUBLIC "-//W3C//DTD SVG 1.1//EN" "http://www.w3.org/Graphics/SVG/1.1/DTD/svg11.dtd">
<svg width="758pt" height="224pt" viewBox="0 0 758 224" version="1.1" xmlns="http://www.w3.org/2000/svg">
<path fill="#ffff00" d=" M 668.07 32.66 C 670.43 32.67 672.79 32.59 675.16 32.36 C 671.22 37.60 667.37 43.06 664.68 49.05 C 664.97 46.20 664.86 43.23 662.96 40.91 C 664.55 38.09 666.31 35.37 668.07 32.66 Z" />
<path fill="#ffff00" d=" M 650.12 60.48 C 652.01 57.48 653.95 54.51 655.93 51.55 C 658.20 51.62 660.50 51.62 662.78 51.45 C 659.05 56.32 655.57 61.46 652.87 66.99 C 653.12 64.39 651.92 62.22 650.12 60.48 Z" />
<path fill="#ffff00" d=" M 643.13 71.23 C 645.29 71.48 647.45 71.66 649.63 71.76 C 645.81 76.71 642.09 81.88 639.58 87.63 C 639.21 85.20 638.50 82.83 637.00 80.85 C 638.88 77.54 641.03 74.40 643.13 71.23 Z" />
<path fill="#ffff00" d=" M 615.91 102.01 C 621.48 100.14 626.20 96.41 629.53 91.58 C 631.86 91.81 634.20 91.86 636.55 91.72 C 633.40 95.18 630.78 99.17 627.08 102.09 C 623.80 104.82 619.75 106.31 615.79 107.69 C 615.83 105.79 615.88 103.90 615.91 102.01 Z" />
<path fill="#ffff00" d=" M 517.14 107.20 C 520.72 104.29 525.41 103.21 529.96 103.27 C 554.75 103.13 579.54 103.24 604.33 103.29 C 604.76 105.12 605.21 106.96 605.69 108.78 C 580.46 108.53 555.22 108.54 529.99 108.68 C 525.98 108.59 521.66 109.71 519.05 112.96 C 515.56 117.42 514.14 123.16 513.54 128.70 C 513.49 125.72 511.13 124.40 508.70 123.43 C 510.35 117.56 512.25 111.23 517.14 107.20 Z" />
<path fill="#ffff00" d=" M 412.81 111.31 C 416.24 116.41 420.28 121.08 423.95 126.02 C 427.17 130.10 429.79 134.89 434.40 137.60 C 440.46 141.28 446.68 144.96 453.48 147.09 C 450.74 146.92 448.36 148.20 446.94 150.54 C 439.57 146.75 431.58 143.46 425.75 137.37 C 420.71 130.89 415.88 124.25 410.70 117.87 C 412.13 115.95 412.80 113.69 412.81 111.31 Z" />
<path fill="#ffff00" d=" M 506.83 135.40 C 508.90 135.11 511.05 134.83 512.78 133.54 C 511.17 141.57 510.97 150.01 507.55 157.58 C 505.61 161.90 501.93 165.76 497.13 166.66 C 492.62 167.70 488.00 166.55 483.71 165.13 C 475.15 162.19 466.72 158.89 458.31 155.55 C 458.30 153.51 458.27 151.46 458.22 149.42 C 467.50 153.67 477.15 157.07 486.79 160.42 C 491.45 162.06 497.79 162.59 501.01 158.02 C 505.40 151.37 505.65 143.04 506.83 135.40 Z" />
</svg>
