<?xml version="1.0" encoding="UTF-8" ?>
<!DOCTYPE svg PUBLIC "-//W3C//DTD SVG 1.1//EN" "http://www.w3.org/Graphics/SVG/1.1/DTD/svg11.dtd">
<svg width="758pt" height="224pt" viewBox="0 0 758 224" version="1.1" xmlns="http://www.w3.org/2000/svg">
<path fill="#ffffff" d=" M 0.00 0.00 L 758.00 0.00 L 758.00 224.00 L 0.00 224.00 L 0.00 0.00 Z" />
<path fill="#ffff06" d=" M 522.91 59.51 C 525.85 59.87 528.81 59.93 531.76 60.16 C 533.03 60.91 533.70 62.56 532.51 63.73 C 530.00 65.41 526.79 64.27 523.99 64.40 C 518.57 64.42 512.30 63.96 508.10 68.05 C 506.28 68.08 504.45 68.09 502.64 68.09 C 505.26 63.41 510.15 60.51 515.43 59.90 C 515.43 61.43 515.44 62.97 515.45 64.50 C 518.86 64.18 522.29 64.11 525.71 64.23 C 525.74 63.16 525.79 61.03 525.81 59.97 C 525.28 59.88 524.22 59.72 523.69 59.64 L 522.91 59.51 Z" />
<path fill="#1d1de2" d=" M 515.43 59.90 C 518.18 59.85 520.93 59.64 523.69 59.64 C 524.22 59.72 525.28 59.88 525.81 59.97 C 525.79 61.03 525.74 63.16 525.71 64.23 C 522.29 64.11 518.86 64.18 515.45 64.50 C 515.44 62.97 515.43 61.43 515.43 59.90 Z" />
<path fill="#1d1de2" d=" M 499.84 78.32 C 500.37 74.82 501.29 71.38 502.64 68.09 C 504.45 68.09 506.28 68.08 508.10 68.05 C 505.96 71.08 504.88 74.74 504.88 78.44 C 503.19 78.40 501.51 78.36 499.84 78.32 Z" />
<path fill="#ffff06" d=" M 499.84 78.32 C 501.51 78.36 503.19 78.40 504.88 78.44 C 504.91 81.73 504.83 85.02 504.96 88.31 C 503.30 88.21 501.65 88.11 500.00 88.02 C 499.98 84.79 499.92 81.56 499.84 78.32 Z" />
<path fill="#1d1de2" d=" M 500.00 88.02 C 501.65 88.11 503.30 88.21 504.96 88.31 C 505.24 90.92 505.21 93.54 505.13 96.16 L 504.85 96.43 C 503.70 97.96 501.78 98.28 500.02 98.57 C 499.98 95.05 499.97 91.53 500.00 88.02 Z" />
<path fill="#ffff06" d=" M 500.02 98.57 C 501.78 98.28 503.70 97.96 504.85 96.43 C 504.57 113.20 505.35 130.01 504.39 146.76 L 504.39 146.73 C 504.41 145.98 504.44 144.47 504.46 143.72 C 502.97 143.71 501.49 143.70 500.02 143.70 C 499.97 140.43 499.99 137.16 500.00 133.89 C 501.44 133.92 502.88 133.96 504.34 134.00 C 504.16 130.73 504.44 127.45 504.72 124.19 C 503.18 124.20 501.64 124.21 500.11 124.21 C 500.03 121.77 500.02 119.33 500.01 116.88 C 501.47 116.92 502.93 116.96 504.41 117.01 C 504.27 113.59 504.25 110.16 504.66 106.76 C 503.10 106.75 501.56 106.74 500.01 106.74 C 499.99 104.02 499.97 101.29 500.02 98.57 Z" />
<path fill="#1d1de2" d=" M 500.01 106.74 C 501.56 106.74 503.10 106.75 504.66 106.76 C 504.25 110.16 504.27 113.59 504.41 117.01 C 502.93 116.96 501.47 116.92 500.01 116.88 C 499.99 113.50 500.00 110.12 500.01 106.74 Z" />
<path fill="#1d1de2" d=" M 408.66 113.36 C 407.21 111.66 405.60 109.19 407.86 107.35 C 409.94 107.96 411.76 109.23 412.61 111.29 C 412.64 111.86 412.69 113.01 412.71 113.58 C 411.70 113.52 409.67 113.41 408.66 113.36 Z" />
<path fill="#ffff06" d=" M 412.61 111.29 C 414.72 113.66 416.72 116.12 418.69 118.61 C 417.16 119.10 415.96 120.18 414.75 121.18 C 412.78 118.52 410.59 116.04 408.66 113.36 C 409.67 113.41 411.70 113.52 412.71 113.58 C 412.69 113.01 412.64 111.86 412.61 111.29 Z" />
<path fill="#1d1de2" d=" M 414.75 121.18 C 415.96 120.18 417.16 119.10 418.69 118.61 C 420.73 121.03 422.59 123.60 424.52 126.12 C 423.43 127.23 422.35 128.33 421.27 129.43 C 420.98 129.07 420.38 128.34 420.09 127.98 C 418.28 125.73 416.55 123.43 414.75 121.18 Z" />
<path fill="#1d1de2" d=" M 500.11 124.21 C 501.64 124.21 503.18 124.20 504.72 124.19 C 504.44 127.45 504.16 130.73 504.34 134.00 C 502.88 133.96 501.44 133.92 500.00 133.89 C 500.30 130.67 500.31 127.44 500.11 124.21 Z" />
<path fill="#ffff06" d=" M 424.52 126.12 C 426.55 128.82 428.62 131.49 430.54 134.27 C 430.02 134.95 428.99 136.32 428.47 137.00 C 428.85 137.45 429.22 137.90 429.59 138.37 L 429.06 139.12 C 428.98 139.23 428.82 139.46 428.74 139.57 C 426.20 135.46 422.93 131.87 420.09 127.98 C 420.38 128.34 420.98 129.07 421.27 129.43 C 422.35 128.33 423.43 127.23 424.52 126.12 Z" />
<path fill="#1d1de2" d=" M 430.54 134.27 L 430.61 134.18 C 432.59 136.19 434.92 137.79 437.30 139.29 C 437.72 139.56 438.56 140.11 438.98 140.38 C 438.06 141.55 437.14 142.72 436.21 143.87 L 435.56 143.70 C 433.20 142.46 431.13 140.77 429.06 139.12 L 429.59 138.37 C 429.22 137.90 428.85 137.45 428.47 137.00 C 428.99 136.32 430.02 134.95 430.54 134.27 Z" />
<path fill="#ffff06" d=" M 437.30 139.29 C 440.32 141.25 443.54 142.88 446.81 144.37 L 446.76 144.46 C 446.04 145.80 445.32 147.14 444.62 148.48 C 441.43 146.86 438.27 145.19 435.09 143.57 L 435.56 143.70 L 436.21 143.87 C 437.14 142.72 438.06 141.55 438.98 140.38 C 438.56 140.11 437.72 139.56 437.30 139.29 Z" />
<path fill="#1d1de2" d=" M 500.02 143.70 C 501.49 143.70 502.97 143.71 504.46 143.72 C 504.44 144.47 504.41 145.98 504.39 146.73 C 504.22 148.17 504.01 149.61 503.79 151.05 C 503.49 152.02 503.18 152.99 502.86 153.96 C 501.75 153.94 499.53 153.88 498.42 153.85 C 499.24 150.52 500.01 147.15 500.02 143.70 Z" />
<path fill="#1d1de2" d=" M 446.76 144.46 C 449.89 145.65 452.87 147.20 455.93 148.59 C 455.36 149.59 454.78 150.59 454.19 151.58 L 453.09 151.98 C 450.21 150.94 447.41 149.72 444.62 148.48 C 445.32 147.14 446.04 145.80 446.76 144.46 Z" />
<path fill="#ffff06" d=" M 455.93 148.59 C 458.90 149.65 461.80 150.91 464.71 152.14 C 464.06 153.46 463.48 154.81 462.89 156.15 C 459.54 154.97 456.18 153.75 453.09 151.98 L 454.19 151.58 C 454.78 150.59 455.36 149.59 455.93 148.59 Z" />
<path fill="#ffff06" d=" M 502.86 153.96 C 503.18 152.99 503.49 152.02 503.79 151.05 C 502.87 156.79 499.34 162.35 493.57 164.14 C 493.55 162.59 493.48 161.05 493.36 159.52 L 492.44 159.57 L 492.29 159.59 C 495.19 159.00 497.54 156.72 498.25 153.85 L 498.42 153.85 C 499.53 153.88 501.75 153.94 502.86 153.96 Z" />
<path fill="#1d1de2" d=" M 464.71 152.14 C 468.11 153.08 471.41 154.41 474.60 155.91 C 473.92 157.20 473.25 158.49 472.55 159.77 L 470.97 159.30 C 468.22 158.40 465.56 157.25 462.89 156.15 C 463.48 154.81 464.06 153.46 464.71 152.14 Z" />
<path fill="#ffff06" d=" M 474.60 155.91 L 474.72 155.69 C 477.49 156.86 480.32 157.88 483.18 158.81 C 483.23 160.40 483.30 162.00 483.37 163.59 C 479.18 162.33 475.07 160.81 470.97 159.30 L 472.55 159.77 C 473.25 158.49 473.92 157.20 474.60 155.91 Z" />
<path fill="#1d1de2" d=" M 483.18 158.81 C 486.22 159.48 489.33 160.55 492.44 159.57 L 493.36 159.52 C 493.48 161.05 493.55 162.59 493.57 164.14 C 490.17 164.70 486.75 164.26 483.38 163.80 L 483.37 163.59 C 483.30 162.00 483.23 160.40 483.18 158.81 Z" />
</svg>
