<?xml version="1.0" encoding="UTF-8" ?>
<!DOCTYPE svg PUBLIC "-//W3C//DTD SVG 1.1//EN" "http://www.w3.org/Graphics/SVG/1.1/DTD/svg11.dtd">
<svg width="758pt" height="224pt" viewBox="0 0 758 224" version="1.1" xmlns="http://www.w3.org/2000/svg">
<path fill="#ffffff" d=" M 0.00 0.00 L 758.00 0.00 L 758.00 224.00 L 0.00 224.00 L 0.00 0.00 Z" />
<path fill="#ffff06" d=" M 523.42 59.44 C 524.96 59.42 526.42 59.96 527.93 60.24 C 527.95 61.68 527.96 63.13 527.98 64.57 C 521.34 64.54 513.42 63.13 508.10 68.07 C 506.27 68.09 504.45 68.10 502.64 68.11 C 505.25 63.41 510.16 60.50 515.44 59.90 C 515.44 61.43 515.45 62.97 515.46 64.50 C 518.93 64.16 522.42 64.12 525.91 64.22 C 526.07 62.12 525.08 60.58 523.42 59.44 Z" />
<path fill="#1919e6" d=" M 515.44 59.90 C 518.10 59.85 520.77 59.81 523.42 59.44 C 525.08 60.58 526.07 62.12 525.91 64.22 C 522.42 64.12 518.93 64.16 515.46 64.50 C 515.45 62.97 515.44 61.43 515.44 59.90 Z" />
<path fill="#1919e6" d=" M 499.84 78.32 C 500.38 74.82 501.30 71.39 502.64 68.11 C 504.45 68.10 506.27 68.09 508.10 68.07 C 505.94 71.08 504.87 74.74 504.87 78.44 C 503.19 78.39 501.51 78.35 499.84 78.32 Z" />
<path fill="#ffff06" d=" M 499.84 78.32 C 501.51 78.35 503.19 78.39 504.87 78.44 C 504.92 81.73 504.83 85.03 504.96 88.32 C 503.30 88.22 501.65 88.13 500.01 88.04 C 499.98 84.80 499.91 81.56 499.84 78.32 Z" />
<path fill="#1919e6" d=" M 500.01 88.04 C 501.65 88.13 503.30 88.22 504.96 88.32 C 505.24 90.92 505.21 93.54 505.14 96.15 L 504.85 96.42 C 503.71 97.97 501.79 98.29 500.02 98.54 C 499.98 95.04 499.97 91.54 500.01 88.04 Z" />
<path fill="#ffff06" d=" M 500.02 98.54 C 501.79 98.29 503.71 97.97 504.85 96.42 C 504.63 105.63 505.04 114.83 504.79 124.04 C 503.19 123.77 501.61 123.48 500.03 123.18 C 500.03 121.08 500.03 118.97 500.01 116.86 C 501.47 116.90 502.94 116.95 504.41 117.00 C 504.29 113.62 504.29 110.23 504.42 106.85 C 502.95 106.80 501.48 106.75 500.02 106.71 C 499.99 103.99 499.97 101.26 500.02 98.54 Z" />
<path fill="#1919e6" d=" M 500.02 106.71 C 501.48 106.75 502.95 106.80 504.42 106.85 C 504.29 110.23 504.29 113.62 504.41 117.00 C 502.94 116.95 501.47 116.90 500.01 116.86 C 500.01 113.48 500.03 110.09 500.02 106.71 Z" />
<path fill="#ffff06" d=" M 413.06 111.69 C 414.86 113.85 416.52 116.13 418.49 118.13 C 417.24 119.14 416.01 120.16 414.78 121.19 C 413.40 119.41 412.02 117.63 410.65 115.84 C 411.51 114.49 412.33 113.12 413.06 111.69 Z" />
<path fill="#1919e6" d=" M 414.78 121.19 C 416.01 120.16 417.24 119.14 418.49 118.13 C 420.37 120.91 422.62 123.42 424.46 126.24 C 423.39 127.29 422.32 128.35 421.26 129.40 C 420.95 129.04 420.35 128.30 420.05 127.93 C 418.27 125.71 416.56 123.42 414.78 121.19 Z" />
<path fill="#ffff06" d=" M 424.46 126.24 L 424.62 126.08 C 426.47 128.87 428.64 131.43 430.48 134.24 C 429.78 135.38 428.58 136.40 428.85 137.87 C 429.12 138.39 429.66 139.43 429.93 139.95 C 425.93 136.63 423.45 131.84 420.05 127.93 C 420.35 128.30 420.95 129.04 421.26 129.40 C 422.32 128.35 423.39 127.29 424.46 126.24 Z" />
<path fill="#1919e6" d=" M 499.99 133.23 C 501.26 132.30 504.02 132.80 504.70 134.07 C 503.13 134.18 501.48 134.39 499.99 133.78 L 499.99 133.23 Z" />
<path fill="#1919e6" d=" M 430.48 134.24 L 430.57 134.11 C 432.48 136.12 434.71 137.80 437.21 139.03 L 437.30 139.37 C 437.49 140.15 437.71 140.93 437.96 141.71 C 437.52 142.24 436.65 143.31 436.21 143.84 L 435.54 143.68 C 433.58 142.57 431.73 141.30 429.93 139.95 C 429.66 139.43 429.12 138.39 428.85 137.87 C 428.58 136.40 429.78 135.38 430.48 134.24 Z" />
<path fill="#ffff06" d=" M 499.99 133.78 C 501.48 134.39 503.13 134.18 504.70 134.07 C 504.79 138.34 504.84 142.65 504.22 146.89 C 504.28 146.10 504.41 144.52 504.48 143.72 C 502.99 143.71 501.50 143.71 500.01 143.70 C 499.99 140.39 500.01 137.09 499.99 133.78 Z" />
<path fill="#ffff06" d=" M 437.30 139.37 C 440.45 141.07 443.49 142.99 446.83 144.35 L 446.75 144.49 C 446.04 145.82 445.33 147.15 444.64 148.49 C 441.45 146.88 438.31 145.21 435.14 143.59 L 435.54 143.68 L 436.21 143.84 C 436.65 143.31 437.52 142.24 437.96 141.71 C 437.71 140.93 437.49 140.15 437.30 139.37 Z" />
<path fill="#1919e6" d=" M 500.01 143.70 C 501.50 143.71 502.99 143.71 504.48 143.72 C 504.41 144.52 504.28 146.10 504.22 146.89 C 504.16 147.95 504.06 150.06 504.01 151.12 L 503.75 151.34 C 502.16 152.52 500.82 154.57 498.47 153.93 C 499.20 150.56 500.04 147.18 500.01 143.70 Z" />
<path fill="#1919e6" d=" M 446.75 144.49 C 449.28 145.45 451.73 146.60 454.23 147.65 C 451.86 147.63 449.92 148.82 448.01 150.04 C 446.86 149.59 445.75 149.02 444.64 148.49 C 445.33 147.15 446.04 145.82 446.75 144.49 Z" />
<path fill="#1919e6" d=" M 455.26 148.24 C 455.81 148.82 455.81 148.82 455.26 148.24 Z" />
<path fill="#ffff06" d=" M 456.14 148.64 C 459.03 149.73 461.87 150.94 464.72 152.14 C 464.07 153.46 463.49 154.81 462.90 156.16 C 461.04 155.59 459.25 154.84 457.54 153.92 C 457.61 152.04 456.79 150.34 456.14 148.64 Z" />
<path fill="#ffff06" d=" M 498.47 153.93 C 500.82 154.57 502.16 152.52 503.75 151.34 C 502.65 156.94 499.29 162.43 493.54 164.13 C 493.54 162.59 493.50 161.04 493.43 159.50 L 492.45 159.59 L 492.27 159.59 C 495.15 159.04 497.48 156.78 498.22 153.96 L 498.47 153.93 Z" />
<path fill="#1919e6" d=" M 464.72 152.14 C 468.11 153.15 471.48 154.34 474.61 156.00 C 473.98 157.19 473.38 158.39 472.81 159.61 C 472.49 159.56 471.86 159.47 471.54 159.42 C 468.57 158.57 465.75 157.31 462.90 156.16 C 463.49 154.81 464.07 153.46 464.72 152.14 Z" />
<path fill="#ffff06" d=" M 474.61 156.00 L 474.79 155.65 C 477.52 156.91 480.35 157.89 483.20 158.82 C 483.25 160.40 483.30 161.98 483.37 163.57 C 479.13 162.38 475.05 160.72 470.88 159.33 L 471.54 159.42 C 471.86 159.47 472.49 159.56 472.81 159.61 C 473.38 158.39 473.98 157.19 474.61 156.00 Z" />
<path fill="#1919e6" d=" M 483.20 158.82 C 486.23 159.49 489.34 160.56 492.45 159.59 L 493.43 159.50 C 493.50 161.04 493.54 162.59 493.54 164.13 C 490.15 164.70 486.74 164.24 483.38 163.79 L 483.37 163.57 C 483.30 161.98 483.25 160.40 483.20 158.82 Z" />
</svg>
