<?xml version="1.0" encoding="UTF-8" ?>
<!DOCTYPE svg PUBLIC "-//W3C//DTD SVG 1.1//EN" "http://www.w3.org/Graphics/SVG/1.1/DTD/svg11.dtd">
<svg width="758pt" height="224pt" viewBox="0 0 758 224" version="1.1" xmlns="http://www.w3.org/2000/svg">
<path fill="#ff0000" d=" M 190.02 36.85 C 231.02 36.95 272.01 36.10 313.01 36.36 C 320.99 36.58 329.72 36.69 336.43 41.62 C 340.73 44.90 345.00 48.42 348.02 52.98 C 362.66 74.11 377.33 95.23 392.68 115.86 C 391.09 117.65 390.68 119.99 390.54 122.31 C 375.29 101.50 360.42 80.40 345.71 59.20 C 342.15 53.64 337.48 48.70 331.91 45.13 C 325.54 41.66 318.02 41.93 311.00 41.73 C 288.66 41.75 266.32 41.60 244.00 42.17 C 200.32 42.17 156.64 42.81 112.95 42.70 C 106.65 42.59 100.01 43.03 94.54 46.51 C 85.91 51.75 77.67 57.60 69.37 63.35 C 68.40 61.84 67.44 60.33 66.47 58.82 C 74.42 53.26 82.30 47.58 90.60 42.53 C 96.14 38.92 102.72 37.25 109.31 37.34 C 136.21 37.19 163.12 37.39 190.02 36.85 Z" />
<path fill="#ff0000" d=" M 28.65 86.07 C 38.74 78.69 48.68 71.06 59.07 64.13 C 60.20 65.53 61.01 67.15 61.97 68.66 C 51.72 75.82 41.58 83.13 31.69 90.76 C 30.67 89.20 29.65 87.64 28.65 86.07 Z" />
<path fill="#ff0000" d=" M 390.95 122.88 C 393.40 124.35 396.09 124.95 398.79 123.70 C 402.28 128.63 406.15 133.28 409.99 137.94 C 415.15 143.73 420.06 149.99 426.69 154.20 C 432.19 157.27 438.11 159.49 443.89 161.97 C 443.59 163.86 443.12 165.72 443.10 167.65 C 434.53 163.43 424.76 161.00 417.77 154.14 C 407.74 144.71 399.56 133.56 390.95 122.88 Z" />
<path fill="#ff0000" d=" M 449.42 170.22 C 450.88 168.89 451.96 167.25 452.87 165.51 C 470.94 173.03 489.34 179.78 507.63 186.74 C 507.18 188.75 507.11 190.78 507.61 192.79 C 488.32 185.03 468.77 177.87 449.42 170.22 Z" />
<path fill="#ff0000" d=" M 516.61 190.13 C 535.84 197.32 555.13 204.36 574.39 211.49 C 573.77 213.20 573.26 214.94 572.76 216.69 C 553.74 209.58 534.63 202.72 515.65 195.51 C 514.16 194.88 512.58 194.58 510.99 194.58 C 513.68 194.37 515.60 192.56 516.61 190.13 Z" />
</svg>
