<?xml version="1.0" encoding="UTF-8" ?>
<!DOCTYPE svg PUBLIC "-//W3C//DTD SVG 1.1//EN" "http://www.w3.org/Graphics/SVG/1.1/DTD/svg11.dtd">
<svg width="758pt" height="224pt" viewBox="0 0 758 224" version="1.1" xmlns="http://www.w3.org/2000/svg">
<path fill="#ffffff" d=" M 0.00 0.00 L 758.00 0.00 L 758.00 224.00 L 0.00 224.00 L 0.00 0.00 Z" />
<path fill="#1f1f1f" d=" M 657.40 15.59 C 659.67 14.33 662.04 15.77 664.00 16.91 C 667.76 19.22 671.73 21.19 675.41 23.63 C 678.85 26.88 675.85 33.58 671.03 32.88 C 667.05 31.60 663.71 28.91 660.02 27.04 C 657.90 25.61 654.73 24.80 654.27 21.90 C 653.73 19.49 654.88 16.37 657.40 15.59 Z" />
<path fill="#ffffff" d=" M 658.38 18.36 C 659.48 17.31 660.87 18.71 661.95 19.14 C 665.65 21.40 669.56 23.34 673.17 25.77 C 675.51 27.13 672.55 31.34 670.43 29.56 C 666.19 27.16 661.87 24.84 657.79 22.18 C 656.24 21.27 657.11 19.11 658.38 18.36 Z" />
<path fill="#1f1f1f" d=" M 645.37 34.60 C 647.65 33.31 650.05 34.78 652.03 35.93 C 655.78 38.23 659.74 40.20 663.41 42.63 C 667.20 46.14 663.19 53.52 658.12 51.63 C 653.51 49.45 649.23 46.62 644.77 44.14 C 640.89 42.41 641.47 35.91 645.37 34.60 Z" />
<path fill="#ffffff" d=" M 646.36 37.36 C 647.50 36.33 648.87 37.70 649.96 38.15 C 653.87 40.59 658.13 42.51 661.82 45.29 C 662.55 46.87 661.32 48.23 660.09 49.03 C 658.03 48.78 656.39 47.33 654.60 46.42 C 651.50 44.45 648.07 43.00 645.20 40.69 C 644.57 39.41 645.31 38.12 646.36 37.36 Z" />
<path fill="#1f1f1f" d=" M 530.40 51.51 C 533.56 50.11 537.99 52.29 537.86 56.02 C 537.92 61.28 538.10 66.58 537.75 71.83 C 537.07 77.24 527.82 77.19 527.23 71.75 C 526.88 66.83 527.13 61.88 527.09 56.94 C 526.98 54.68 527.99 52.10 530.40 51.51 Z" />
<path fill="#1f1f1f" d=" M 58.45 52.62 C 60.82 51.47 64.03 52.26 65.34 54.62 C 67.55 58.06 69.68 61.56 71.98 64.94 C 73.08 66.68 74.52 68.73 73.64 70.87 C 72.80 75.32 65.84 76.35 63.67 72.41 C 61.14 68.29 58.41 64.30 55.89 60.18 C 54.17 57.63 55.50 53.55 58.45 52.62 Z" />
<path fill="#ffffff" d=" M 531.34 54.33 C 532.51 53.43 533.97 54.33 534.80 55.25 C 535.17 60.49 535.02 65.78 534.89 71.04 C 534.73 73.55 530.28 73.58 530.11 71.04 C 529.98 65.78 529.82 60.49 530.21 55.24 C 530.49 55.01 531.06 54.56 531.34 54.33 Z" />
<path fill="#1f1f1f" d=" M 633.45 54.57 C 635.71 53.34 638.06 54.79 640.02 55.92 C 643.78 58.23 647.75 60.20 651.43 62.64 C 655.18 66.16 651.21 73.46 646.17 71.64 C 641.54 69.49 637.27 66.64 632.81 64.17 C 628.87 62.44 629.46 55.83 633.45 54.57 Z" />
<path fill="#ffffff" d=" M 59.46 55.44 C 60.55 54.60 62.10 55.00 62.67 56.25 C 65.43 60.27 68.08 64.37 70.60 68.53 C 72.16 70.88 67.50 73.55 66.35 70.79 C 63.58 66.77 60.95 62.64 58.38 58.48 C 57.51 57.41 58.46 56.01 59.46 55.44 Z" />
<path fill="#ffffff" d=" M 634.37 57.37 C 635.45 56.29 636.86 57.71 637.93 58.13 C 641.65 60.40 645.57 62.35 649.19 64.78 C 651.50 66.18 648.52 70.33 646.42 68.56 C 642.17 66.15 637.85 63.83 633.77 61.17 C 632.26 60.24 633.11 58.13 634.37 57.37 Z" />
<path fill="#1f1f1f" d=" M 619.45 74.57 C 621.71 73.34 624.06 74.79 626.01 75.92 C 629.60 78.08 633.31 80.04 636.87 82.24 C 638.91 83.51 639.37 86.47 638.40 88.56 C 637.49 91.58 633.39 92.80 630.83 91.07 C 626.59 88.68 622.35 86.27 618.18 83.77 C 614.86 81.68 615.76 75.73 619.45 74.57 Z" />
<path fill="#ffffff" d=" M 620.39 77.34 C 621.53 76.34 622.88 77.72 623.97 78.15 C 627.70 80.43 631.64 82.37 635.26 84.84 C 637.42 86.26 634.54 90.28 632.46 88.58 C 628.22 86.18 623.91 83.86 619.82 81.21 C 618.24 80.28 619.10 78.12 620.39 77.34 Z" />
<path fill="#1f1f1f" d=" M 20.44 79.62 C 22.80 78.48 26.01 79.26 27.33 81.60 C 29.54 85.06 31.68 88.55 33.99 91.95 C 35.07 93.66 36.49 95.68 35.66 97.80 C 34.86 102.32 27.79 103.38 25.63 99.35 C 23.13 95.27 20.41 91.30 17.91 87.22 C 16.17 84.67 17.48 80.57 20.44 79.62 Z" />
<path fill="#ffffff" d=" M 21.39 82.49 C 22.42 81.52 24.14 82.03 24.69 83.28 C 27.44 87.28 30.06 91.37 32.60 95.50 C 34.05 97.50 30.24 100.28 28.80 98.31 C 25.73 94.21 23.10 89.78 20.37 85.45 C 19.52 84.42 20.46 83.06 21.39 82.49 Z" />
<path fill="#1f1f1f" d=" M 605.50 85.58 C 608.38 84.21 612.47 85.81 613.14 89.07 C 614.10 93.63 614.86 98.24 615.66 102.84 C 616.33 105.37 615.31 108.67 612.56 109.40 C 609.65 110.80 605.54 109.21 604.85 105.94 C 603.84 101.28 603.11 96.56 602.29 91.87 C 601.68 89.38 602.82 86.24 605.50 85.58 Z" />
<path fill="#ffffff" d=" M 604.98 89.78 C 606.15 88.33 608.72 86.99 609.90 89.22 C 611.39 94.43 611.76 99.91 613.02 105.19 C 611.87 106.69 609.39 107.95 608.12 105.88 C 606.62 100.62 606.22 95.10 604.98 89.78 Z" />
<path fill="#1f1f1f" d=" M 405.41 107.61 C 410.15 105.11 414.96 111.86 411.97 115.89 C 410.05 118.08 407.22 119.16 404.88 120.82 C 401.93 122.53 399.33 125.00 396.00 125.92 C 392.32 126.22 389.43 122.56 390.24 119.05 C 390.60 116.38 393.28 115.23 395.28 113.94 C 398.73 111.95 401.88 109.46 405.41 107.61 Z" />
<path fill="#ffffff" d=" M 406.52 110.42 C 407.96 109.26 409.19 110.88 409.90 112.02 C 410.56 114.07 408.28 114.93 406.99 115.93 C 403.49 118.10 400.10 120.45 396.57 122.56 C 395.20 123.62 393.67 122.19 393.12 120.94 C 392.43 118.91 394.76 118.06 396.04 117.05 C 399.56 114.89 402.93 112.47 406.52 110.42 Z" />
<path fill="#1f1f1f" d=" M 492.47 121.51 C 494.34 120.71 496.37 121.47 498.28 121.74 C 502.59 122.74 507.04 123.18 511.25 124.57 C 515.69 126.77 514.20 134.80 509.01 134.86 C 503.46 134.15 497.94 132.97 492.49 131.70 C 487.92 130.48 488.06 122.85 492.47 121.51 Z" />
<path fill="#ffffff" d=" M 493.18 128.77 C 491.04 127.43 492.32 125.07 493.88 123.90 C 499.15 125.21 504.56 125.85 509.81 127.23 C 511.94 128.49 510.66 130.92 509.17 132.07 C 503.87 130.83 498.45 130.13 493.18 128.77 Z" />
<path fill="#1f1f1f" d=" M 450.38 147.56 C 452.54 146.57 455.41 147.37 456.85 149.20 C 459.50 153.21 455.84 157.49 454.77 161.41 C 453.02 164.56 453.05 169.76 448.87 170.73 C 445.10 171.86 440.98 167.97 442.40 164.14 C 444.09 159.31 446.04 154.56 447.93 149.81 C 448.26 148.64 449.27 147.93 450.38 147.56 Z" />
<path fill="#ffffff" d=" M 451.35 150.27 C 452.88 149.33 455.68 151.13 454.83 152.97 C 453.20 157.57 451.42 162.12 449.54 166.61 C 448.42 169.77 443.44 166.76 445.45 164.20 C 447.48 159.61 448.60 154.48 451.35 150.27 Z" />
<path fill="#1f1f1f" d=" M 514.40 171.55 C 516.56 170.58 519.44 171.38 520.86 173.22 C 523.50 177.23 519.82 181.52 518.75 185.44 C 517.01 188.59 517.04 193.83 512.83 194.74 C 509.38 195.70 505.54 192.59 506.20 188.96 C 507.33 184.79 509.28 180.89 510.70 176.82 C 511.60 174.88 511.96 172.14 514.40 171.55 Z" />
<path fill="#ffffff" d=" M 515.34 174.23 C 516.97 173.37 519.61 175.15 518.82 177.00 C 517.18 181.58 515.42 186.15 513.52 190.63 C 512.44 193.78 507.45 190.76 509.44 188.22 C 511.46 183.60 512.63 178.49 515.34 174.23 Z" />
<path fill="#1f1f1f" d=" M 581.42 197.54 C 583.94 196.46 587.56 197.63 588.44 200.38 C 589.62 202.64 588.17 205.02 587.44 207.17 C 585.69 211.22 584.47 215.51 582.41 219.42 C 579.29 222.46 573.28 220.45 573.10 215.94 C 573.75 211.61 576.05 207.72 577.41 203.58 C 578.47 201.45 578.70 198.25 581.42 197.54 Z" />
<path fill="#ffffff" d=" M 582.36 200.27 C 583.88 199.34 586.66 201.12 585.84 202.95 C 584.20 207.56 582.42 212.14 580.51 216.65 C 579.38 219.78 574.42 216.76 576.46 214.18 C 578.49 209.59 579.60 204.46 582.36 200.27 Z" />
</svg>
