<?xml version="1.0" encoding="UTF-8" ?>
<!DOCTYPE svg PUBLIC "-//W3C//DTD SVG 1.1//EN" "http://www.w3.org/Graphics/SVG/1.1/DTD/svg11.dtd">
<svg width="758pt" height="224pt" viewBox="0 0 758 224" version="1.1" xmlns="http://www.w3.org/2000/svg">
<path fill="#1f1f1f" d=" M 657.39 15.60 C 659.66 14.32 662.05 15.76 664.01 16.93 C 667.78 19.22 671.72 21.22 675.43 23.62 C 679.18 27.17 675.20 34.47 670.13 32.64 C 665.53 30.45 661.25 27.62 656.78 25.16 C 652.89 23.43 653.47 16.89 657.39 15.60 Z" />
<path fill="#ffffff" d=" M 658.36 18.37 C 659.49 17.31 660.88 18.69 661.96 19.15 C 665.65 21.41 669.55 23.34 673.15 25.75 C 675.54 27.12 672.53 31.36 670.40 29.56 C 666.18 27.13 661.87 24.84 657.79 22.19 C 656.25 21.27 657.11 19.14 658.36 18.37 Z" />
<path fill="#1f1f1f" d=" M 645.36 34.61 C 647.14 33.61 649.18 34.24 650.80 35.24 C 654.59 37.45 658.41 39.61 662.21 41.82 C 664.71 42.91 665.54 46.24 664.38 48.59 C 663.48 51.57 659.43 52.78 656.89 51.11 C 652.83 48.83 648.81 46.48 644.77 44.15 C 640.90 42.43 641.46 35.91 645.36 34.61 Z" />
<path fill="#ffffff" d=" M 646.34 37.37 C 647.49 36.31 648.87 37.68 649.96 38.15 C 653.66 40.42 657.57 42.35 661.18 44.77 C 663.49 46.13 660.58 50.27 658.50 48.61 C 654.26 46.20 649.96 43.87 645.86 41.24 C 644.25 40.36 645.07 38.16 646.34 37.37 Z" />
<path fill="#1f1f1f" d=" M 530.41 51.51 C 533.56 50.12 537.96 52.28 537.86 55.98 C 537.91 61.26 538.10 66.57 537.76 71.84 C 537.05 77.23 527.86 77.18 527.23 71.77 C 526.89 66.84 527.14 61.88 527.08 56.94 C 526.97 54.68 528.01 52.09 530.41 51.51 Z" />
<path fill="#1f1f1f" d=" M 58.47 52.61 C 61.13 51.30 64.54 52.57 65.77 55.24 C 68.17 59.40 71.09 63.25 73.43 67.44 C 75.39 71.47 70.98 75.99 66.85 74.71 C 64.33 74.28 63.26 71.71 62.01 69.80 C 60.09 66.51 57.79 63.45 55.87 60.16 C 54.18 57.60 55.51 53.53 58.47 52.61 Z" />
<path fill="#ffffff" d=" M 531.32 54.33 C 532.57 53.39 534.87 54.46 534.90 56.01 C 535.05 61.02 535.06 66.04 534.90 71.05 C 534.67 73.54 530.36 73.59 530.10 71.06 C 530.01 65.80 529.78 60.48 530.23 55.24 C 530.50 55.01 531.05 54.56 531.32 54.33 Z" />
<path fill="#1f1f1f" d=" M 633.44 54.58 C 635.71 53.33 638.08 54.78 640.03 55.94 C 643.79 58.22 647.72 60.22 651.41 62.60 C 654.18 65.29 652.82 70.87 648.94 71.66 C 647.05 72.44 645.18 71.28 643.59 70.40 C 639.81 68.15 635.94 66.06 632.18 63.78 C 628.87 61.69 629.75 55.74 633.44 54.58 Z" />
<path fill="#ffffff" d=" M 59.42 55.46 C 60.50 54.58 62.11 55.01 62.69 56.26 C 65.42 60.27 68.06 64.37 70.60 68.50 C 72.17 70.85 67.50 73.56 66.33 70.78 C 63.59 66.75 60.95 62.64 58.39 58.49 C 57.45 57.38 58.46 56.10 59.42 55.46 Z" />
<path fill="#ffffff" d=" M 634.35 57.38 C 635.45 56.28 636.86 57.69 637.94 58.14 C 641.65 60.41 645.56 62.35 649.18 64.77 C 651.53 66.19 648.49 70.36 646.38 68.55 C 642.17 66.13 637.87 63.84 633.79 61.19 C 632.25 60.28 633.09 58.15 634.35 57.38 Z" />
<path fill="#1f1f1f" d=" M 619.43 74.58 C 621.69 73.33 624.06 74.77 626.01 75.93 C 629.80 78.23 633.77 80.24 637.49 82.66 C 640.16 85.40 638.78 90.90 634.90 91.67 C 633.01 92.43 631.16 91.26 629.56 90.39 C 625.80 88.14 621.94 86.06 618.19 83.79 C 614.88 81.70 615.74 75.75 619.43 74.58 Z" />
<path fill="#ffffff" d=" M 620.37 77.35 C 621.77 76.27 623.28 77.98 624.57 78.50 C 628.08 80.67 631.82 82.47 635.23 84.81 C 637.46 86.23 634.53 90.29 632.45 88.59 C 628.23 86.16 623.92 83.86 619.83 81.22 C 618.24 80.30 619.09 78.14 620.37 77.35 Z" />
<path fill="#1f1f1f" d=" M 20.43 79.63 C 23.87 77.85 27.36 80.48 28.64 83.64 C 30.75 87.33 33.41 90.70 35.43 94.44 C 37.39 98.47 32.97 103.00 28.83 101.71 C 26.31 101.26 25.24 98.69 23.99 96.77 C 22.07 93.50 19.80 90.46 17.88 87.19 C 16.18 84.65 17.49 80.57 20.43 79.63 Z" />
<path fill="#ffffff" d=" M 21.39 82.50 C 22.46 81.55 24.14 82.02 24.71 83.29 C 27.43 87.29 30.05 91.37 32.60 95.48 C 34.07 97.49 30.24 100.30 28.78 98.30 C 25.73 94.20 23.12 89.78 20.37 85.48 C 19.50 84.45 20.44 83.06 21.39 82.50 Z" />
<path fill="#1f1f1f" d=" M 605.49 85.58 C 608.37 84.20 612.46 85.81 613.15 89.06 C 614.14 94.36 615.30 99.66 615.87 105.03 C 615.69 109.50 609.57 111.40 606.47 108.54 C 604.74 107.30 604.66 105.02 604.26 103.13 C 603.65 99.37 602.89 95.65 602.29 91.89 C 601.67 89.40 602.82 86.25 605.49 85.58 Z" />
<path fill="#ffffff" d=" M 604.98 89.81 C 606.12 88.26 608.67 87.02 609.90 89.19 C 611.38 94.40 611.75 99.87 613.02 105.14 C 611.90 106.71 609.40 107.96 608.10 105.87 C 606.63 100.62 606.23 95.12 604.98 89.81 Z" />
<path fill="#1f1f1f" d=" M 405.40 107.60 C 410.45 104.96 415.33 112.61 411.53 116.44 C 408.29 118.99 404.55 120.82 401.21 123.23 C 399.08 124.49 396.75 126.67 394.10 125.64 C 389.70 124.73 388.68 117.90 392.54 115.68 C 396.89 113.09 400.99 110.09 405.40 107.60 Z" />
<path fill="#ffffff" d=" M 406.48 110.42 C 408.85 108.76 411.56 113.52 408.77 114.68 C 404.79 117.42 400.69 119.98 396.60 122.55 C 394.20 124.25 391.40 119.51 394.22 118.32 C 398.23 115.58 402.34 112.97 406.48 110.42 Z" />
<path fill="#1f1f1f" d=" M 492.47 121.52 C 494.32 120.69 496.35 121.47 498.24 121.74 C 502.56 122.75 507.02 123.17 511.24 124.56 C 515.69 126.77 514.20 134.79 509.00 134.87 C 503.45 134.14 497.94 132.96 492.49 131.70 C 487.92 130.48 488.06 122.85 492.47 121.52 Z" />
<path fill="#ffffff" d=" M 493.17 128.78 C 491.07 127.44 492.27 124.99 493.93 123.91 C 499.18 125.22 504.59 125.86 509.83 127.22 C 511.93 128.53 510.66 130.91 509.17 132.08 C 503.87 130.83 498.45 130.12 493.17 128.78 Z" />
<path fill="#1f1f1f" d=" M 450.36 147.57 C 452.52 146.57 455.42 147.37 456.86 149.21 C 459.50 153.22 455.83 157.49 454.76 161.40 C 453.01 164.54 453.07 169.73 448.92 170.71 C 445.44 171.75 441.56 168.63 442.18 164.97 C 443.35 160.80 445.28 156.88 446.71 152.80 C 447.60 150.88 447.94 148.16 450.36 147.57 Z" />
<path fill="#ffffff" d=" M 451.32 150.28 C 452.89 149.31 455.70 151.16 454.82 153.01 C 453.18 157.59 451.41 162.13 449.54 166.63 C 448.36 169.81 443.39 166.73 445.47 164.14 C 447.50 159.58 448.61 154.48 451.32 150.28 Z" />
<path fill="#1f1f1f" d=" M 514.39 171.56 C 516.55 170.57 519.46 171.39 520.86 173.24 C 523.50 177.25 519.81 181.52 518.75 185.44 C 517.00 188.58 517.06 193.79 512.88 194.72 C 509.40 195.73 505.54 192.59 506.19 188.93 C 507.35 184.79 509.27 180.91 510.69 176.86 C 511.59 174.91 511.92 172.14 514.39 171.56 Z" />
<path fill="#ffffff" d=" M 515.34 174.28 C 516.90 173.32 519.72 175.16 518.82 177.03 C 517.17 181.60 515.41 186.15 513.53 190.63 C 512.38 193.81 507.40 190.74 509.46 188.17 C 511.50 183.59 512.60 178.47 515.34 174.28 Z" />
<path fill="#1f1f1f" d=" M 580.42 197.55 C 582.56 196.58 585.40 197.38 586.83 199.18 C 589.53 203.20 585.83 207.50 584.75 211.44 C 583.01 214.57 583.06 219.74 578.91 220.72 C 575.43 221.75 571.52 218.60 572.19 214.93 C 573.36 210.78 575.27 206.89 576.70 202.83 C 577.60 200.88 577.94 198.11 580.42 197.55 Z" />
<path fill="#ffffff" d=" M 581.34 200.27 C 582.90 199.33 585.68 201.14 584.83 203.00 C 583.18 207.59 581.40 212.15 579.52 216.66 C 578.66 219.41 574.09 217.39 575.20 214.97 C 577.22 210.09 578.54 204.75 581.34 200.27 Z" />
</svg>
