<?xml version="1.0" encoding="UTF-8" ?>
<!DOCTYPE svg PUBLIC "-//W3C//DTD SVG 1.1//EN" "http://www.w3.org/Graphics/SVG/1.1/DTD/svg11.dtd">
<svg width="758pt" height="224pt" viewBox="0 0 758 224" version="1.1" xmlns="http://www.w3.org/2000/svg">
<path fill="#ffffff" d=" M 663.25 19.68 C 665.96 19.90 669.96 18.68 671.25 21.93 C 673.11 25.12 670.97 28.53 669.25 31.22 C 662.23 41.87 655.27 52.55 648.31 63.23 C 641.78 72.76 635.92 82.75 629.01 92.02 C 624.98 97.62 618.83 101.53 612.13 103.07 C 603.89 104.94 595.38 104.92 586.98 104.79 C 565.98 104.82 544.99 104.66 523.99 104.76 C 518.52 104.85 513.06 104.00 507.91 102.16 C 507.95 115.47 508.16 128.78 507.85 142.08 C 507.38 149.11 507.10 156.75 502.72 162.62 C 499.45 167.20 493.46 168.96 488.06 168.61 C 481.64 168.10 475.69 165.45 469.70 163.30 C 457.16 158.66 444.60 153.80 432.99 147.09 C 428.19 144.36 424.13 140.50 420.99 135.97 C 415.61 128.71 409.78 121.78 404.27 114.62 C 402.53 112.60 402.85 109.84 402.70 107.38 C 403.59 106.49 404.49 105.59 405.38 104.70 C 408.06 104.79 411.23 104.41 412.96 106.96 C 419.68 114.96 425.85 123.42 432.30 131.64 C 435.81 136.05 441.07 138.40 445.95 140.95 C 457.69 146.73 469.97 151.28 482.26 155.73 C 485.48 156.82 489.20 157.80 492.48 156.45 C 495.38 154.35 495.83 150.35 496.05 147.04 C 497.03 125.36 495.99 103.65 496.35 81.96 C 496.63 74.52 498.06 66.07 504.31 61.23 C 511.21 56.38 520.09 56.80 528.12 57.05 C 530.87 57.31 534.51 57.39 535.92 60.25 C 536.30 62.18 536.28 64.16 536.41 66.12 C 531.47 70.25 524.88 67.99 519.08 68.41 C 515.67 68.64 511.41 69.13 509.65 72.53 C 507.51 76.75 507.50 81.85 508.54 86.37 C 509.92 91.30 515.29 93.40 520.01 93.09 C 547.34 92.99 574.68 93.33 602.02 93.04 C 609.06 93.21 616.20 90.19 620.28 84.30 C 629.37 71.56 637.58 58.22 646.27 45.21 C 652.04 36.77 657.10 27.85 663.25 19.68 Z" />
<path fill="#ababab" d=" M 663.11 24.99 C 664.20 22.75 666.67 22.37 668.88 22.01 C 668.68 24.44 668.51 27.00 667.01 29.04 C 656.70 44.73 646.46 60.46 636.14 76.15 C 631.69 82.61 627.93 89.77 621.93 94.97 C 615.06 100.76 605.65 101.65 597.03 101.71 C 571.34 101.66 545.64 101.72 519.96 101.63 C 514.40 101.71 509.11 99.68 504.66 96.45 C 504.84 112.33 504.85 128.21 504.70 144.08 C 504.44 150.78 503.65 158.57 497.97 163.02 C 492.88 166.98 485.88 165.87 480.23 163.90 C 467.16 159.28 454.11 154.45 441.66 148.33 C 435.71 145.29 429.52 142.07 425.39 136.63 C 420.07 129.63 414.77 122.61 409.10 115.89 C 407.23 113.72 406.07 111.07 404.75 108.56 C 406.18 108.21 407.62 107.94 409.07 107.74 C 412.14 110.09 414.19 113.45 416.61 116.41 C 420.90 121.80 425.10 127.26 429.21 132.79 C 432.79 137.77 438.43 140.54 443.74 143.28 C 455.16 148.95 467.14 153.41 479.11 157.78 C 482.63 159.01 486.25 160.34 490.05 160.25 C 493.19 160.19 496.11 158.15 497.30 155.25 C 499.23 150.78 499.24 145.79 499.37 141.01 C 499.43 123.35 499.43 105.69 499.25 88.03 C 499.10 80.95 499.03 73.25 503.08 67.10 C 506.07 62.48 511.62 60.37 516.93 60.13 C 522.00 59.88 527.19 59.75 532.19 60.75 C 534.09 61.81 532.84 64.02 532.74 65.67 C 526.50 65.69 520.19 64.93 514.01 66.02 C 509.19 66.81 505.79 71.33 505.38 76.04 C 504.91 81.34 504.46 87.52 508.19 91.83 C 511.60 95.73 517.16 96.19 522.00 96.29 C 547.00 96.23 572.00 96.29 597.00 96.31 C 602.64 96.24 608.45 95.91 613.72 93.69 C 618.63 91.58 622.10 87.29 625.07 83.01 C 637.88 63.76 650.48 44.37 663.11 24.99 Z" />
<path fill="#ffffff" d=" M 205.01 34.00 C 232.34 34.10 259.65 33.44 286.97 33.24 C 299.86 33.24 312.81 32.73 325.63 34.31 C 335.91 35.57 344.17 42.92 350.27 50.80 C 366.89 74.76 383.46 98.77 401.20 121.92 C 408.40 131.24 415.64 140.64 424.37 148.61 C 428.22 152.13 433.14 154.08 437.85 156.16 C 480.50 173.93 523.98 189.63 567.31 205.65 C 572.31 207.73 577.81 208.80 582.40 211.75 C 584.87 214.74 583.32 218.86 581.06 221.47 C 578.13 221.11 575.19 220.75 572.41 219.73 C 531.36 204.60 490.26 189.57 449.59 173.42 C 441.16 169.88 432.59 166.63 424.38 162.58 C 418.16 159.51 413.33 154.40 408.70 149.36 C 394.88 133.92 382.82 117.03 370.73 100.24 C 361.26 86.70 351.67 73.25 342.27 59.66 C 339.19 55.27 335.42 51.29 331.01 48.23 C 324.47 43.95 316.33 45.19 308.95 44.88 C 286.31 44.83 263.67 45.11 241.03 45.00 C 198.69 44.91 156.35 45.86 114.01 45.84 C 109.17 46.01 104.08 45.41 99.54 47.43 C 94.38 49.69 89.87 53.15 85.19 56.23 C 65.90 69.15 47.24 82.97 28.60 96.79 C 26.56 98.44 23.83 98.16 21.38 98.30 C 20.50 97.40 19.61 96.51 18.72 95.63 C 19.00 93.42 18.22 90.72 20.01 89.01 C 22.85 86.12 26.35 84.01 29.55 81.55 C 46.01 69.23 62.86 57.45 79.82 45.81 C 86.20 41.58 92.63 36.84 100.30 35.32 C 104.46 34.56 108.70 34.26 112.93 34.17 C 143.62 33.95 174.32 34.00 205.01 34.00 Z" />
<path fill="#ababab" d=" M 226.04 36.76 C 254.70 36.52 283.35 36.22 312.01 36.34 C 319.38 36.55 327.23 36.47 333.91 40.06 C 340.27 43.82 345.67 49.15 349.70 55.35 C 368.61 82.58 387.37 109.98 408.21 135.79 C 415.02 143.61 421.56 152.46 431.41 156.63 C 448.04 163.98 465.03 170.46 481.99 177.01 C 514.82 189.63 547.86 201.68 580.85 213.86 C 580.59 215.46 580.73 217.46 579.15 218.44 C 574.49 217.65 570.18 215.64 565.77 214.07 C 541.00 205.00 516.27 195.84 491.61 186.50 C 470.73 178.50 449.78 170.63 429.32 161.62 C 424.22 159.47 419.63 156.25 415.78 152.28 C 406.27 142.63 397.96 131.90 389.80 121.11 C 376.87 103.93 364.67 86.23 352.29 68.67 C 346.73 61.03 342.11 52.39 334.29 46.74 C 327.41 41.39 318.18 41.95 309.95 41.71 C 244.64 41.77 179.33 42.80 114.01 42.68 C 109.90 42.71 105.75 42.66 101.73 43.58 C 97.74 44.51 94.17 46.60 90.76 48.80 C 71.57 61.42 52.96 74.88 34.49 88.53 C 31.05 90.99 27.95 94.10 23.91 95.61 C 23.33 95.22 22.17 94.45 21.59 94.06 C 20.92 91.59 23.30 90.25 24.87 88.87 C 43.62 74.84 62.69 61.22 82.04 48.02 C 86.71 44.93 91.34 41.65 96.56 39.52 C 101.44 37.53 106.79 37.32 111.98 37.29 C 132.98 37.29 153.97 37.23 174.96 37.16 C 191.98 36.56 209.02 36.99 226.04 36.76 Z" />
</svg>
