<?xml version="1.0" encoding="UTF-8" ?>
<!DOCTYPE svg PUBLIC "-//W3C//DTD SVG 1.1//EN" "http://www.w3.org/Graphics/SVG/1.1/DTD/svg11.dtd">
<svg width="758pt" height="224pt" viewBox="0 0 758 224" version="1.1" xmlns="http://www.w3.org/2000/svg">
<path fill="#ffffff" d=" M 0.00 0.00 L 28.61 0.00 C 28.35 10.03 28.88 20.05 29.16 30.07 C 29.82 37.83 31.35 45.48 32.31 53.20 C 32.99 60.72 36.90 67.34 39.42 74.33 C 40.23 73.72 41.04 73.10 41.86 72.49 C 42.97 71.66 44.09 70.83 45.22 70.01 C 46.05 69.42 46.88 68.83 47.71 68.25 C 42.46 56.68 41.00 43.97 39.79 31.45 C 39.06 20.98 38.54 10.49 39.07 0.00 L 277.83 0.00 C 279.41 4.00 280.33 8.23 281.98 12.19 C 286.12 18.46 292.63 22.60 299.44 25.50 C 310.65 29.00 322.49 28.47 334.09 28.43 C 338.06 27.93 341.07 24.65 345.03 24.05 C 346.95 23.75 348.89 23.59 350.82 23.39 C 351.86 25.49 352.90 27.59 353.93 29.69 C 352.84 32.37 352.02 35.18 350.63 37.73 C 348.63 40.01 346.03 41.65 343.69 43.54 C 344.24 44.06 345.35 45.11 345.90 45.64 C 347.42 47.14 348.79 48.79 350.05 50.52 C 350.48 51.14 351.34 52.37 351.77 52.99 C 355.51 49.65 360.70 47.43 362.56 42.44 C 364.09 38.98 366.05 35.71 367.30 32.12 C 367.44 27.89 367.37 23.60 366.77 19.41 C 364.91 15.70 362.84 12.03 360.39 8.68 C 355.84 4.71 350.24 1.56 344.13 1.05 C 338.05 1.02 331.98 1.25 325.90 1.27 C 321.82 1.13 318.17 3.20 314.42 4.50 C 309.72 6.39 304.72 7.31 299.81 8.46 C 298.19 7.22 296.58 5.99 294.98 4.75 C 294.87 3.17 294.76 1.58 294.66 0.00 L 544.93 0.00 C 545.04 4.69 544.76 9.41 545.16 14.09 C 546.16 16.90 548.17 19.23 549.22 22.03 C 549.58 25.24 549.61 28.53 549.20 31.73 C 547.97 34.67 546.14 37.32 544.58 40.09 C 544.89 43.63 545.20 47.17 545.48 50.71 C 547.72 50.82 549.97 50.98 552.22 51.14 C 552.22 51.86 552.22 53.30 552.22 54.02 C 549.50 53.92 546.78 53.80 544.07 53.69 C 543.71 63.47 543.36 73.25 543.00 83.03 C 543.75 83.03 545.25 83.02 546.00 83.02 C 559.50 83.00 573.00 83.05 586.50 83.07 C 587.25 83.07 588.75 83.06 589.50 83.06 C 591.49 55.35 594.19 27.69 596.43 0.00 L 758.00 0.00 L 758.00 17.58 C 753.25 21.82 750.36 27.58 746.35 32.45 C 743.56 36.39 739.89 39.86 738.33 44.54 C 735.75 51.56 733.16 58.59 730.50 65.58 C 726.96 74.29 728.90 83.86 728.82 92.97 C 728.63 100.05 732.26 106.37 735.32 112.51 C 738.32 117.24 735.86 122.92 735.89 128.09 C 735.35 139.45 733.24 150.62 730.78 161.70 C 726.44 177.10 720.77 192.07 714.81 206.90 C 709.93 207.82 705.06 208.75 700.18 209.65 C 700.17 211.16 700.16 212.67 700.17 214.19 C 695.05 215.58 689.93 216.96 684.82 218.34 C 683.99 216.68 683.16 215.03 682.34 213.38 C 669.72 216.64 657.22 220.33 644.72 224.00 L 562.62 224.00 C 562.91 221.48 563.20 218.97 563.51 216.46 C 562.52 216.09 561.53 215.72 560.56 215.36 C 546.61 210.22 532.65 205.12 518.74 199.88 C 516.29 198.75 513.63 199.67 511.10 199.86 C 505.52 200.69 499.88 200.31 494.27 200.18 C 493.07 201.62 491.88 203.07 490.69 204.52 C 488.86 204.36 487.03 204.19 485.21 204.04 C 482.94 201.15 481.88 197.70 482.42 194.02 C 478.44 193.82 474.47 193.61 470.50 193.41 C 470.11 200.79 471.89 208.73 476.78 214.45 C 486.45 215.48 496.11 216.59 505.78 217.66 C 505.66 219.77 505.55 221.88 505.44 224.00 L 246.71 224.00 C 246.60 220.79 246.51 217.58 246.40 214.38 C 244.18 214.35 241.95 214.33 239.73 214.31 C 239.68 210.96 239.64 207.61 239.58 204.26 C 243.55 204.26 247.52 204.33 251.50 204.34 C 252.04 202.01 252.72 199.71 253.88 197.61 C 250.84 194.66 247.80 191.72 244.75 188.78 C 251.08 181.72 257.42 174.66 263.76 167.60 C 266.40 169.03 269.05 170.46 271.69 171.90 C 273.86 167.40 277.63 163.37 277.77 158.14 C 279.04 143.67 280.51 129.23 281.78 114.77 C 281.66 110.12 285.77 107.19 288.16 103.69 C 288.22 99.93 287.68 96.10 288.28 92.38 C 292.12 86.35 295.95 80.21 300.34 74.57 C 313.57 67.79 327.93 63.76 341.86 58.72 C 341.36 58.15 340.35 57.01 339.85 56.45 C 338.40 54.79 336.87 53.20 335.25 51.71 C 334.39 50.93 333.53 50.16 332.67 49.39 C 325.61 51.61 318.24 53.10 311.62 56.53 C 301.67 61.38 291.45 65.71 281.63 70.79 C 278.02 75.38 274.69 80.39 272.89 86.00 C 270.95 91.60 268.74 97.10 266.87 102.72 C 264.65 110.07 262.80 117.53 260.64 124.89 C 259.76 127.94 257.28 130.15 256.01 133.00 C 254.26 139.64 253.95 146.59 252.11 153.19 C 250.02 156.23 247.20 158.68 244.81 161.47 C 239.08 161.48 233.36 161.43 227.64 161.41 C 223.98 165.17 220.24 168.85 216.56 172.58 C 213.75 172.92 210.94 173.26 208.13 173.59 C 206.56 171.89 204.99 170.19 203.42 168.50 C 202.60 161.46 202.92 154.38 203.07 147.31 C 201.14 147.26 199.21 147.20 197.28 147.16 C 200.05 138.50 203.33 129.99 205.46 121.14 C 207.37 113.74 209.28 106.35 211.24 98.97 C 212.93 93.11 211.80 86.95 212.01 80.96 C 212.20 75.38 211.45 69.76 209.55 64.51 C 207.19 61.55 204.26 59.11 201.67 56.36 C 198.26 52.61 192.84 51.74 188.02 51.79 C 171.33 52.27 154.61 52.18 137.96 53.48 C 129.58 54.30 120.39 53.16 113.04 58.08 C 104.43 65.74 96.21 73.85 87.54 81.43 C 82.15 83.13 76.36 83.58 70.78 84.46 C 66.46 83.87 62.26 82.54 58.03 81.49 C 56.14 81.15 55.10 79.39 53.77 78.20 C 53.16 78.65 51.94 79.57 51.33 80.02 C 50.05 80.97 48.75 81.90 47.46 82.83 C 46.68 83.39 45.90 83.97 45.12 84.55 C 47.81 87.91 51.26 90.70 55.13 92.56 C 60.27 93.94 65.50 96.06 70.91 95.27 C 77.10 94.53 83.38 94.50 89.52 93.45 C 94.59 90.80 100.18 88.49 103.95 84.01 C 109.45 77.86 115.33 72.07 121.16 66.24 C 144.26 63.44 167.58 63.61 190.80 62.88 C 193.23 65.44 196.05 67.68 198.18 70.51 C 199.30 74.97 199.90 79.59 200.46 84.16 C 199.69 99.07 194.42 113.18 190.13 127.33 C 186.21 140.96 181.64 154.64 181.32 168.95 C 181.26 175.32 180.26 181.75 181.47 188.08 C 183.39 200.23 185.15 212.55 189.90 224.00 L 0.00 224.00 L 0.00 0.00 Z" />
<path fill="#010101" d=" M 28.61 0.00 L 31.62 0.00 C 31.67 14.43 31.32 28.98 33.89 43.24 C 34.99 49.62 35.11 56.28 37.75 62.30 C 39.14 65.69 40.53 69.08 41.86 72.49 C 41.04 73.10 40.23 73.72 39.42 74.33 C 36.90 67.34 32.99 60.72 32.31 53.20 C 31.35 45.48 29.82 37.83 29.16 30.07 C 28.88 20.05 28.35 10.03 28.61 0.00 Z" />
<path fill="#4286f4" d=" M 31.62 0.00 L 36.07 0.00 C 35.46 15.64 36.29 31.35 38.67 46.83 C 39.51 54.87 42.23 62.56 45.22 70.01 C 44.09 70.83 42.97 71.66 41.86 72.49 C 40.53 69.08 39.14 65.69 37.75 62.30 C 35.11 56.28 34.99 49.62 33.89 43.24 C 31.32 28.98 31.67 14.43 31.62 0.00 Z" />
<path fill="#010101" d=" M 36.07 0.00 L 39.07 0.00 C 38.54 10.49 39.06 20.98 39.79 31.45 C 41.00 43.97 42.46 56.68 47.71 68.25 C 46.88 68.83 46.05 69.42 45.22 70.01 C 42.23 62.56 39.51 54.87 38.67 46.83 C 36.29 31.35 35.46 15.64 36.07 0.00 Z" />
<path fill="#010101" d=" M 277.83 0.00 L 280.93 0.00 C 282.33 3.46 283.03 7.17 284.62 10.55 C 288.70 16.56 295.01 20.76 301.83 23.09 C 312.52 26.01 323.76 25.63 334.72 25.22 C 340.45 22.47 346.77 18.98 353.31 21.33 C 354.43 24.09 356.23 26.66 356.73 29.63 C 356.05 32.98 354.78 36.23 353.24 39.28 C 351.31 41.92 348.37 43.56 345.90 45.64 C 345.35 45.11 344.24 44.06 343.69 43.54 C 346.03 41.65 348.63 40.01 350.63 37.73 C 352.02 35.18 352.84 32.37 353.93 29.69 C 352.90 27.59 351.86 25.49 350.82 23.39 C 348.89 23.59 346.95 23.75 345.03 24.05 C 341.07 24.65 338.06 27.93 334.09 28.43 C 322.49 28.47 310.65 29.00 299.44 25.50 C 292.63 22.60 286.12 18.46 281.98 12.19 C 280.33 8.23 279.41 4.00 277.83 0.00 Z" />
<path fill="#4286f4" d=" M 280.93 0.00 L 291.54 0.00 C 291.97 2.71 291.49 6.09 294.04 7.89 C 296.00 9.47 298.22 11.65 300.96 11.12 C 307.39 10.08 313.64 8.14 319.66 5.64 C 324.18 3.66 329.20 4.37 333.99 4.18 C 339.18 4.27 344.66 3.22 349.58 5.40 C 353.68 7.24 358.00 9.56 360.20 13.67 C 361.82 16.65 364.16 19.50 364.16 23.06 C 364.31 27.04 365.07 31.33 362.92 34.95 C 360.85 38.72 359.70 43.35 355.99 45.92 C 354.02 47.47 352.02 48.98 350.05 50.52 C 348.79 48.79 347.42 47.14 345.90 45.64 C 348.37 43.56 351.31 41.92 353.24 39.28 C 354.78 36.23 356.05 32.98 356.73 29.63 C 356.23 26.66 354.43 24.09 353.31 21.33 C 346.77 18.98 340.45 22.47 334.72 25.22 C 323.76 25.63 312.52 26.01 301.83 23.09 C 295.01 20.76 288.70 16.56 284.62 10.55 C 283.03 7.17 282.33 3.46 280.93 0.00 Z" />
<path fill="#010101" d=" M 291.54 0.00 L 294.66 0.00 C 294.76 1.58 294.87 3.17 294.98 4.75 C 296.58 5.99 298.19 7.22 299.81 8.46 C 304.72 7.31 309.72 6.39 314.42 4.50 C 318.17 3.20 321.82 1.13 325.90 1.27 C 331.98 1.25 338.05 1.02 344.13 1.05 C 350.24 1.56 355.84 4.71 360.39 8.68 C 362.84 12.03 364.91 15.70 366.77 19.41 C 367.37 23.60 367.44 27.89 367.30 32.12 C 366.05 35.71 364.09 38.98 362.56 42.44 C 360.70 47.43 355.51 49.65 351.77 52.99 C 351.34 52.37 350.48 51.14 350.05 50.52 C 352.02 48.98 354.02 47.47 355.99 45.92 C 359.70 43.35 360.85 38.72 362.92 34.95 C 365.07 31.33 364.31 27.04 364.16 23.06 C 364.16 19.50 361.82 16.65 360.20 13.67 C 358.00 9.56 353.68 7.24 349.58 5.40 C 344.66 3.22 339.18 4.27 333.99 4.18 C 329.20 4.37 324.18 3.66 319.66 5.64 C 313.64 8.14 307.39 10.08 300.96 11.12 C 298.22 11.65 296.00 9.47 294.04 7.89 C 291.49 6.09 291.97 2.71 291.54 0.00 Z" />
<path fill="#010101" d=" M 544.93 0.00 L 547.94 0.00 C 548.03 4.36 547.74 8.73 548.16 13.08 C 549.10 16.57 552.14 19.27 552.35 23.00 C 552.56 25.67 552.56 28.36 552.34 31.03 C 552.13 33.96 550.08 36.24 548.79 38.75 C 547.00 41.43 548.14 44.76 548.16 47.74 C 550.21 47.96 552.39 47.78 554.35 48.59 C 555.47 50.98 556.06 54.73 553.47 56.39 C 551.44 57.28 549.11 56.82 546.96 56.95 C 546.63 65.64 546.32 74.33 546.00 83.02 C 545.25 83.02 543.75 83.03 543.00 83.03 C 543.36 73.25 543.71 63.47 544.07 53.69 C 546.78 53.80 549.50 53.92 552.22 54.02 C 552.22 53.30 552.22 51.86 552.22 51.14 C 549.97 50.98 547.72 50.82 545.48 50.71 C 545.20 47.17 544.89 43.63 544.58 40.09 C 546.14 37.32 547.97 34.67 549.20 31.73 C 549.61 28.53 549.58 25.24 549.22 22.03 C 548.17 19.23 546.16 16.90 545.16 14.09 C 544.76 9.41 545.04 4.69 544.93 0.00 Z" />
<path fill="#4286f4" d=" M 547.94 0.00 L 593.42 0.00 C 591.19 27.70 588.47 55.35 586.50 83.07 C 573.00 83.05 559.50 83.00 546.00 83.02 C 546.32 74.33 546.63 65.64 546.96 56.95 C 549.11 56.82 551.44 57.28 553.47 56.39 C 556.06 54.73 555.47 50.98 554.35 48.59 C 552.39 47.78 550.21 47.96 548.16 47.74 C 548.14 44.76 547.00 41.43 548.79 38.75 C 550.08 36.24 552.13 33.96 552.34 31.03 C 552.56 28.36 552.56 25.67 552.35 23.00 C 552.14 19.27 549.10 16.57 548.16 13.08 C 547.74 8.73 548.03 4.36 547.94 0.00 Z" />
<path fill="#010101" d=" M 593.42 0.00 L 596.43 0.00 C 594.19 27.69 591.49 55.35 589.50 83.06 C 588.75 83.06 587.25 83.07 586.50 83.07 C 588.47 55.35 591.19 27.70 593.42 0.00 Z" />
<path fill="#010101" d=" M 655.49 16.51 C 657.36 15.79 659.46 14.51 661.47 15.65 C 666.14 18.21 670.81 20.84 675.33 23.68 C 677.73 25.79 676.69 29.24 675.51 31.71 L 674.97 31.86 C 672.89 32.56 670.65 32.93 668.60 31.95 C 665.94 30.37 663.29 28.80 660.63 27.23 C 658.84 26.16 657.04 25.09 655.35 23.88 C 653.32 21.81 654.48 18.78 655.49 16.51 Z" />
<path fill="#ffffff" d=" M 658.27 18.35 C 659.72 17.28 661.28 18.86 662.59 19.43 C 666.29 21.76 670.32 23.58 673.83 26.20 C 674.81 28.23 672.41 31.08 670.34 29.59 C 666.31 27.36 662.32 25.06 658.38 22.69 C 656.44 22.02 656.64 19.27 658.27 18.35 Z" />
<path fill="#010101" d=" M 746.35 32.45 C 750.36 27.58 753.25 21.82 758.00 17.58 L 758.00 21.41 C 753.62 27.82 748.98 34.04 744.21 40.15 C 741.41 43.53 740.33 47.85 738.80 51.86 C 736.72 57.71 734.31 63.44 732.37 69.34 C 730.44 77.42 731.90 85.78 731.86 93.98 C 731.88 102.08 737.74 108.43 739.76 115.94 C 738.82 135.26 736.65 154.77 730.34 173.16 C 726.46 185.28 722.14 197.34 716.91 208.92 C 712.84 211.01 707.92 210.90 703.50 212.05 C 703.14 213.48 702.86 214.94 702.38 216.34 C 696.79 218.46 690.89 219.87 685.04 221.09 C 682.45 221.50 681.85 218.46 680.58 216.90 C 672.07 219.13 663.60 221.52 655.16 224.00 L 644.72 224.00 C 657.22 220.33 669.72 216.64 682.34 213.38 C 683.16 215.03 683.99 216.68 684.82 218.34 C 689.93 216.96 695.05 215.58 700.17 214.19 C 700.16 212.67 700.17 211.16 700.18 209.65 C 705.06 208.75 709.93 207.82 714.81 206.90 C 720.77 192.07 726.44 177.10 730.78 161.70 C 733.24 150.62 735.35 139.45 735.89 128.09 C 735.86 122.92 738.32 117.24 735.32 112.51 C 732.26 106.37 728.63 100.05 728.82 92.97 C 728.90 83.86 726.96 74.29 730.50 65.58 C 733.16 58.59 735.75 51.56 738.33 44.54 C 739.89 39.86 743.56 36.39 746.35 32.45 Z" />
<path fill="#4286f4" d=" M 744.21 40.15 C 748.98 34.04 753.62 27.82 758.00 21.41 L 758.00 160.07 C 754.48 162.20 752.35 165.79 750.47 169.32 C 747.05 176.10 745.57 183.61 743.65 190.91 C 741.48 200.50 737.54 209.97 739.04 220.00 C 737.67 220.02 736.30 220.04 734.94 220.06 C 732.76 218.57 730.79 216.00 728.06 215.86 C 724.42 217.34 722.53 221.09 720.18 224.00 L 655.16 224.00 C 663.60 221.52 672.07 219.13 680.58 216.90 C 681.85 218.46 682.45 221.50 685.04 221.09 C 690.89 219.87 696.79 218.46 702.38 216.34 C 702.86 214.94 703.14 213.48 703.50 212.05 C 707.92 210.90 712.84 211.01 716.91 208.92 C 722.14 197.34 726.46 185.28 730.34 173.16 C 736.65 154.77 738.82 135.26 739.76 115.94 C 737.74 108.43 731.88 102.08 731.86 93.98 C 731.90 85.78 730.44 77.42 732.37 69.34 C 734.31 63.44 736.72 57.71 738.80 51.86 C 740.33 47.85 741.41 43.53 744.21 40.15 Z" />
<path fill="#ababab" d=" M 655.35 23.88 C 657.04 25.09 658.84 26.16 660.63 27.23 C 657.73 30.06 655.61 33.52 653.70 37.05 C 652.07 36.14 650.46 35.20 648.78 34.39 C 650.98 30.89 653.27 27.45 655.35 23.88 Z" />
<path fill="#ffffff" d=" M 653.70 37.05 C 655.61 33.52 657.73 30.06 660.63 27.23 C 663.29 28.80 665.94 30.37 668.60 31.95 C 666.50 35.34 664.37 38.72 661.65 41.65 C 659.06 40.00 656.36 38.55 653.70 37.05 Z" />
<path fill="#ababab" d=" M 668.60 31.95 C 670.65 32.93 672.89 32.56 674.97 31.86 C 671.80 37.09 668.54 42.28 664.95 47.24 C 664.85 44.88 663.74 42.79 661.65 41.65 C 664.37 38.72 666.50 35.34 668.60 31.95 Z" />
<path fill="#010101" d=" M 643.48 35.51 C 645.17 34.94 646.93 33.68 648.78 34.39 C 650.46 35.20 652.07 36.14 653.70 37.05 C 656.36 38.55 659.06 40.00 661.65 41.65 C 663.74 42.79 664.85 44.88 664.95 47.24 C 664.39 48.77 663.59 50.26 662.35 51.34 C 660.35 51.68 658.30 51.72 656.43 50.85 C 653.53 49.11 650.59 47.43 647.67 45.72 C 646.14 44.80 644.64 43.85 643.22 42.78 C 641.36 40.67 642.50 37.76 643.48 35.51 Z" />
<path fill="#ababab" d=" M 193.03 36.83 C 233.02 36.95 273.01 36.10 313.00 36.36 C 320.98 36.58 329.72 36.67 336.43 41.63 C 340.77 44.91 345.03 48.48 348.08 53.05 C 359.90 70.11 371.72 87.18 383.94 103.96 C 386.84 107.89 389.56 111.95 392.80 115.61 C 391.02 116.99 390.14 119.05 390.13 121.29 C 374.88 101.55 360.96 80.81 346.57 60.44 C 341.22 52.41 334.11 43.77 323.89 42.53 C 314.99 41.34 305.99 41.81 297.04 41.71 C 235.04 41.98 173.04 42.75 111.03 42.71 C 104.59 42.49 98.04 43.90 92.68 47.60 C 85.20 52.58 77.45 57.26 70.47 62.94 C 69.27 61.22 68.14 59.46 67.07 57.66 C 77.50 52.35 86.11 43.77 97.06 39.31 C 104.39 36.60 112.34 37.46 119.99 37.29 C 144.33 37.14 168.69 37.46 193.03 36.83 Z" />
<path fill="#ffffff" d=" M 646.30 37.32 C 647.79 36.33 649.30 37.87 650.63 38.45 C 654.31 40.77 658.31 42.58 661.81 45.18 C 662.83 47.21 660.42 50.09 658.34 48.59 C 654.28 46.34 650.26 44.03 646.29 41.63 C 644.39 40.92 644.72 38.21 646.30 37.32 Z" />
<path fill="#ababab" d=" M 643.22 42.78 C 644.64 43.85 646.14 44.80 647.67 45.72 C 645.43 49.35 643.08 52.91 640.62 56.39 C 639.08 55.54 637.52 54.76 635.91 54.10 C 638.16 50.21 640.74 46.52 643.22 42.78 Z" />
<path fill="#ffffff" d=" M 647.67 45.72 C 650.59 47.43 653.53 49.11 656.43 50.85 C 654.01 54.32 651.71 57.89 649.56 61.53 C 646.61 59.76 643.60 58.10 640.62 56.39 C 643.08 52.91 645.43 49.35 647.67 45.72 Z" />
<path fill="#010101" d=" M 311.62 56.53 C 318.24 53.10 325.61 51.61 332.67 49.39 C 333.53 50.16 334.39 50.93 335.25 51.71 C 327.81 54.06 320.08 55.64 313.05 59.10 C 304.27 63.37 295.37 67.41 286.52 71.55 C 282.04 73.22 280.25 78.08 277.83 81.80 C 272.05 95.40 267.69 109.56 264.03 123.87 C 263.27 127.85 260.52 130.91 258.78 134.44 C 257.01 140.89 256.78 147.68 254.97 154.11 C 252.78 157.72 249.70 160.82 246.63 163.70 C 241.01 165.68 234.73 163.54 228.94 164.72 C 224.92 167.74 222.19 172.21 217.99 175.00 C 214.53 176.09 210.71 176.75 207.12 176.18 C 203.94 174.16 200.63 171.13 200.31 167.14 C 199.62 161.62 199.89 156.06 200.01 150.52 C 198.18 149.85 195.14 150.40 194.82 147.83 C 194.16 145.29 195.81 142.79 196.41 140.35 C 201.48 126.67 204.56 112.40 208.35 98.34 C 209.63 93.68 209.03 88.81 209.04 84.05 C 208.95 78.05 209.33 71.75 206.85 66.13 C 204.58 63.11 201.68 60.62 198.99 57.98 C 195.82 54.98 191.20 54.69 187.07 54.80 C 170.37 55.29 153.64 55.22 136.97 56.55 C 130.61 57.20 123.94 56.47 117.89 58.91 C 114.48 60.20 112.02 63.01 109.42 65.43 C 104.40 70.41 98.91 74.88 93.91 79.88 C 91.63 82.02 89.36 84.63 86.07 85.04 C 81.02 85.89 75.98 86.92 70.88 87.42 C 66.30 86.95 61.90 85.41 57.42 84.40 C 54.78 83.99 53.06 81.85 51.33 80.02 C 51.94 79.57 53.16 78.65 53.77 78.20 C 55.10 79.39 56.14 81.15 58.03 81.49 C 62.26 82.54 66.46 83.87 70.78 84.46 C 76.36 83.58 82.15 83.13 87.54 81.43 C 96.21 73.85 104.43 65.74 113.04 58.08 C 120.39 53.16 129.58 54.30 137.96 53.48 C 154.61 52.18 171.33 52.27 188.02 51.79 C 192.84 51.74 198.26 52.61 201.67 56.36 C 204.26 59.11 207.19 61.55 209.55 64.51 C 211.45 69.76 212.20 75.38 212.01 80.96 C 211.80 86.95 212.93 93.11 211.24 98.97 C 209.28 106.35 207.37 113.74 205.46 121.14 C 203.33 129.99 200.05 138.50 197.28 147.16 C 199.21 147.20 201.14 147.26 203.07 147.31 C 202.92 154.38 202.60 161.46 203.42 168.50 C 204.99 170.19 206.56 171.89 208.13 173.59 C 210.94 173.26 213.75 172.92 216.56 172.58 C 220.24 168.85 223.98 165.17 227.64 161.41 C 233.36 161.43 239.08 161.48 244.81 161.47 C 247.20 158.68 250.02 156.23 252.11 153.19 C 253.95 146.59 254.26 139.64 256.01 133.00 C 257.28 130.15 259.76 127.94 260.64 124.89 C 262.80 117.53 264.65 110.07 266.87 102.72 C 268.74 97.10 270.95 91.60 272.89 86.00 C 274.69 80.39 278.02 75.38 281.63 70.79 C 291.45 65.71 301.67 61.38 311.62 56.53 Z" />
<path fill="#ababab" d=" M 504.80 59.78 C 508.21 54.85 513.94 51.42 520.01 51.38 C 525.24 51.34 530.47 50.95 535.71 50.96 L 535.67 52.01 C 533.31 51.03 530.83 51.50 528.55 52.39 C 528.05 53.61 527.55 54.82 527.06 56.04 C 524.34 56.28 521.62 56.50 518.92 56.89 C 511.15 57.73 506.44 65.46 505.29 72.56 C 502.54 88.60 499.49 104.60 496.89 120.68 C 497.55 121.03 498.88 121.73 499.54 122.09 C 496.74 121.51 493.80 121.08 491.06 122.17 C 493.69 106.51 496.61 90.89 499.31 75.24 C 500.07 69.79 501.46 64.27 504.80 59.78 Z" />
<path fill="#ababab" d=" M 656.43 50.85 C 658.30 51.72 660.35 51.68 662.35 51.34 C 659.35 56.06 656.71 61.07 653.00 65.29 C 652.10 63.82 650.91 62.57 649.56 61.53 C 651.71 57.89 654.01 54.32 656.43 50.85 Z" />
<path fill="#010101" d=" M 55.44 56.06 C 56.17 52.72 60.38 51.35 63.27 52.73 C 65.21 53.73 65.94 55.94 67.07 57.66 C 68.14 59.46 69.27 61.22 70.47 62.94 C 71.96 65.32 74.61 67.81 73.56 70.90 C 72.87 74.32 68.52 75.65 65.62 74.21 C 63.75 73.18 63.03 71.03 61.93 69.35 C 60.85 67.53 59.71 65.75 58.50 64.02 C 57.00 61.64 54.37 59.14 55.44 56.06 Z" />
<path fill="#4286f4" d=" M 313.05 59.10 C 320.08 55.64 327.81 54.06 335.25 51.71 C 336.87 53.20 338.40 54.79 339.85 56.45 C 326.01 61.03 311.99 65.35 298.94 71.94 C 296.56 73.62 295.33 76.41 293.68 78.72 C 291.06 82.98 287.85 86.87 285.51 91.28 C 284.52 95.01 285.22 98.95 285.14 102.76 C 282.80 105.93 279.26 108.75 278.98 112.96 C 277.55 128.01 276.14 143.07 274.77 158.12 C 274.55 161.76 272.27 164.75 270.60 167.85 C 268.17 166.66 265.80 164.77 262.98 164.87 C 260.96 165.76 259.62 167.64 258.15 169.22 C 253.29 175.00 247.97 180.37 243.13 186.16 C 242.43 187.12 241.33 188.44 242.22 189.64 C 244.14 193.01 247.41 195.30 250.08 198.04 C 249.78 199.14 249.49 200.25 249.20 201.36 C 245.32 201.52 240.97 200.35 237.45 202.45 C 235.98 206.87 236.29 212.04 237.55 216.51 C 239.45 217.27 241.55 217.26 243.57 217.47 C 243.60 219.65 243.63 221.82 243.68 224.00 L 192.93 224.00 C 188.13 211.85 186.04 198.93 184.19 186.07 C 183.46 180.38 184.26 174.65 184.32 168.95 C 184.62 154.83 189.19 141.36 193.04 127.92 C 197.34 113.80 202.48 99.71 203.43 84.86 C 203.23 80.23 202.21 75.67 201.43 71.11 C 200.97 68.24 198.49 66.40 196.64 64.40 C 194.47 62.43 192.38 59.49 189.06 59.92 C 167.02 60.59 144.89 60.50 122.96 63.03 C 120.32 63.03 118.24 64.68 116.56 66.53 C 111.80 71.47 106.78 76.17 102.28 81.35 C 98.72 85.68 93.54 88.25 88.54 90.53 C 82.72 91.56 76.77 91.55 70.91 92.27 C 66.41 92.88 62.01 91.50 57.74 90.28 C 53.55 89.07 50.43 85.84 47.46 82.83 C 48.75 81.90 50.05 80.97 51.33 80.02 C 53.06 81.85 54.78 83.99 57.42 84.40 C 61.90 85.41 66.30 86.95 70.88 87.42 C 75.98 86.92 81.02 85.89 86.07 85.04 C 89.36 84.63 91.63 82.02 93.91 79.88 C 98.91 74.88 104.40 70.41 109.42 65.43 C 112.02 63.01 114.48 60.20 117.89 58.91 C 123.94 56.47 130.61 57.20 136.97 56.55 C 153.64 55.22 170.37 55.29 187.07 54.80 C 191.20 54.69 195.82 54.98 198.99 57.98 C 201.68 60.62 204.58 63.11 206.85 66.13 C 209.33 71.75 208.95 78.05 209.04 84.05 C 209.03 88.81 209.63 93.68 208.35 98.34 C 204.56 112.40 201.48 126.67 196.41 140.35 C 195.81 142.79 194.16 145.29 194.82 147.83 C 195.14 150.40 198.18 149.85 200.01 150.52 C 199.89 156.06 199.62 161.62 200.31 167.14 C 200.63 171.13 203.94 174.16 207.12 176.18 C 210.71 176.75 214.53 176.09 217.99 175.00 C 222.19 172.21 224.92 167.74 228.94 164.72 C 234.73 163.54 241.01 165.68 246.63 163.70 C 249.70 160.82 252.78 157.72 254.97 154.11 C 256.78 147.68 257.01 140.89 258.78 134.44 C 260.52 130.91 263.27 127.85 264.03 123.87 C 267.69 109.56 272.05 95.40 277.83 81.80 C 280.25 78.08 282.04 73.22 286.52 71.55 C 295.37 67.41 304.27 63.37 313.05 59.10 Z" />
<path fill="#010101" d=" M 528.55 52.39 C 530.83 51.50 533.31 51.03 535.67 52.01 C 538.20 53.29 537.74 56.66 537.83 59.03 C 537.59 63.67 538.31 68.43 537.38 73.00 C 535.71 76.49 531.19 76.15 528.27 74.57 L 528.05 73.73 C 527.54 71.89 527.23 69.99 527.17 68.07 C 527.15 64.13 527.20 60.18 527.21 56.24 C 524.44 56.41 521.67 56.55 518.92 56.89 C 521.62 56.50 524.34 56.28 527.06 56.04 C 527.55 54.82 528.05 53.61 528.55 52.39 Z" />
<path fill="#ffffff" d=" M 531.22 54.33 C 532.48 53.44 535.02 54.31 534.92 56.02 C 535.01 61.30 535.20 66.61 534.80 71.87 C 533.67 73.34 531.28 73.35 530.20 71.83 C 529.76 67.25 530.09 62.62 529.99 58.02 C 530.14 56.73 529.63 54.88 531.22 54.33 Z" />
<path fill="#010101" d=" M 631.47 55.52 C 632.91 54.96 634.33 54.22 635.91 54.10 C 637.52 54.76 639.08 55.54 640.62 56.39 C 643.60 58.10 646.61 59.76 649.56 61.53 C 650.91 62.57 652.10 63.82 653.00 65.29 C 652.93 68.03 651.70 70.84 648.97 71.83 C 647.00 71.69 645.09 71.16 643.39 70.16 C 640.61 68.56 637.81 67.00 635.04 65.38 C 633.23 64.33 631.51 63.05 630.39 61.25 C 629.69 59.26 630.84 57.35 631.47 55.52 Z" />
<path fill="#ffffff" d=" M 59.38 55.43 C 60.46 54.63 62.21 54.94 62.76 56.24 C 65.47 60.25 68.12 64.32 70.64 68.45 C 72.11 70.64 68.20 73.32 66.66 71.28 C 63.81 67.43 61.40 63.28 58.76 59.28 C 57.65 58.14 57.89 56.12 59.38 55.43 Z" />
<path fill="#010101" d=" M 298.94 71.94 C 311.99 65.35 326.01 61.03 339.85 56.45 C 340.35 57.01 341.36 58.15 341.86 58.72 C 327.93 63.76 313.57 67.79 300.34 74.57 C 295.95 80.21 292.12 86.35 288.28 92.38 C 287.68 96.10 288.22 99.93 288.16 103.69 C 285.77 107.19 281.66 110.12 281.78 114.77 C 280.51 129.23 279.04 143.67 277.77 158.14 C 277.63 163.37 273.86 167.40 271.69 171.90 C 269.05 170.46 266.40 169.03 263.76 167.60 C 257.42 174.66 251.08 181.72 244.75 188.78 C 247.80 191.72 250.84 194.66 253.88 197.61 C 252.72 199.71 252.04 202.01 251.50 204.34 C 247.52 204.33 243.55 204.26 239.58 204.26 C 239.64 207.61 239.68 210.96 239.73 214.31 C 241.95 214.33 244.18 214.35 246.40 214.38 C 246.51 217.58 246.60 220.79 246.71 224.00 L 243.68 224.00 C 243.63 221.82 243.60 219.65 243.57 217.47 C 241.55 217.26 239.45 217.27 237.55 216.51 C 236.29 212.04 235.98 206.87 237.45 202.45 C 240.97 200.35 245.32 201.52 249.20 201.36 C 249.49 200.25 249.78 199.14 250.08 198.04 C 247.41 195.30 244.14 193.01 242.22 189.64 C 241.33 188.44 242.43 187.12 243.13 186.16 C 247.97 180.37 253.29 175.00 258.15 169.22 C 259.62 167.64 260.96 165.76 262.98 164.87 C 265.80 164.77 268.17 166.66 270.60 167.85 C 272.27 164.75 274.55 161.76 274.77 158.12 C 276.14 143.07 277.55 128.01 278.98 112.96 C 279.26 108.75 282.80 105.93 285.14 102.76 C 285.22 98.95 284.52 95.01 285.51 91.28 C 287.85 86.87 291.06 82.98 293.68 78.72 C 295.33 76.41 296.56 73.62 298.94 71.94 Z" />
<path fill="#ffffff" d=" M 505.29 72.56 C 506.44 65.46 511.15 57.73 518.92 56.89 C 521.67 56.55 524.44 56.41 527.21 56.24 C 527.20 60.18 527.15 64.13 527.17 68.07 C 524.24 68.45 520.94 68.46 518.66 70.63 C 512.77 75.49 513.71 85.84 519.99 89.97 C 522.29 91.60 525.23 91.65 527.94 91.70 C 552.48 91.55 577.02 91.68 601.55 91.69 C 602.12 93.33 602.71 94.96 603.21 96.63 C 603.61 98.62 603.90 100.63 604.27 102.62 C 602.87 102.96 601.46 103.29 600.04 103.32 C 576.69 103.17 553.35 103.17 530.00 103.27 C 524.77 103.19 519.28 104.71 515.60 108.59 C 511.90 112.47 510.50 117.77 508.82 122.69 C 508.33 122.91 507.34 123.33 506.85 123.54 C 504.40 123.08 501.97 122.61 499.54 122.09 C 498.88 121.73 497.55 121.03 496.89 120.68 C 499.49 104.60 502.54 88.60 505.29 72.56 Z" />
<path fill="#ffffff" d=" M 634.26 57.36 C 635.72 56.26 637.29 57.87 638.62 58.45 C 642.32 60.78 646.37 62.58 649.85 65.24 C 650.77 67.26 648.40 70.08 646.34 68.59 C 642.29 66.35 638.27 64.04 634.31 61.65 C 632.43 60.96 632.68 58.25 634.26 57.36 Z" />
<path fill="#010101" d=" M 122.96 63.03 C 144.89 60.50 167.02 60.59 189.06 59.92 C 192.38 59.49 194.47 62.43 196.64 64.40 C 198.49 66.40 200.97 68.24 201.43 71.11 C 202.21 75.67 203.23 80.23 203.43 84.86 C 202.48 99.71 197.34 113.80 193.04 127.92 C 189.19 141.36 184.62 154.83 184.32 168.95 C 184.26 174.65 183.46 180.38 184.19 186.07 C 186.04 198.93 188.13 211.85 192.93 224.00 L 189.90 224.00 C 185.15 212.55 183.39 200.23 181.47 188.08 C 180.26 181.75 181.26 175.32 181.32 168.95 C 181.64 154.64 186.21 140.96 190.13 127.33 C 194.42 113.18 199.69 99.07 200.46 84.16 C 199.90 79.59 199.30 74.97 198.18 70.51 C 196.05 67.68 193.23 65.44 190.80 62.88 C 167.58 63.61 144.26 63.44 121.16 66.24 C 115.33 72.07 109.45 77.86 103.95 84.01 C 100.18 88.49 94.59 90.80 89.52 93.45 C 83.38 94.50 77.10 94.53 70.91 95.27 C 65.50 96.06 60.27 93.94 55.13 92.56 C 51.26 90.70 47.81 87.91 45.12 84.55 C 45.90 83.97 46.68 83.39 47.46 82.83 C 50.43 85.84 53.55 89.07 57.74 90.28 C 62.01 91.50 66.41 92.88 70.91 92.27 C 76.77 91.55 82.72 91.56 88.54 90.53 C 93.54 88.25 98.72 85.68 102.28 81.35 C 106.78 76.17 111.80 71.47 116.56 66.53 C 118.24 64.68 120.32 63.03 122.96 63.03 Z" />
<path fill="#ababab" d=" M 630.39 61.25 C 631.51 63.05 633.23 64.33 635.04 65.38 C 632.18 69.00 629.57 72.82 627.46 76.93 C 625.78 75.99 624.10 75.04 622.35 74.23 C 624.92 69.83 628.54 66.06 630.39 61.25 Z" />
<path fill="#ababab" d=" M 58.50 64.02 C 59.71 65.75 60.85 67.53 61.93 69.35 C 57.28 71.16 53.70 74.77 49.57 77.47 C 43.96 81.24 38.88 85.87 33.02 89.22 L 32.09 89.30 C 31.22 88.08 30.41 86.83 29.65 85.54 C 38.93 77.92 49.17 71.56 58.50 64.02 Z" />
<path fill="#ffffff" d=" M 627.46 76.93 C 629.57 72.82 632.18 69.00 635.04 65.38 C 637.81 67.00 640.61 68.56 643.39 70.16 C 641.26 74.28 638.86 78.27 635.64 81.64 C 632.98 79.96 630.21 78.46 627.46 76.93 Z" />
<path fill="#ababab" d=" M 518.66 70.63 C 520.94 68.46 524.24 68.45 527.17 68.07 C 527.23 69.99 527.54 71.89 528.05 73.73 C 525.83 73.85 523.09 73.40 521.50 75.36 C 519.35 78.06 519.83 82.42 522.25 84.81 C 523.76 86.32 526.06 86.22 528.04 86.30 C 553.23 86.14 578.41 86.33 603.60 86.25 C 601.96 89.53 602.50 93.17 603.21 96.63 C 602.71 94.96 602.12 93.33 601.55 91.69 C 577.02 91.68 552.48 91.55 527.94 91.70 C 525.23 91.65 522.29 91.60 519.99 89.97 C 513.71 85.84 512.77 75.49 518.66 70.63 Z" />
<path fill="#ababab" d=" M 643.39 70.16 C 645.09 71.16 647.00 71.69 648.97 71.83 C 645.87 77.12 642.54 82.28 638.94 87.25 C 638.84 84.88 637.75 82.79 635.64 81.64 C 638.86 78.27 641.26 74.28 643.39 70.16 Z" />
<path fill="#010101" d=" M 617.48 75.52 C 619.05 74.96 620.61 73.94 622.35 74.23 C 624.10 75.04 625.78 75.99 627.46 76.93 C 630.21 78.46 632.98 79.96 635.64 81.64 C 637.75 82.79 638.84 84.88 638.94 87.25 C 638.37 88.81 637.55 90.35 636.22 91.39 C 634.22 91.73 632.18 91.66 630.33 90.79 C 627.33 88.98 624.29 87.26 621.27 85.51 C 619.61 84.48 618.04 83.31 616.58 82.03 C 615.68 79.80 616.62 77.57 617.48 75.52 Z" />
<path fill="#ffffff" d=" M 620.23 77.37 C 621.66 76.26 623.24 77.83 624.55 78.41 C 628.27 80.75 632.32 82.57 635.84 85.21 C 636.80 87.24 634.42 90.07 632.35 88.59 C 628.31 86.35 624.29 84.05 620.34 81.66 C 618.44 80.97 618.68 78.31 620.23 77.37 Z" />
<path fill="#010101" d=" M 17.43 83.10 C 18.24 79.26 23.70 77.94 26.43 80.56 C 27.75 82.05 28.61 83.86 29.65 85.54 C 30.41 86.83 31.22 88.08 32.09 89.30 C 33.67 91.93 36.64 94.59 35.54 97.96 C 34.71 101.96 28.59 103.18 26.18 99.96 C 23.78 96.57 21.69 92.97 19.40 89.50 C 18.22 87.61 16.52 85.47 17.43 83.10 Z" />
<path fill="#ffffff" d=" M 21.32 82.47 C 22.42 81.63 24.18 81.91 24.76 83.24 C 27.45 87.20 30.05 91.23 32.56 95.31 C 34.22 97.48 30.36 100.32 28.71 98.33 C 25.84 94.49 23.43 90.31 20.78 86.31 C 19.70 85.18 19.84 83.18 21.32 82.47 Z" />
<path fill="#ababab" d=" M 616.58 82.03 C 618.04 83.31 619.61 84.48 621.27 85.51 C 618.75 87.38 616.15 89.12 613.46 90.72 C 613.09 88.54 611.98 86.57 609.95 85.57 C 612.65 85.56 614.61 83.62 616.58 82.03 Z" />
<path fill="#010101" d=" M 603.60 86.25 C 605.62 85.63 607.83 84.69 609.95 85.57 C 611.98 86.57 613.09 88.54 613.46 90.72 C 614.10 94.54 614.85 98.35 615.48 102.18 C 615.57 103.73 615.59 105.28 615.53 106.84 C 613.79 110.11 609.04 110.58 606.14 108.55 C 605.27 106.66 604.73 104.64 604.27 102.62 C 603.90 100.63 603.61 98.62 603.21 96.63 C 602.50 93.17 601.96 89.53 603.60 86.25 Z" />
<path fill="#ffffff" d=" M 613.46 90.72 C 616.15 89.12 618.75 87.38 621.27 85.51 C 624.29 87.26 627.33 88.98 630.33 90.79 C 626.54 95.90 621.66 100.26 615.48 102.18 C 614.85 98.35 614.10 94.54 613.46 90.72 Z" />
<path fill="#ffffff" d=" M 606.31 88.42 C 607.59 87.56 609.93 88.03 610.19 89.73 C 611.19 94.78 612.17 99.86 612.85 104.97 C 612.51 107.43 608.23 107.78 607.79 105.24 C 606.88 101.18 606.33 97.04 605.52 92.96 C 605.30 91.44 604.53 89.30 606.31 88.42 Z" />
<path fill="#ababab" d=" M 630.33 90.79 C 632.18 91.66 634.22 91.73 636.22 91.39 C 631.44 98.53 624.81 106.53 615.53 106.84 C 615.59 105.28 615.57 103.73 615.48 102.18 C 621.66 100.26 626.54 95.90 630.33 90.79 Z" />
<path fill="#010101" d=" M 534.31 94.69 C 535.30 94.70 536.31 94.70 537.32 94.70 C 537.29 96.46 537.27 98.23 537.25 100.00 C 536.24 100.00 535.24 100.00 534.24 100.01 C 534.26 98.24 534.29 96.46 534.31 94.69 Z" />
<path fill="#010101" d=" M 585.47 94.75 C 586.47 94.75 587.46 94.75 588.47 94.75 C 588.36 96.53 588.25 98.30 588.14 100.08 C 587.39 100.06 585.89 100.02 585.14 100.00 C 585.24 98.25 585.35 96.50 585.47 94.75 Z" />
<path fill="#4286f4" d=" M 537.32 94.70 C 553.37 94.65 569.42 94.64 585.47 94.75 C 585.35 96.50 585.24 98.25 585.14 100.00 C 569.18 99.99 553.22 100.01 537.25 100.00 C 537.27 98.23 537.29 96.46 537.32 94.70 Z" />
<path fill="#ababab" d=" M 604.27 102.62 C 604.73 104.64 605.27 106.66 606.14 108.55 C 580.43 108.86 554.70 108.35 528.99 108.71 C 525.50 108.74 521.85 109.84 519.48 112.50 C 515.87 116.49 514.70 121.95 513.61 127.06 C 512.09 124.75 509.39 124.04 506.85 123.54 C 507.34 123.33 508.33 122.91 508.82 122.69 C 510.50 117.77 511.90 112.47 515.60 108.59 C 519.28 104.71 524.77 103.19 530.00 103.27 C 553.35 103.17 576.69 103.17 600.04 103.32 C 601.46 103.29 602.87 102.96 604.27 102.62 Z" />
<path fill="#ababab" d=" M 405.24 107.57 C 406.75 107.11 408.28 106.46 409.90 106.56 C 411.15 107.08 411.88 108.31 412.68 109.34 C 417.94 117.02 423.45 124.52 428.79 132.15 C 434.07 140.01 443.71 142.65 451.48 147.26 C 450.50 147.69 449.53 148.14 448.56 148.61 C 448.18 149.54 447.81 150.47 447.43 151.40 C 439.85 146.93 430.87 143.95 425.42 136.64 C 420.66 130.09 415.97 123.49 411.27 116.90 C 412.37 114.62 413.53 111.79 411.60 109.58 C 410.39 107.22 407.51 107.12 405.24 107.57 Z" />
<path fill="#010101" d=" M 392.80 115.61 C 396.98 112.99 401.16 110.36 405.24 107.57 C 407.51 107.12 410.39 107.22 411.60 109.58 C 413.53 111.79 412.37 114.62 411.27 116.90 C 407.19 119.06 403.42 121.74 399.52 124.18 C 397.83 125.26 395.86 125.75 393.87 125.83 C 392.03 124.90 390.68 123.27 390.13 121.29 C 390.14 119.05 391.02 116.99 392.80 115.61 Z" />
<path fill="#ffffff" d=" M 406.40 110.39 C 408.93 108.71 411.58 113.48 408.80 114.75 C 404.82 117.46 400.74 120.05 396.65 122.58 C 394.12 124.32 391.40 119.53 394.18 118.26 C 398.19 115.54 402.28 112.92 406.40 110.39 Z" />
<path fill="#010101" d=" M 534.24 111.69 C 535.00 111.69 536.52 111.67 537.28 111.66 C 537.20 114.38 537.38 117.14 536.79 119.81 C 534.95 122.50 531.12 121.50 528.37 121.89 C 528.14 124.73 528.42 127.72 527.36 130.42 C 525.18 131.19 522.85 131.27 520.60 131.57 C 525.24 131.89 530.25 131.33 534.55 133.42 C 535.88 135.86 536.54 139.26 534.55 141.53 C 532.13 142.86 529.18 142.07 526.55 142.17 C 526.51 142.72 526.43 143.83 526.39 144.39 C 528.36 146.11 531.97 147.67 531.01 150.89 C 530.01 153.31 528.33 155.35 526.84 157.48 C 528.20 158.31 529.65 159.07 530.86 160.15 C 531.66 164.10 529.37 167.88 528.41 171.63 C 528.97 172.00 530.09 172.75 530.64 173.12 C 528.90 172.58 527.21 171.92 525.52 171.25 C 526.48 168.06 527.45 164.88 528.40 161.69 C 526.41 160.76 524.42 159.83 522.44 158.90 C 524.43 155.89 526.44 152.89 528.43 149.88 C 526.71 148.50 524.99 147.12 523.27 145.74 C 523.47 143.50 523.67 141.27 523.88 139.03 C 526.90 139.13 529.91 139.23 532.94 139.35 C 532.83 138.36 532.61 136.39 532.50 135.41 C 527.73 134.91 522.97 134.41 518.21 133.91 C 518.59 132.02 518.99 130.13 519.39 128.24 C 521.26 128.19 523.14 128.14 525.02 128.10 C 525.18 125.03 525.34 121.95 525.50 118.88 C 528.38 118.81 531.27 118.75 534.16 118.69 C 534.17 116.36 534.19 114.03 534.24 111.69 Z" />
<path fill="#4286f4" d=" M 537.28 111.66 C 553.00 111.48 568.72 111.52 584.43 111.66 C 583.91 119.51 583.33 127.36 582.68 135.20 C 581.47 145.65 579.67 156.02 578.47 166.47 C 575.36 165.82 572.27 164.90 569.08 164.85 C 566.99 164.99 566.21 167.22 566.03 168.97 C 565.20 174.69 564.69 180.46 564.07 186.20 C 552.89 181.95 541.67 177.74 530.64 173.12 C 530.09 172.75 528.97 172.00 528.41 171.63 C 529.37 167.88 531.66 164.10 530.86 160.15 C 529.65 159.07 528.20 158.31 526.84 157.48 C 528.33 155.35 530.01 153.31 531.01 150.89 C 531.97 147.67 528.36 146.11 526.39 144.39 C 526.43 143.83 526.51 142.72 526.55 142.17 C 529.18 142.07 532.13 142.86 534.55 141.53 C 536.54 139.26 535.88 135.86 534.55 133.42 C 530.25 131.33 525.24 131.89 520.60 131.57 C 522.85 131.27 525.18 131.19 527.36 130.42 C 528.42 127.72 528.14 124.73 528.37 121.89 C 531.12 121.50 534.95 122.50 536.79 119.81 C 537.38 117.14 537.20 114.38 537.28 111.66 Z" />
<path fill="#010101" d=" M 584.43 111.66 C 585.18 111.67 586.68 111.69 587.43 111.69 C 586.59 122.43 586.23 133.23 584.56 143.88 C 583.34 152.53 582.12 161.17 580.91 169.81 C 576.99 169.09 573.07 168.35 569.16 167.63 C 568.40 174.16 567.65 180.68 566.88 187.20 C 566.17 187.05 564.74 186.73 564.03 186.57 L 564.07 186.20 C 564.69 180.46 565.20 174.69 566.03 168.97 C 566.21 167.22 566.99 164.99 569.08 164.85 C 572.27 164.90 575.36 165.82 578.47 166.47 C 579.67 156.02 581.47 145.65 582.68 135.20 C 583.33 127.36 583.91 119.51 584.43 111.66 Z" />
<path fill="#ffffff" d=" M 399.52 124.18 C 403.42 121.74 407.19 119.06 411.27 116.90 C 415.97 123.49 420.66 130.09 425.42 136.64 C 430.87 143.95 439.85 146.93 447.43 151.40 C 446.03 154.84 444.60 158.29 443.29 161.78 C 436.12 158.42 428.20 156.18 422.17 150.84 C 417.72 146.97 413.91 142.44 410.05 137.99 C 406.39 133.50 402.47 129.19 399.52 124.18 Z" />
<path fill="#010101" d=" M 491.06 122.17 C 493.80 121.08 496.74 121.51 499.54 122.09 C 501.97 122.61 504.40 123.08 506.85 123.54 C 509.39 124.04 512.09 124.75 513.61 127.06 C 514.15 129.25 513.46 131.42 512.69 133.45 C 509.83 134.76 506.72 134.75 503.71 134.00 C 500.99 133.41 498.28 132.82 495.56 132.32 C 493.25 131.84 490.85 131.14 489.53 129.01 C 488.66 126.73 489.65 124.45 490.47 122.33 L 491.06 122.17 Z" />
<path fill="#ababab" d=" M 393.87 125.83 C 395.86 125.75 397.83 125.26 399.52 124.18 C 402.47 129.19 406.39 133.50 410.05 137.99 C 413.91 142.44 417.72 146.97 422.17 150.84 C 428.20 156.18 436.12 158.42 443.29 161.78 C 442.73 163.44 442.41 165.18 442.27 166.93 C 437.18 165.31 432.37 162.96 427.51 160.76 C 419.53 157.21 413.79 150.34 408.09 143.98 C 403.20 138.06 397.83 132.43 393.87 125.83 Z" />
<path fill="#ffffff" d=" M 493.29 124.38 C 494.59 123.66 496.13 124.53 497.52 124.62 C 501.62 125.53 505.81 126.07 509.87 127.19 C 512.21 128.43 510.55 132.73 507.93 131.80 C 503.31 130.97 498.70 130.08 494.11 129.09 C 491.66 129.03 491.34 125.38 493.29 124.38 Z" />
<path fill="#ababab" d=" M 489.53 129.01 C 490.85 131.14 493.25 131.84 495.56 132.32 C 493.22 136.10 493.22 140.75 492.58 145.02 C 491.83 150.92 493.65 157.03 497.89 161.27 C 505.51 154.85 505.43 144.10 506.90 135.05 C 505.84 134.68 504.77 134.33 503.71 134.00 C 506.72 134.75 509.83 134.76 512.69 133.45 C 510.72 144.18 511.03 157.00 502.03 164.74 C 506.23 167.65 511.48 168.29 515.68 171.19 C 514.63 171.64 513.59 172.11 512.56 172.59 C 512.24 173.37 511.92 174.15 511.60 174.93 C 506.01 173.07 500.83 170.33 495.70 167.51 C 482.14 166.07 469.83 159.71 457.08 155.32 C 457.81 153.30 457.64 151.15 456.85 149.17 C 465.60 152.98 474.63 156.11 483.60 159.37 C 485.89 160.21 488.27 160.74 490.66 161.18 C 488.98 157.66 487.26 153.99 487.19 150.01 C 486.52 142.89 488.93 136.04 489.53 129.01 Z" />
<path fill="#ffffff" d=" M 492.58 145.02 C 493.22 140.75 493.22 136.10 495.56 132.32 C 498.28 132.82 500.99 133.41 503.71 134.00 C 504.77 134.33 505.84 134.68 506.90 135.05 C 505.43 144.10 505.51 154.85 497.89 161.27 C 493.65 157.03 491.83 150.92 492.58 145.02 Z" />
<path fill="#010101" d=" M 448.56 148.61 C 449.53 148.14 450.50 147.69 451.48 147.26 C 453.30 146.92 454.97 147.94 456.64 148.48 L 456.85 149.17 C 457.64 151.15 457.81 153.30 457.08 155.32 C 455.99 158.17 454.79 160.98 453.73 163.84 C 452.69 166.34 451.93 169.36 449.23 170.58 C 447.25 171.33 445.36 170.20 443.57 169.54 C 443.11 168.68 442.67 167.81 442.27 166.93 C 442.41 165.18 442.73 163.44 443.29 161.78 C 444.60 158.29 446.03 154.84 447.43 151.40 C 447.81 150.47 448.18 149.54 448.56 148.61 Z" />
<path fill="#ffffff" d=" M 451.18 150.23 C 452.76 149.58 454.56 150.42 455.11 152.04 C 453.65 157.02 451.53 161.79 449.62 166.61 C 448.81 169.41 443.99 167.53 445.17 164.96 C 447.07 160.03 448.59 154.83 451.18 150.23 Z" />
<path fill="#ffffff" d=" M 453.73 163.84 C 454.79 160.98 455.99 158.17 457.08 155.32 C 469.83 159.71 482.14 166.07 495.70 167.51 C 500.83 170.33 506.01 173.07 511.60 174.93 C 510.04 178.77 508.49 182.61 507.03 186.49 C 489.22 179.79 471.39 173.13 453.78 165.94 C 453.77 165.41 453.74 164.36 453.73 163.84 Z" />
<path fill="#010101" d=" M 750.47 169.32 C 752.35 165.79 754.48 162.20 758.00 160.07 L 758.00 163.12 C 756.12 166.11 753.80 168.85 752.41 172.12 C 749.24 179.12 747.88 186.74 745.88 194.11 C 744.63 199.45 742.94 204.68 741.95 210.07 C 741.60 214.36 742.08 218.67 742.14 222.97 C 739.67 223.08 736.90 222.42 734.76 224.00 L 734.28 224.00 C 732.51 221.98 730.44 220.26 728.38 218.56 C 726.84 220.36 725.30 222.17 723.79 223.99 L 731.90 224.00 L 720.18 224.00 C 722.53 221.09 724.42 217.34 728.06 215.86 C 730.79 216.00 732.76 218.57 734.94 220.06 C 736.30 220.04 737.67 220.02 739.04 220.00 C 737.54 209.97 741.48 200.50 743.65 190.91 C 745.57 183.61 747.05 176.10 750.47 169.32 Z" />
<path fill="#ababab" d=" M 449.23 170.58 C 451.93 169.36 452.69 166.34 453.73 163.84 C 453.74 164.36 453.77 165.41 453.78 165.94 C 471.39 173.13 489.22 179.79 507.03 186.49 C 506.46 188.27 506.35 190.14 506.51 191.99 C 492.06 186.86 477.81 181.20 463.51 175.68 C 458.76 173.96 454.22 171.57 449.23 170.58 Z" />
<path fill="#ffffff" d=" M 752.41 172.12 C 753.80 168.85 756.12 166.11 758.00 163.12 L 758.00 224.00 L 734.76 224.00 C 736.90 222.42 739.67 223.08 742.14 222.97 C 742.08 218.67 741.60 214.36 741.95 210.07 C 742.94 204.68 744.63 199.45 745.88 194.11 C 747.88 186.74 749.24 179.12 752.41 172.12 Z" />
<path fill="#010101" d=" M 512.56 172.59 C 513.59 172.11 514.63 171.64 515.68 171.19 C 517.44 171.02 519.06 171.92 520.70 172.43 L 520.84 172.96 C 521.51 174.89 521.81 176.93 521.21 178.93 C 520.11 181.91 518.84 184.82 517.77 187.80 C 516.78 190.30 515.80 192.96 513.62 194.68 C 510.97 195.19 508.00 194.36 506.51 191.99 C 506.35 190.14 506.46 188.27 507.03 186.49 C 508.49 182.61 510.04 178.77 511.60 174.93 C 511.92 174.15 512.24 173.37 512.56 172.59 Z" />
<path fill="#ababab" d=" M 520.84 172.96 C 542.35 180.60 563.38 189.57 584.78 197.52 C 582.65 197.14 580.59 197.74 578.59 198.39 C 578.27 199.19 577.95 199.99 577.64 200.80 C 565.41 195.69 552.97 191.11 540.65 186.22 C 534.16 183.80 527.85 180.92 521.21 178.93 C 521.81 176.93 521.51 174.89 520.84 172.96 Z" />
<path fill="#ffffff" d=" M 515.29 174.24 C 516.96 173.32 519.81 175.12 518.85 177.08 C 517.23 181.66 515.45 186.20 513.58 190.69 C 512.75 193.36 508.08 191.52 509.15 189.05 C 511.08 184.11 512.50 178.72 515.29 174.24 Z" />
<path fill="#ffffff" d=" M 521.21 178.93 C 527.85 180.92 534.16 183.80 540.65 186.22 C 552.97 191.11 565.41 195.69 577.64 200.80 C 576.31 204.15 574.93 207.48 573.67 210.86 C 554.70 204.62 536.07 197.28 517.34 190.33 C 517.45 189.70 517.66 188.43 517.77 187.80 C 518.84 184.82 520.11 181.91 521.21 178.93 Z" />
<path fill="#010101" d=" M 527.53 184.39 C 528.48 184.73 529.44 185.07 530.40 185.41 C 529.76 187.37 529.12 189.34 528.50 191.31 C 527.82 191.12 526.46 190.73 525.79 190.53 C 526.29 188.46 526.96 186.44 527.53 184.39 Z" />
<path fill="#4286f4" d=" M 530.40 185.41 C 541.12 189.67 551.87 193.87 562.66 197.95 C 562.41 199.86 562.17 201.77 561.95 203.68 C 550.78 199.60 539.61 195.52 528.50 191.31 C 529.12 189.34 529.76 187.37 530.40 185.41 Z" />
<path fill="#ababab" d=" M 513.62 194.68 C 515.80 192.96 516.78 190.30 517.77 187.80 C 517.66 188.43 517.45 189.70 517.34 190.33 C 536.07 197.28 554.70 204.62 573.67 210.86 C 573.04 212.64 572.53 214.46 572.18 216.31 C 552.58 209.32 533.05 202.13 513.62 194.68 Z" />
<path fill="#010101" d=" M 470.50 193.41 C 474.47 193.61 478.44 193.82 482.42 194.02 C 481.88 197.70 482.94 201.15 485.21 204.04 C 487.03 204.19 488.86 204.36 490.69 204.52 C 491.88 203.07 493.07 201.62 494.27 200.18 C 499.88 200.31 505.52 200.69 511.10 199.86 C 513.63 199.67 516.29 198.75 518.74 199.88 C 517.62 200.95 516.49 202.24 514.86 202.43 C 508.50 203.57 502.01 203.40 495.58 203.28 C 494.16 204.73 493.18 207.02 490.98 207.34 C 488.52 207.50 485.86 207.45 483.61 206.36 C 480.98 203.89 479.55 200.43 479.07 196.90 C 477.11 196.75 475.14 196.61 473.19 196.47 C 473.82 201.79 475.14 207.14 478.12 211.67 C 486.49 212.40 494.82 213.48 503.17 214.34 C 504.93 214.75 507.61 214.52 508.22 216.69 C 509.04 219.03 508.50 221.57 508.52 224.00 L 505.44 224.00 C 505.55 221.88 505.66 219.77 505.78 217.66 C 496.11 216.59 486.45 215.48 476.78 214.45 C 471.89 208.73 470.11 200.79 470.50 193.41 Z" />
<path fill="#4286f4" d=" M 473.19 196.47 C 475.14 196.61 477.11 196.75 479.07 196.90 C 479.55 200.43 480.98 203.89 483.61 206.36 C 485.86 207.45 488.52 207.50 490.98 207.34 C 493.18 207.02 494.16 204.73 495.58 203.28 C 502.01 203.40 508.50 203.57 514.86 202.43 C 516.49 202.24 517.62 200.95 518.74 199.88 C 532.65 205.12 546.61 210.22 560.56 215.36 C 560.27 218.24 559.95 221.12 559.64 224.00 L 508.52 224.00 C 508.50 221.57 509.04 219.03 508.22 216.69 C 507.61 214.52 504.93 214.75 503.17 214.34 C 494.82 213.48 486.49 212.40 478.12 211.67 C 475.14 207.14 473.82 201.79 473.19 196.47 Z" />
<path fill="#010101" d=" M 562.66 197.95 C 563.59 198.43 564.53 198.88 565.50 199.30 C 565.28 201.11 565.09 202.93 564.92 204.76 C 563.91 204.42 562.92 204.06 561.95 203.68 C 562.17 201.77 562.41 199.86 562.66 197.95 Z" />
<path fill="#010101" d=" M 578.59 198.39 C 580.59 197.74 582.65 197.14 584.78 197.52 C 587.42 198.39 588.38 201.44 587.54 203.91 C 585.67 209.16 583.50 214.31 581.49 219.51 C 579.00 221.16 576.04 220.97 573.53 219.52 C 573.05 218.46 572.55 217.41 572.18 216.31 C 572.53 214.46 573.04 212.64 573.67 210.86 C 574.93 207.48 576.31 204.15 577.64 200.80 C 577.95 199.99 578.27 199.19 578.59 198.39 Z" />
<path fill="#ffffff" d=" M 581.16 200.24 C 582.87 199.34 585.75 200.99 584.87 203.03 C 583.26 207.62 581.46 212.16 579.60 216.65 C 578.77 219.40 574.00 217.51 575.17 214.96 C 577.05 210.02 578.61 204.86 581.16 200.24 Z" />
<path fill="#010101" d=" M 560.56 215.36 C 561.53 215.72 562.52 216.09 563.51 216.46 C 563.20 218.97 562.91 221.48 562.62 224.00 L 559.64 224.00 C 559.95 221.12 560.27 218.24 560.56 215.36 Z" />
<path fill="#ffffff" d=" M 728.38 218.56 C 730.44 220.26 732.51 221.98 734.28 224.00 L 731.90 224.00 L 723.79 223.99 C 725.30 222.17 726.84 220.36 728.38 218.56 Z" />
</svg>
