<?xml version="1.0" encoding="UTF-8" ?>
<!DOCTYPE svg PUBLIC "-//W3C//DTD SVG 1.1//EN" "http://www.w3.org/Graphics/SVG/1.1/DTD/svg11.dtd">
<svg width="758pt" height="224pt" viewBox="0 0 758 224" version="1.1" xmlns="http://www.w3.org/2000/svg">
<path fill="#ffff03" d=" M 656.57 35.69 C 658.41 32.74 660.19 29.73 662.42 27.04 C 663.54 28.05 665.48 28.49 666.01 30.00 C 664.57 32.96 662.56 35.58 660.83 38.36 C 659.41 37.46 657.98 36.58 656.57 35.69 Z" />
<path fill="#4b4bb4" d=" M 654.96 38.59 C 655.49 37.63 656.02 36.66 656.57 35.69 C 657.98 36.58 659.41 37.46 660.83 38.36 C 660.30 39.18 659.78 40.00 659.28 40.82 C 657.83 40.08 656.39 39.34 654.96 38.59 Z" />
<path fill="#ffff03" d=" M 643.44 55.60 C 645.74 52.47 647.76 49.16 649.88 45.91 C 651.32 46.74 652.75 47.57 654.20 48.39 C 652.22 51.56 650.18 54.70 648.10 57.80 C 646.54 57.06 644.99 56.32 643.44 55.60 Z" />
<path fill="#4b4bb4" d=" M 643.44 55.60 C 644.99 56.32 646.54 57.06 648.10 57.80 C 647.45 58.67 646.79 59.53 646.16 60.40 C 644.80 59.58 643.45 58.76 642.09 57.94 C 642.43 57.35 643.11 56.18 643.44 55.60 Z" />
<path fill="#ffff03" d=" M 507.86 65.89 C 514.35 63.69 521.33 64.29 528.01 65.07 C 527.99 66.70 527.98 68.33 527.97 69.97 C 522.63 69.90 517.28 69.58 511.96 70.07 C 508.81 70.38 506.05 72.32 504.29 74.90 L 505.21 73.09 C 503.37 73.12 501.54 73.15 499.72 73.17 C 499.13 74.54 498.55 75.92 498.01 77.32 C 499.05 72.17 502.78 67.49 507.86 65.89 Z" />
<path fill="#4b4bb4" d=" M 512.59 64.85 C 515.93 64.65 519.28 64.60 522.63 64.66 C 522.62 66.29 522.62 67.91 522.63 69.54 C 519.27 69.44 515.90 69.48 512.54 69.74 C 512.56 68.11 512.57 66.48 512.59 64.85 Z" />
<path fill="#ffff03" d=" M 630.82 75.18 C 632.70 71.84 634.89 68.66 637.03 65.47 C 638.46 66.28 639.90 67.09 641.35 67.91 C 639.30 71.38 637.03 74.70 634.80 78.05 C 633.44 77.13 632.06 76.25 630.82 75.18 Z" />
<path fill="#4b4bb4" d=" M 498.01 77.32 C 498.55 75.92 499.13 74.54 499.72 73.17 C 501.54 73.15 503.37 73.12 505.21 73.09 L 504.29 74.90 C 503.70 76.09 503.16 77.31 502.81 78.59 C 502.43 80.11 502.15 81.65 501.87 83.19 C 500.12 83.20 498.38 83.20 496.64 83.20 C 497.12 81.25 497.43 79.25 498.01 77.32 Z" />
<path fill="#4b4bb4" d=" M 628.86 78.19 C 629.55 77.23 629.93 76.00 630.82 75.18 C 632.06 76.25 633.44 77.13 634.80 78.05 C 634.21 78.91 633.63 79.77 633.06 80.63 C 631.65 79.82 630.25 79.01 628.86 78.19 Z" />
<path fill="#ffff03" d=" M 501.87 83.19 C 502.15 81.65 502.43 80.11 502.81 78.59 C 501.82 83.48 501.87 88.55 503.34 93.35 C 501.20 93.26 499.06 93.20 496.93 93.12 C 496.83 89.82 496.58 86.51 496.64 83.20 C 498.38 83.20 500.12 83.20 501.87 83.19 Z" />
<path fill="#ffff03" d=" M 623.44 86.02 C 624.97 86.80 626.48 87.59 628.02 88.37 C 625.42 92.37 622.54 96.23 618.96 99.41 C 618.06 98.01 617.16 96.61 616.27 95.22 C 615.62 95.66 614.33 96.54 613.68 96.98 C 617.68 94.06 620.90 90.25 623.44 86.02 Z" />
<path fill="#4b4bb4" d=" M 496.93 93.12 C 499.06 93.20 501.20 93.26 503.34 93.35 L 504.06 93.38 C 504.11 93.75 504.21 94.50 504.26 94.88 C 504.56 97.04 504.62 99.22 504.70 101.40 C 503.88 101.08 503.07 100.76 502.26 100.47 C 502.26 100.70 502.26 101.16 502.26 101.39 L 502.16 101.98 L 501.42 103.18 C 499.89 103.22 498.37 103.24 496.85 103.24 C 496.86 99.87 496.81 96.49 496.93 93.12 Z" />
<path fill="#ffff03" d=" M 504.26 94.88 C 507.91 100.09 514.73 100.85 520.59 100.94 C 520.58 102.56 520.58 104.18 520.59 105.80 C 523.93 105.79 527.27 105.79 530.62 105.79 C 530.62 104.14 530.63 102.50 530.65 100.86 C 533.96 100.87 537.27 100.87 540.59 100.86 C 540.59 102.54 540.59 104.22 540.61 105.90 C 543.89 105.29 548.01 106.26 550.68 103.88 C 550.71 103.13 550.77 101.64 550.80 100.89 C 554.03 100.72 557.27 100.84 560.52 100.92 C 560.59 102.36 560.69 103.80 560.79 105.24 C 564.07 105.39 567.33 105.80 570.61 105.94 C 570.62 104.26 570.62 102.58 570.64 100.90 C 575.09 100.89 579.55 100.81 584.02 100.86 C 583.18 100.87 581.52 100.89 580.69 100.90 C 580.60 101.95 580.42 104.04 580.33 105.09 C 583.73 105.55 587.16 105.92 590.61 105.95 C 590.62 104.26 590.64 102.58 590.66 100.90 C 595.24 101.00 599.80 100.60 604.35 100.10 C 603.07 100.33 601.79 100.56 600.53 100.78 C 600.51 102.35 600.51 103.93 600.51 105.51 C 601.18 105.45 602.51 105.33 603.17 105.27 C 599.52 106.11 595.75 105.92 592.03 105.99 C 567.68 105.92 543.32 105.90 518.97 105.98 C 514.38 105.68 509.34 105.41 505.51 102.60 C 504.39 102.27 503.31 101.87 502.26 101.39 C 502.26 101.16 502.26 100.70 502.26 100.47 C 503.07 100.76 503.88 101.08 504.70 101.40 C 504.62 99.22 504.56 97.04 504.26 94.88 Z" />
<path fill="#4b4bb4" d=" M 613.68 96.98 C 614.33 96.54 615.62 95.66 616.27 95.22 C 617.16 96.61 618.06 98.01 618.96 99.41 C 617.47 100.33 615.99 101.25 614.52 102.16 C 614.23 100.43 613.95 98.71 613.68 96.98 Z" />
<path fill="#4b4bb4" d=" M 604.35 100.10 L 605.05 99.98 C 605.33 101.64 605.61 103.30 605.91 104.97 C 605.22 105.04 603.86 105.19 603.17 105.27 C 602.51 105.33 601.18 105.45 600.51 105.51 C 600.51 103.93 600.51 102.35 600.53 100.78 C 601.79 100.56 603.07 100.33 604.35 100.10 Z" />
<path fill="#4b4bb4" d=" M 520.59 100.94 C 523.94 100.81 527.29 100.82 530.65 100.86 C 530.63 102.50 530.62 104.14 530.62 105.79 C 527.27 105.79 523.93 105.79 520.59 105.80 C 520.58 104.18 520.58 102.56 520.59 100.94 Z" />
<path fill="#4b4bb4" d=" M 540.59 100.86 C 543.99 100.90 547.39 100.86 550.80 100.89 C 550.77 101.64 550.71 103.13 550.68 103.88 C 548.01 106.26 543.89 105.29 540.61 105.90 C 540.59 104.22 540.59 102.54 540.59 100.86 Z" />
<path fill="#4b4bb4" d=" M 560.52 100.92 C 563.89 100.91 567.26 100.91 570.64 100.90 C 570.62 102.58 570.62 104.26 570.61 105.94 C 567.33 105.80 564.07 105.39 560.79 105.24 C 560.69 103.80 560.59 102.36 560.52 100.92 Z" />
<path fill="#4b4bb4" d=" M 580.69 100.90 C 581.52 100.89 583.18 100.87 584.02 100.86 C 586.23 100.83 588.44 100.86 590.66 100.90 C 590.64 102.58 590.62 104.26 590.61 105.95 C 587.16 105.92 583.73 105.55 580.33 105.09 C 580.42 104.04 580.60 101.95 580.69 100.90 Z" />
<path fill="#ffff03" d=" M 496.85 103.24 C 498.37 103.24 499.89 103.22 501.42 103.18 L 502.16 101.98 C 501.98 105.26 502.02 108.55 502.03 111.83 C 500.32 111.82 498.62 111.82 496.93 111.82 C 496.83 108.96 496.80 106.10 496.85 103.24 Z" />
<path fill="#4b4bb4" d=" M 496.93 111.82 C 498.62 111.82 500.32 111.82 502.03 111.83 C 502.03 115.17 502.04 118.51 502.04 121.85 C 500.30 121.86 498.57 121.87 496.84 121.87 C 496.79 118.52 496.87 115.17 496.93 111.82 Z" />
<path fill="#4b4bb4" d=" M 405.61 118.83 C 407.02 117.90 408.45 116.97 409.88 116.07 L 409.83 116.26 C 409.70 116.78 409.43 117.83 409.29 118.36 C 408.06 118.53 406.84 118.69 405.61 118.83 Z" />
<path fill="#ffff03" d=" M 409.83 116.26 C 411.94 118.30 413.72 120.64 415.51 122.96 C 414.24 124.14 412.98 125.34 411.72 126.54 C 409.71 123.94 407.64 121.41 405.61 118.83 C 406.84 118.69 408.06 118.53 409.29 118.36 C 409.43 117.83 409.70 116.78 409.83 116.26 Z" />
<path fill="#4b4bb4" d=" M 415.51 122.96 C 417.50 125.61 419.54 128.23 421.63 130.81 C 420.43 132.05 419.23 133.29 418.04 134.53 C 415.98 131.82 413.86 129.17 411.72 126.54 C 412.98 125.34 414.24 124.14 415.51 122.96 Z" />
<path fill="#ffff03" d=" M 421.63 130.81 C 424.04 133.77 426.33 136.83 428.57 139.92 L 427.68 139.20 C 426.70 140.59 425.72 141.97 424.75 143.35 C 422.42 140.47 420.26 137.47 418.04 134.53 C 419.23 133.29 420.43 132.05 421.63 130.81 Z" />
<path fill="#4b4bb4" d=" M 496.92 132.00 C 498.63 132.34 500.34 132.68 502.06 133.02 C 502.05 134.96 502.04 136.89 502.04 138.84 C 500.28 138.83 498.52 138.82 496.77 138.80 C 496.86 136.53 496.91 134.27 496.92 132.00 Z" />
<path fill="#ffff03" d=" M 496.77 138.80 C 498.52 138.82 500.28 138.83 502.04 138.84 C 501.94 144.26 502.41 149.76 501.28 155.11 C 501.46 153.00 501.62 150.89 501.80 148.78 C 500.18 148.78 498.56 148.79 496.95 148.79 C 496.72 151.27 496.51 153.76 495.98 156.20 C 496.64 150.42 497.13 144.62 496.77 138.80 Z" />
<path fill="#4b4bb4" d=" M 424.75 143.35 C 425.72 141.97 426.70 140.59 427.68 139.20 L 428.57 139.92 C 430.85 141.86 433.33 143.54 435.89 145.10 C 434.88 146.48 433.87 147.86 432.86 149.24 C 430.02 147.46 427.31 145.51 424.75 143.35 Z" />
<path fill="#ffff03" d=" M 435.89 145.10 C 438.64 146.45 441.34 147.89 444.11 149.20 L 443.99 149.41 C 443.17 150.87 442.36 152.33 441.55 153.80 C 438.61 152.37 435.73 150.82 432.86 149.24 C 433.87 147.86 434.88 146.48 435.89 145.10 Z" />
<path fill="#4b4bb4" d=" M 496.95 148.79 C 498.56 148.79 500.18 148.78 501.80 148.78 C 501.62 150.89 501.46 153.00 501.28 155.11 C 501.21 155.55 501.09 156.43 501.02 156.87 C 500.81 157.34 500.38 158.28 500.16 158.76 C 498.56 158.82 496.97 158.87 495.38 158.90 L 495.80 157.05 L 495.98 156.20 C 496.51 153.76 496.72 151.27 496.95 148.79 Z" />
<path fill="#4b4bb4" d=" M 441.55 153.80 C 442.36 152.33 443.17 150.87 443.99 149.41 C 445.48 150.03 446.96 150.66 448.46 151.28 C 447.88 152.87 447.29 154.45 446.71 156.04 C 444.99 155.29 443.27 154.54 441.55 153.80 Z" />
<path fill="#ffff03" d=" M 456.84 154.81 C 459.28 155.79 461.73 156.73 464.14 157.78 C 463.55 157.58 462.35 157.20 461.76 157.01 C 461.20 158.56 460.64 160.11 460.12 161.67 C 458.37 161.01 456.62 160.34 454.88 159.67 C 455.53 158.05 456.18 156.43 456.84 154.81 Z" />
<path fill="#ffff03" d=" M 492.68 162.72 C 494.37 161.26 494.86 158.99 495.80 157.05 L 495.38 158.90 C 496.97 158.87 498.56 158.82 500.16 158.76 C 500.38 158.28 500.81 157.34 501.02 156.87 C 500.13 160.52 498.69 164.23 495.77 166.76 C 492.25 169.73 487.20 170.77 482.79 169.40 C 485.31 169.73 487.86 169.69 490.40 169.52 C 490.41 167.85 490.44 166.19 490.47 164.53 C 489.57 164.60 487.77 164.76 486.87 164.83 C 488.86 164.35 491.14 164.25 492.68 162.72 Z" />
<path fill="#4b4bb4" d=" M 461.76 157.01 C 462.35 157.20 463.55 157.58 464.14 157.78 C 465.32 158.16 466.51 158.57 467.66 159.05 C 468.93 159.59 470.20 160.14 471.48 160.70 C 470.77 162.11 470.05 163.52 469.31 164.92 C 468.71 164.74 467.51 164.38 466.91 164.20 C 464.62 163.41 462.39 162.47 460.12 161.67 C 460.64 160.11 461.20 158.56 461.76 157.01 Z" />
<path fill="#ffff03" d=" M 467.66 159.05 C 471.87 160.60 476.27 161.85 480.28 163.80 C 480.38 165.54 480.41 167.28 480.46 169.03 C 475.93 167.44 471.34 166.03 466.91 164.20 C 467.51 164.38 468.71 164.74 469.31 164.92 C 470.05 163.52 470.77 162.11 471.48 160.70 C 470.20 160.14 468.93 159.59 467.66 159.05 Z" />
<path fill="#4b4bb4" d=" M 480.28 163.80 C 482.46 164.22 484.63 164.82 486.87 164.83 C 487.77 164.76 489.57 164.60 490.47 164.53 C 490.44 166.19 490.41 167.85 490.40 169.52 C 487.86 169.69 485.31 169.73 482.79 169.40 C 482.21 169.30 481.04 169.12 480.46 169.03 C 480.41 167.28 480.38 165.54 480.28 163.80 Z" />
</svg>
