<?xml version="1.0" encoding="UTF-8" ?>
<!DOCTYPE svg PUBLIC "-//W3C//DTD SVG 1.1//EN" "http://www.w3.org/Graphics/SVG/1.1/DTD/svg11.dtd">
<svg width="758pt" height="224pt" viewBox="0 0 758 224" version="1.1" xmlns="http://www.w3.org/2000/svg">
<path fill="#ffffff" d=" M 0.00 0.00 L 28.61 0.00 C 28.36 8.31 28.78 16.62 28.98 24.93 C 28.98 34.43 31.20 43.72 32.29 53.11 C 32.98 60.65 36.87 67.31 39.42 74.31 C 40.23 73.70 41.05 73.10 41.86 72.49 C 42.97 71.66 44.08 70.84 45.20 70.03 C 46.03 69.43 46.86 68.84 47.69 68.26 C 44.95 61.34 42.44 54.21 41.67 46.77 C 39.30 31.31 38.46 15.62 39.07 0.00 L 277.82 0.00 C 279.52 4.17 280.34 8.66 282.28 12.72 C 285.64 17.04 289.75 20.91 294.78 23.20 C 300.26 26.69 306.87 27.11 313.11 28.18 C 319.40 28.62 325.71 28.29 332.02 28.49 C 336.59 29.01 340.00 25.34 344.18 24.22 C 346.36 23.78 348.60 23.63 350.81 23.38 C 351.85 25.47 352.89 27.56 353.93 29.65 C 352.87 32.32 352.05 35.11 350.67 37.64 C 348.68 39.97 346.07 41.63 343.72 43.55 C 344.26 44.07 345.35 45.11 345.89 45.63 C 347.40 47.14 348.79 48.78 350.06 50.51 C 350.49 51.12 351.35 52.36 351.78 52.97 C 354.85 50.36 358.52 48.34 361.08 45.18 C 363.33 40.93 365.57 36.62 367.29 32.12 C 367.45 27.88 367.38 23.58 366.75 19.39 C 364.92 15.67 362.85 12.01 360.37 8.68 C 355.10 4.01 348.21 0.50 341.00 1.04 C 334.61 1.44 328.11 0.70 321.80 1.79 C 314.62 4.49 307.39 7.12 299.80 8.46 C 298.19 7.23 296.59 5.99 294.98 4.76 C 294.87 3.17 294.76 1.59 294.65 0.00 L 544.93 0.00 C 545.02 4.69 544.76 9.39 545.17 14.07 C 546.42 17.80 549.87 20.81 549.46 25.02 C 549.34 27.82 549.95 30.89 548.43 33.41 C 547.24 35.68 545.88 37.86 544.59 40.07 C 544.89 43.61 545.20 47.16 545.47 50.71 C 547.71 50.83 549.95 50.96 552.20 51.13 C 552.21 51.85 552.22 53.30 552.23 54.02 C 549.50 53.92 546.78 53.80 544.06 53.69 C 543.69 64.06 543.30 74.44 542.94 84.81 C 540.05 85.13 537.17 85.46 534.29 85.79 C 534.29 88.21 534.29 90.63 534.29 93.06 C 535.04 93.06 536.55 93.07 537.30 93.07 C 553.41 93.11 569.52 93.12 585.64 93.17 C 586.37 93.15 587.83 93.12 588.56 93.10 C 591.16 62.06 593.75 31.03 596.43 0.00 L 758.00 0.00 L 758.00 17.51 C 755.57 19.95 753.29 22.53 751.45 25.45 C 747.79 31.03 743.22 35.96 739.62 41.58 C 736.36 49.19 733.85 57.11 730.79 64.81 C 726.91 73.71 728.87 83.59 728.82 92.95 C 728.61 100.59 732.82 107.23 735.97 113.88 C 737.43 116.36 736.59 119.29 736.46 121.97 C 735.43 130.93 735.38 140.02 733.37 148.84 C 730.05 168.99 722.19 187.97 714.82 206.90 C 709.94 207.82 705.06 208.74 700.18 209.65 C 700.17 211.16 700.16 212.67 700.17 214.19 C 695.05 215.57 689.93 216.96 684.82 218.34 C 683.99 216.68 683.16 215.03 682.34 213.38 C 669.78 216.66 657.31 220.23 644.89 224.00 L 562.62 224.00 C 562.91 221.48 563.20 218.97 563.50 216.46 C 562.52 216.09 561.54 215.73 560.57 215.37 C 546.67 210.24 532.75 205.16 518.88 199.94 C 516.39 198.73 513.68 199.67 511.10 199.86 C 505.55 200.69 499.93 200.30 494.35 200.19 C 493.06 201.62 491.96 203.27 490.39 204.40 C 488.64 204.39 486.92 204.23 485.19 204.11 C 483.01 201.16 481.89 197.71 482.39 194.01 C 478.42 193.83 474.45 193.61 470.48 193.41 C 470.10 200.81 471.92 208.67 476.73 214.45 C 486.42 215.47 496.09 216.59 505.78 217.66 C 505.66 219.77 505.55 221.88 505.44 224.00 L 246.71 224.00 C 246.60 220.79 246.51 217.58 246.40 214.37 C 244.17 214.34 241.95 214.33 239.72 214.32 C 239.68 210.96 239.64 207.61 239.59 204.26 C 243.53 204.26 247.48 204.32 251.44 204.35 C 252.09 202.03 252.81 199.73 253.84 197.55 C 250.80 194.64 247.78 191.70 244.75 188.78 C 251.09 181.72 257.42 174.65 263.77 167.59 C 266.39 169.04 269.03 170.46 271.67 171.89 C 273.89 167.40 277.63 163.33 277.77 158.08 C 279.09 143.38 280.53 128.69 281.87 113.98 C 281.94 109.79 285.96 107.39 287.75 103.94 C 289.13 99.39 286.34 93.83 289.77 89.85 C 293.42 84.85 296.38 79.30 300.37 74.57 C 313.58 67.81 327.89 63.72 341.83 58.77 C 341.33 58.18 340.32 56.99 339.82 56.39 C 338.38 54.74 336.85 53.19 335.25 51.70 C 334.39 50.93 333.54 50.16 332.69 49.40 C 325.85 51.54 318.73 52.98 312.28 56.22 C 302.31 61.02 292.16 65.50 282.24 70.40 C 279.05 73.25 277.17 77.33 274.93 80.93 C 269.26 94.58 264.85 108.70 261.20 123.01 C 260.54 126.87 257.64 129.66 256.00 133.06 C 254.23 139.67 253.98 146.63 252.08 153.19 C 250.01 156.24 247.21 158.70 244.80 161.47 C 239.49 161.54 234.18 161.33 228.88 161.44 C 227.65 161.27 226.87 162.35 226.04 163.04 C 222.85 166.18 219.74 169.41 216.57 172.57 C 213.76 172.92 210.94 173.26 208.13 173.59 C 206.57 171.89 205.00 170.20 203.42 168.52 C 202.60 161.47 202.91 154.38 203.07 147.31 C 201.14 147.26 199.21 147.21 197.28 147.16 C 200.05 138.49 203.34 129.97 205.46 121.11 C 207.37 113.73 209.28 106.35 211.24 98.98 C 212.91 93.11 211.82 86.96 212.01 80.96 C 212.18 75.38 211.47 69.73 209.52 64.48 C 207.15 61.52 204.25 59.05 201.62 56.32 C 198.21 52.59 192.81 51.74 188.00 51.79 C 170.31 52.24 152.61 52.27 134.96 53.66 C 127.55 54.18 119.49 53.70 113.06 58.07 C 104.42 65.71 96.23 73.88 87.51 81.44 C 82.17 83.13 76.44 83.57 70.91 84.44 C 66.57 83.93 62.37 82.58 58.14 81.51 C 56.25 81.11 55.11 79.43 53.72 78.25 C 53.12 78.71 51.90 79.62 51.30 80.08 C 50.01 81.02 48.71 81.95 47.43 82.89 C 46.65 83.47 45.87 84.06 45.10 84.65 C 48.62 88.52 52.81 92.33 58.08 93.46 C 61.96 94.34 65.84 95.90 69.89 95.35 C 76.43 94.60 83.06 94.54 89.54 93.43 C 94.88 90.72 100.64 88.20 104.49 83.42 C 109.81 77.48 115.52 71.90 121.15 66.24 C 144.25 63.44 167.58 63.61 190.80 62.88 C 193.25 65.44 196.06 67.68 198.16 70.53 C 199.10 73.59 199.36 76.81 199.94 79.95 C 201.20 85.67 199.56 91.44 198.79 97.12 C 193.82 119.58 184.05 140.91 181.57 163.93 C 181.31 170.60 180.78 177.29 180.95 183.97 C 182.77 197.52 184.87 211.17 189.77 224.00 L 0.00 224.00 L 0.00 0.00 Z" />
<path fill="#010101" d=" M 28.61 0.00 L 31.61 0.00 C 31.38 9.69 31.85 19.38 32.12 29.06 C 32.60 36.92 34.27 44.64 35.19 52.46 C 35.90 59.57 39.43 65.89 41.86 72.49 C 41.05 73.10 40.23 73.70 39.42 74.31 C 36.87 67.31 32.98 60.65 32.29 53.11 C 31.20 43.72 28.98 34.43 28.98 24.93 C 28.78 16.62 28.36 8.31 28.61 0.00 Z" />
<path fill="#4286f4" d=" M 31.61 0.00 L 36.07 0.00 C 35.45 15.67 36.31 31.41 38.68 46.92 C 39.52 54.93 42.27 62.58 45.20 70.03 C 44.08 70.84 42.97 71.66 41.86 72.49 C 39.43 65.89 35.90 59.57 35.19 52.46 C 34.27 44.64 32.60 36.92 32.12 29.06 C 31.85 19.38 31.38 9.69 31.61 0.00 Z" />
<path fill="#010101" d=" M 36.07 0.00 L 39.07 0.00 C 38.46 15.62 39.30 31.31 41.67 46.77 C 42.44 54.21 44.95 61.34 47.69 68.26 C 46.86 68.84 46.03 69.43 45.20 70.03 C 42.27 62.58 39.52 54.93 38.68 46.92 C 36.31 31.41 35.45 15.67 36.07 0.00 Z" />
<path fill="#010101" d=" M 277.82 0.00 L 280.93 0.00 C 282.90 4.86 283.41 10.65 287.65 14.25 C 295.55 22.87 307.75 25.34 318.97 25.41 C 323.96 25.29 328.97 25.69 333.95 25.34 C 337.81 24.43 340.97 21.61 344.93 21.01 C 347.69 20.38 350.55 20.61 353.29 21.24 C 354.43 24.04 356.28 26.67 356.68 29.71 C 356.06 33.06 354.79 36.31 353.18 39.31 C 351.27 41.94 348.37 43.61 345.89 45.63 C 345.35 45.11 344.26 44.07 343.72 43.55 C 346.07 41.63 348.68 39.97 350.67 37.64 C 352.05 35.11 352.87 32.32 353.93 29.65 C 352.89 27.56 351.85 25.47 350.81 23.38 C 348.60 23.63 346.36 23.78 344.18 24.22 C 340.00 25.34 336.59 29.01 332.02 28.49 C 325.71 28.29 319.40 28.62 313.11 28.18 C 306.87 27.11 300.26 26.69 294.78 23.20 C 289.75 20.91 285.64 17.04 282.28 12.72 C 280.34 8.66 279.52 4.17 277.82 0.00 Z" />
<path fill="#4286f4" d=" M 280.93 0.00 L 291.50 0.00 C 291.97 2.70 291.55 6.07 294.04 7.90 C 295.97 9.50 298.21 11.61 300.94 11.11 C 307.40 10.15 313.63 8.08 319.67 5.64 C 324.20 3.70 329.21 4.35 333.99 4.17 C 339.66 4.19 345.71 3.20 350.94 5.99 C 359.45 9.55 365.09 18.84 364.39 28.02 C 364.80 32.77 361.89 36.81 360.01 40.94 C 358.08 45.34 353.56 47.55 350.06 50.51 C 348.79 48.78 347.40 47.14 345.89 45.63 C 348.37 43.61 351.27 41.94 353.18 39.31 C 354.79 36.31 356.06 33.06 356.68 29.71 C 356.28 26.67 354.43 24.04 353.29 21.24 C 350.55 20.61 347.69 20.38 344.93 21.01 C 340.97 21.61 337.81 24.43 333.95 25.34 C 328.97 25.69 323.96 25.29 318.97 25.41 C 307.75 25.34 295.55 22.87 287.65 14.25 C 283.41 10.65 282.90 4.86 280.93 0.00 Z" />
<path fill="#010101" d=" M 291.50 0.00 L 294.65 0.00 C 294.76 1.59 294.87 3.17 294.98 4.76 C 296.59 5.99 298.19 7.23 299.80 8.46 C 307.39 7.12 314.62 4.49 321.80 1.79 C 328.11 0.70 334.61 1.44 341.00 1.04 C 348.21 0.50 355.10 4.01 360.37 8.68 C 362.85 12.01 364.92 15.67 366.75 19.39 C 367.38 23.58 367.45 27.88 367.29 32.12 C 365.57 36.62 363.33 40.93 361.08 45.18 C 358.52 48.34 354.85 50.36 351.78 52.97 C 351.35 52.36 350.49 51.12 350.06 50.51 C 353.56 47.55 358.08 45.34 360.01 40.94 C 361.89 36.81 364.80 32.77 364.39 28.02 C 365.09 18.84 359.45 9.55 350.94 5.99 C 345.71 3.20 339.66 4.19 333.99 4.17 C 329.21 4.35 324.20 3.70 319.67 5.64 C 313.63 8.08 307.40 10.15 300.94 11.11 C 298.21 11.61 295.97 9.50 294.04 7.90 C 291.55 6.07 291.97 2.70 291.50 0.00 Z" />
<path fill="#010101" d=" M 544.93 0.00 L 547.95 0.00 C 547.95 3.67 547.86 7.34 548.00 11.01 C 547.84 15.20 551.49 18.16 552.23 22.11 C 552.85 27.34 552.94 33.08 549.54 37.46 C 547.17 40.40 547.90 44.21 548.11 47.68 C 550.21 47.90 552.37 47.93 554.41 48.58 C 555.37 51.02 556.09 54.70 553.49 56.38 C 551.44 57.22 549.11 56.83 546.95 57.00 C 546.67 64.67 546.37 72.33 546.15 80.00 C 545.98 82.33 546.08 84.82 544.96 86.94 C 542.56 88.10 539.82 88.10 537.24 88.49 C 537.26 90.02 537.28 91.54 537.30 93.07 C 536.55 93.07 535.04 93.06 534.29 93.06 C 534.29 90.63 534.29 88.21 534.29 85.79 C 537.17 85.46 540.05 85.13 542.94 84.81 C 543.30 74.44 543.69 64.06 544.06 53.69 C 546.78 53.80 549.50 53.92 552.23 54.02 C 552.22 53.30 552.21 51.85 552.20 51.13 C 549.95 50.96 547.71 50.83 545.47 50.71 C 545.20 47.16 544.89 43.61 544.59 40.07 C 545.88 37.86 547.24 35.68 548.43 33.41 C 549.95 30.89 549.34 27.82 549.46 25.02 C 549.87 20.81 546.42 17.80 545.17 14.07 C 544.76 9.39 545.02 4.69 544.93 0.00 Z" />
<path fill="#4286f4" d=" M 547.95 0.00 L 593.42 0.00 C 590.80 31.06 588.04 62.10 585.64 93.17 C 569.52 93.12 553.41 93.11 537.30 93.07 C 537.28 91.54 537.26 90.02 537.24 88.49 C 539.82 88.10 542.56 88.10 544.96 86.94 C 546.08 84.82 545.98 82.33 546.15 80.00 C 546.37 72.33 546.67 64.67 546.95 57.00 C 549.11 56.83 551.44 57.22 553.49 56.38 C 556.09 54.70 555.37 51.02 554.41 48.58 C 552.37 47.93 550.21 47.90 548.11 47.68 C 547.90 44.21 547.17 40.40 549.54 37.46 C 552.94 33.08 552.85 27.34 552.23 22.11 C 551.49 18.16 547.84 15.20 548.00 11.01 C 547.86 7.34 547.95 3.67 547.95 0.00 Z" />
<path fill="#010101" d=" M 593.42 0.00 L 596.43 0.00 C 593.75 31.03 591.16 62.06 588.56 93.10 C 587.83 93.12 586.37 93.15 585.64 93.17 C 588.04 62.10 590.80 31.06 593.42 0.00 Z" />
<path fill="#010101" d=" M 655.48 16.49 C 657.51 15.62 659.90 14.51 661.99 15.90 C 666.45 18.47 671.01 20.89 675.33 23.70 C 677.67 25.76 676.64 29.06 675.54 31.49 C 672.46 33.52 668.87 32.67 666.16 30.45 C 664.59 29.50 663.00 28.59 661.40 27.71 C 659.34 26.41 656.93 25.52 655.22 23.76 C 653.38 21.62 654.51 18.75 655.48 16.49 Z" />
<path fill="#ffffff" d=" M 658.23 18.40 C 659.36 17.26 660.86 18.61 661.98 19.09 C 665.90 21.51 670.12 23.47 673.83 26.21 C 674.78 28.22 672.43 31.10 670.37 29.59 C 666.32 27.39 662.32 25.06 658.37 22.68 C 656.48 22.02 656.63 19.31 658.23 18.40 Z" />
<path fill="#010101" d=" M 751.45 25.45 C 753.29 22.53 755.57 19.95 758.00 17.51 L 758.00 21.36 C 753.25 28.70 747.59 35.39 742.59 42.55 C 739.10 49.74 736.97 57.51 733.91 64.89 C 729.82 74.08 731.89 84.32 731.87 94.01 C 731.76 102.49 738.56 108.93 739.79 117.00 C 738.84 128.34 738.42 139.82 735.96 150.98 C 732.77 169.65 725.57 187.29 718.84 204.89 C 718.14 206.41 717.70 208.18 716.41 209.32 C 712.26 210.74 707.84 211.13 703.56 212.02 C 702.84 213.72 703.22 216.58 700.89 216.97 C 695.66 218.52 690.40 220.16 685.02 221.06 C 682.48 221.45 681.83 218.41 680.51 216.92 C 672.04 219.14 663.62 221.50 655.23 224.00 L 644.89 224.00 C 657.31 220.23 669.78 216.66 682.34 213.38 C 683.16 215.03 683.99 216.68 684.82 218.34 C 689.93 216.96 695.05 215.57 700.17 214.19 C 700.16 212.67 700.17 211.16 700.18 209.65 C 705.06 208.74 709.94 207.82 714.82 206.90 C 722.19 187.97 730.05 168.99 733.37 148.84 C 735.38 140.02 735.43 130.93 736.46 121.97 C 736.59 119.29 737.43 116.36 735.97 113.88 C 732.82 107.23 728.61 100.59 728.82 92.95 C 728.87 83.59 726.91 73.71 730.79 64.81 C 733.85 57.11 736.36 49.19 739.62 41.58 C 743.22 35.96 747.79 31.03 751.45 25.45 Z" />
<path fill="#4286f4" d=" M 742.59 42.55 C 747.59 35.39 753.25 28.70 758.00 21.36 L 758.00 159.92 C 752.37 164.06 749.44 170.71 747.33 177.16 C 744.50 186.71 742.37 196.45 739.76 206.06 C 738.44 210.60 738.84 215.35 739.03 220.01 C 737.67 220.02 736.31 220.03 734.97 220.05 C 733.02 218.52 731.13 216.86 728.88 215.80 C 724.62 216.49 722.78 221.12 720.10 224.00 L 655.23 224.00 C 663.62 221.50 672.04 219.14 680.51 216.92 C 681.83 218.41 682.48 221.45 685.02 221.06 C 690.40 220.16 695.66 218.52 700.89 216.97 C 703.22 216.58 702.84 213.72 703.56 212.02 C 707.84 211.13 712.26 210.74 716.41 209.32 C 717.70 208.18 718.14 206.41 718.84 204.89 C 725.57 187.29 732.77 169.65 735.96 150.98 C 738.42 139.82 738.84 128.34 739.79 117.00 C 738.56 108.93 731.76 102.49 731.87 94.01 C 731.89 84.32 729.82 74.08 733.91 64.89 C 736.97 57.51 739.10 49.74 742.59 42.55 Z" />
<path fill="#ababab" d=" M 661.40 27.71 C 663.00 28.59 664.59 29.50 666.16 30.45 C 664.04 33.83 661.06 36.85 660.30 40.90 C 658.44 39.86 656.60 38.79 654.79 37.69 C 656.97 34.35 659.19 31.03 661.40 27.71 Z" />
<path fill="#010101" d=" M 643.47 35.50 C 644.97 34.99 646.43 34.05 648.09 34.22 C 650.56 34.83 652.60 36.45 654.79 37.69 C 656.60 38.79 658.44 39.86 660.30 40.90 C 664.74 42.02 665.84 46.93 663.53 50.51 C 660.39 52.57 656.75 51.61 654.03 49.34 C 652.22 48.23 650.39 47.17 648.54 46.14 C 646.50 44.75 643.55 44.14 642.56 41.63 C 641.63 39.56 642.76 37.43 643.47 35.50 Z" />
<path fill="#ababab" d=" M 110.98 37.31 C 177.00 37.32 243.01 36.34 309.03 36.31 C 317.60 36.55 326.87 36.00 334.57 40.42 C 340.34 44.15 345.53 48.91 349.25 54.72 C 363.55 75.16 377.48 95.90 392.77 115.62 C 391.12 117.04 390.18 119.04 390.09 121.23 C 375.53 102.48 362.33 82.71 348.57 63.36 C 343.65 55.89 338.18 48.09 329.88 44.13 C 322.28 41.27 313.97 41.90 306.00 41.71 C 286.35 41.83 266.69 41.55 247.05 42.14 C 202.71 42.16 158.37 42.80 114.02 42.69 C 108.61 42.72 102.94 42.59 97.89 44.83 C 93.18 46.91 89.03 49.98 84.76 52.80 C 79.95 56.12 74.93 59.13 70.46 62.92 C 69.28 61.21 68.16 59.47 67.11 57.69 C 77.29 52.37 85.79 44.13 96.43 39.56 C 101.03 37.67 106.06 37.34 110.98 37.31 Z" />
<path fill="#ffffff" d=" M 646.28 37.36 C 647.45 36.29 648.89 37.64 650.02 38.11 C 653.73 40.35 657.62 42.32 661.23 44.72 C 663.47 46.28 660.58 50.43 658.33 48.57 C 654.27 46.36 650.28 44.03 646.32 41.66 C 644.45 40.96 644.66 38.23 646.28 37.36 Z" />
<path fill="#ababab" d=" M 648.54 46.14 C 650.39 47.17 652.22 48.23 654.03 49.34 C 651.39 52.74 649.06 56.35 646.85 60.03 C 644.90 58.95 642.94 57.88 641.04 56.72 C 644.98 54.67 646.82 50.04 648.54 46.14 Z" />
<path fill="#010101" d=" M 312.28 56.22 C 318.73 52.98 325.85 51.54 332.69 49.40 C 333.54 50.16 334.39 50.93 335.25 51.70 C 327.33 54.17 319.11 55.90 311.71 59.75 C 302.54 64.34 292.98 68.19 283.93 73.01 C 277.47 79.52 275.19 88.68 272.03 97.01 C 268.46 106.25 266.37 115.96 263.55 125.44 C 262.59 128.76 260.20 131.38 258.81 134.50 C 256.79 141.08 257.00 148.22 254.65 154.70 C 252.14 158.14 249.40 161.62 245.90 164.09 C 241.29 164.97 236.57 164.26 231.92 164.39 C 230.71 164.48 229.30 164.26 228.36 165.20 C 224.43 168.20 221.86 172.83 217.46 175.20 C 214.12 176.08 210.52 176.78 207.09 176.16 C 203.92 174.18 200.70 171.16 200.32 167.23 C 199.60 161.71 199.89 156.12 200.01 150.57 C 198.22 149.88 195.23 150.34 194.84 147.89 C 194.21 145.07 195.96 142.32 196.64 139.63 C 201.44 126.75 204.33 113.28 207.92 100.04 C 210.01 93.22 208.82 86.03 209.00 79.03 C 208.76 73.68 208.90 67.29 204.56 63.42 C 200.77 59.60 196.85 54.77 190.92 54.89 C 168.31 54.95 145.67 55.65 123.13 57.48 C 118.94 58.04 114.96 59.92 112.00 62.96 C 105.80 69.13 99.07 74.74 92.86 80.89 C 90.94 82.74 88.83 84.66 86.07 85.03 C 81.06 85.92 76.04 86.92 70.96 87.39 C 66.33 86.96 61.87 85.46 57.36 84.37 C 54.78 83.89 53.06 81.82 51.30 80.08 C 51.90 79.62 53.12 78.71 53.72 78.25 C 55.11 79.43 56.25 81.11 58.14 81.51 C 62.37 82.58 66.57 83.93 70.91 84.44 C 76.44 83.57 82.17 83.13 87.51 81.44 C 96.23 73.88 104.42 65.71 113.06 58.07 C 119.49 53.70 127.55 54.18 134.96 53.66 C 152.61 52.27 170.31 52.24 188.00 51.79 C 192.81 51.74 198.21 52.59 201.62 56.32 C 204.25 59.05 207.15 61.52 209.52 64.48 C 211.47 69.73 212.18 75.38 212.01 80.96 C 211.82 86.96 212.91 93.11 211.24 98.98 C 209.28 106.35 207.37 113.73 205.46 121.11 C 203.34 129.97 200.05 138.49 197.28 147.16 C 199.21 147.21 201.14 147.26 203.07 147.31 C 202.91 154.38 202.60 161.47 203.42 168.52 C 205.00 170.20 206.57 171.89 208.13 173.59 C 210.94 173.26 213.76 172.92 216.57 172.57 C 219.74 169.41 222.85 166.18 226.04 163.04 C 226.87 162.35 227.65 161.27 228.88 161.44 C 234.18 161.33 239.49 161.54 244.80 161.47 C 247.21 158.70 250.01 156.24 252.08 153.19 C 253.98 146.63 254.23 139.67 256.00 133.06 C 257.64 129.66 260.54 126.87 261.20 123.01 C 264.85 108.70 269.26 94.58 274.93 80.93 C 277.17 77.33 279.05 73.25 282.24 70.40 C 292.16 65.50 302.31 61.02 312.28 56.22 Z" />
<path fill="#010101" d=" M 527.49 53.85 C 529.72 50.07 536.72 50.32 537.63 54.97 C 537.95 60.60 537.92 66.29 537.65 71.92 C 536.85 76.70 529.58 77.00 527.45 73.02 C 527.15 66.64 527.13 60.23 527.49 53.85 Z" />
<path fill="#010101" d=" M 55.45 56.01 C 56.22 52.70 60.43 51.35 63.31 52.75 C 65.21 53.79 65.97 55.97 67.11 57.69 C 68.16 59.47 69.28 61.21 70.46 62.92 C 71.95 65.33 74.65 67.83 73.55 70.96 C 72.81 74.35 68.47 75.65 65.60 74.21 C 63.75 73.14 63.01 70.99 61.88 69.29 C 60.82 67.50 59.68 65.74 58.50 64.03 C 57.01 61.63 54.35 59.11 55.45 56.01 Z" />
<path fill="#4286f4" d=" M 311.71 59.75 C 319.11 55.90 327.33 54.17 335.25 51.70 C 336.85 53.19 338.38 54.74 339.82 56.39 C 326.24 61.03 312.44 65.20 299.56 71.60 C 296.81 73.15 295.45 76.19 293.69 78.67 C 291.10 82.99 287.77 86.86 285.51 91.37 C 284.54 95.07 285.20 98.98 285.13 102.77 C 282.47 106.14 278.84 109.39 278.85 114.04 C 277.51 128.74 276.10 143.43 274.75 158.13 C 274.50 161.74 272.30 164.75 270.63 167.83 C 268.20 166.64 265.85 164.92 263.07 164.82 C 260.64 166.02 259.02 168.30 257.24 170.26 C 252.56 175.88 247.27 180.98 242.75 186.73 C 241.67 187.75 241.73 189.31 242.66 190.41 C 244.71 193.33 247.56 195.55 250.08 198.03 C 249.78 199.13 249.49 200.24 249.20 201.34 C 245.33 201.53 240.99 200.36 237.48 202.44 C 235.92 206.85 236.35 212.02 237.52 216.52 C 239.48 217.14 241.54 217.29 243.58 217.54 C 243.59 219.69 243.63 221.85 243.67 224.00 L 192.96 224.00 C 187.90 211.20 185.71 197.53 183.99 183.95 C 183.70 169.27 184.86 154.41 189.46 140.37 C 194.17 121.89 202.13 104.08 203.41 84.87 C 203.00 79.62 202.38 74.27 200.79 69.24 C 198.16 65.72 195.06 61.96 191.03 60.11 C 178.99 59.85 166.91 60.54 154.86 60.84 C 143.87 61.44 132.81 61.51 121.91 63.21 C 119.42 63.42 117.72 65.42 116.04 67.04 C 111.46 71.80 106.65 76.33 102.32 81.32 C 98.73 85.58 93.66 88.29 88.62 90.47 C 83.13 91.57 77.47 91.49 71.92 92.19 C 66.82 92.92 61.74 91.61 56.95 90.00 C 53.12 88.66 50.30 85.61 47.43 82.89 C 48.71 81.95 50.01 81.02 51.30 80.08 C 53.06 81.82 54.78 83.89 57.36 84.37 C 61.87 85.46 66.33 86.96 70.96 87.39 C 76.04 86.92 81.06 85.92 86.07 85.03 C 88.83 84.66 90.94 82.74 92.86 80.89 C 99.07 74.74 105.80 69.13 112.00 62.96 C 114.96 59.92 118.94 58.04 123.13 57.48 C 145.67 55.65 168.31 54.95 190.92 54.89 C 196.85 54.77 200.77 59.60 204.56 63.42 C 208.90 67.29 208.76 73.68 209.00 79.03 C 208.82 86.03 210.01 93.22 207.92 100.04 C 204.33 113.28 201.44 126.75 196.64 139.63 C 195.96 142.32 194.21 145.07 194.84 147.89 C 195.23 150.34 198.22 149.88 200.01 150.57 C 199.89 156.12 199.60 161.71 200.32 167.23 C 200.70 171.16 203.92 174.18 207.09 176.16 C 210.52 176.78 214.12 176.08 217.46 175.20 C 221.86 172.83 224.43 168.20 228.36 165.20 C 229.30 164.26 230.71 164.48 231.92 164.39 C 236.57 164.26 241.29 164.97 245.90 164.09 C 249.40 161.62 252.14 158.14 254.65 154.70 C 257.00 148.22 256.79 141.08 258.81 134.50 C 260.20 131.38 262.59 128.76 263.55 125.44 C 266.37 115.96 268.46 106.25 272.03 97.01 C 275.19 88.68 277.47 79.52 283.93 73.01 C 292.98 68.19 302.54 64.34 311.71 59.75 Z" />
<path fill="#ababab" d=" M 526.73 60.22 C 526.98 58.10 527.21 55.97 527.49 53.85 C 527.13 60.23 527.15 66.64 527.45 73.02 C 527.12 70.55 526.96 68.06 526.84 65.57 C 520.99 65.64 514.23 64.38 509.28 68.25 C 504.78 72.10 504.93 78.59 505.22 83.99 C 505.32 88.01 507.35 92.06 510.92 94.07 C 514.58 96.10 518.88 96.25 522.97 96.30 C 549.46 96.16 575.94 96.42 602.43 96.22 C 602.49 95.55 602.60 94.21 602.66 93.54 C 603.18 96.20 603.68 98.86 604.12 101.54 C 576.40 101.90 548.68 101.56 520.97 101.67 C 515.17 101.86 509.60 99.89 504.76 96.80 C 504.75 105.59 504.76 114.37 504.83 123.16 C 502.58 122.75 500.33 122.35 498.10 121.88 C 498.39 121.40 498.98 120.45 499.28 119.97 C 499.61 106.98 499.17 93.95 499.26 80.95 C 499.52 74.63 501.10 67.59 506.42 63.57 C 512.24 59.32 519.91 59.85 526.73 60.22 Z" />
<path fill="#ffffff" d=" M 531.27 54.30 C 532.55 53.49 535.00 54.31 534.91 55.98 C 535.01 61.29 535.19 66.63 534.79 71.93 C 533.58 73.29 531.40 73.32 530.21 71.92 C 529.86 66.33 529.85 60.67 530.21 55.07 C 530.48 54.88 531.01 54.49 531.27 54.30 Z" />
<path fill="#010101" d=" M 631.47 55.49 C 634.64 53.41 638.30 54.40 641.04 56.72 C 642.94 57.88 644.90 58.95 646.85 60.03 C 648.79 61.32 651.55 61.98 652.46 64.36 C 653.34 66.44 652.25 68.55 651.54 70.49 C 648.37 72.62 644.68 71.56 641.94 69.25 C 640.06 68.11 638.13 67.06 636.22 65.99 C 634.25 64.69 631.49 64.01 630.55 61.62 C 629.63 59.55 630.76 57.43 631.47 55.49 Z" />
<path fill="#ffffff" d=" M 59.37 55.44 C 60.42 54.65 62.16 54.90 62.71 56.19 C 65.44 60.17 68.06 64.23 70.57 68.34 C 72.20 70.51 68.37 73.26 66.74 71.37 C 63.96 67.70 61.69 63.68 59.11 59.86 C 57.99 58.57 57.48 56.33 59.37 55.44 Z" />
<path fill="#010101" d=" M 299.56 71.60 C 312.44 65.20 326.24 61.03 339.82 56.39 C 340.32 56.99 341.33 58.18 341.83 58.77 C 327.89 63.72 313.58 67.81 300.37 74.57 C 296.38 79.30 293.42 84.85 289.77 89.85 C 286.34 93.83 289.13 99.39 287.75 103.94 C 285.96 107.39 281.94 109.79 281.87 113.98 C 280.53 128.69 279.09 143.38 277.77 158.08 C 277.63 163.33 273.89 167.40 271.67 171.89 C 269.03 170.46 266.39 169.04 263.77 167.59 C 257.42 174.65 251.09 181.72 244.75 188.78 C 247.78 191.70 250.80 194.64 253.84 197.55 C 252.81 199.73 252.09 202.03 251.44 204.35 C 247.48 204.32 243.53 204.26 239.59 204.26 C 239.64 207.61 239.68 210.96 239.72 214.32 C 241.95 214.33 244.17 214.34 246.40 214.37 C 246.51 217.58 246.60 220.79 246.71 224.00 L 243.67 224.00 C 243.63 221.85 243.59 219.69 243.58 217.54 C 241.54 217.29 239.48 217.14 237.52 216.52 C 236.35 212.02 235.92 206.85 237.48 202.44 C 240.99 200.36 245.33 201.53 249.20 201.34 C 249.49 200.24 249.78 199.13 250.08 198.03 C 247.56 195.55 244.71 193.33 242.66 190.41 C 241.73 189.31 241.67 187.75 242.75 186.73 C 247.27 180.98 252.56 175.88 257.24 170.26 C 259.02 168.30 260.64 166.02 263.07 164.82 C 265.85 164.92 268.20 166.64 270.63 167.83 C 272.30 164.75 274.50 161.74 274.75 158.13 C 276.10 143.43 277.51 128.74 278.85 114.04 C 278.84 109.39 282.47 106.14 285.13 102.77 C 285.20 98.98 284.54 95.07 285.51 91.37 C 287.77 86.86 291.10 82.99 293.69 78.67 C 295.45 76.19 296.81 73.15 299.56 71.60 Z" />
<path fill="#ffffff" d=" M 634.23 57.39 C 635.40 56.26 636.90 57.64 638.05 58.12 C 641.94 60.53 646.13 62.47 649.82 65.19 C 650.81 67.21 648.42 70.10 646.36 68.59 C 642.29 66.37 638.28 64.04 634.32 61.65 C 632.46 60.97 632.66 58.30 634.23 57.39 Z" />
<path fill="#010101" d=" M 154.86 60.84 C 166.91 60.54 178.99 59.85 191.03 60.11 C 195.06 61.96 198.16 65.72 200.79 69.24 C 202.38 74.27 203.00 79.62 203.41 84.87 C 202.13 104.08 194.17 121.89 189.46 140.37 C 184.86 154.41 183.70 169.27 183.99 183.95 C 185.71 197.53 187.90 211.20 192.96 224.00 L 189.77 224.00 C 184.87 211.17 182.77 197.52 180.95 183.97 C 180.78 177.29 181.31 170.60 181.57 163.93 C 184.05 140.91 193.82 119.58 198.79 97.12 C 199.56 91.44 201.20 85.67 199.94 79.95 C 199.36 76.81 199.10 73.59 198.16 70.53 C 196.06 67.68 193.25 65.44 190.80 62.88 C 167.58 63.61 144.25 63.44 121.15 66.24 C 115.52 71.90 109.81 77.48 104.49 83.42 C 100.64 88.20 94.88 90.72 89.54 93.43 C 83.06 94.54 76.43 94.60 69.89 95.35 C 65.84 95.90 61.96 94.34 58.08 93.46 C 52.81 92.33 48.62 88.52 45.10 84.65 C 45.87 84.06 46.65 83.47 47.43 82.89 C 50.30 85.61 53.12 88.66 56.95 90.00 C 61.74 91.61 66.82 92.92 71.92 92.19 C 77.47 91.49 83.13 91.57 88.62 90.47 C 93.66 88.29 98.73 85.58 102.32 81.32 C 106.65 76.33 111.46 71.80 116.04 67.04 C 117.72 65.42 119.42 63.42 121.91 63.21 C 132.81 61.51 143.87 61.44 154.86 60.84 Z" />
<path fill="#ababab" d=" M 58.50 64.03 C 59.68 65.74 60.82 67.50 61.88 69.29 C 60.38 69.92 59.03 70.83 57.61 71.61 C 49.62 77.44 41.61 83.25 33.67 89.15 L 32.96 89.30 L 32.08 89.34 C 31.21 88.09 30.46 86.77 29.67 85.47 C 39.01 77.96 49.14 71.50 58.50 64.03 Z" />
<path fill="#ababab" d=" M 636.22 65.99 C 638.13 67.06 640.06 68.11 641.94 69.25 C 637.68 71.49 636.45 76.81 633.33 80.27 C 631.76 79.39 630.19 78.51 628.66 77.60 C 631.19 73.74 633.78 69.91 636.22 65.99 Z" />
<path fill="#010101" d=" M 617.47 75.50 C 619.21 74.91 621.06 73.65 622.95 74.46 C 624.98 75.24 626.77 76.52 628.66 77.60 C 630.19 78.51 631.76 79.39 633.33 80.27 C 635.13 81.47 637.66 82.14 638.47 84.38 C 639.34 86.45 638.24 88.56 637.54 90.49 C 634.37 92.61 630.68 91.56 627.93 89.27 C 626.13 88.17 624.29 87.13 622.45 86.11 C 620.43 84.74 617.53 84.10 616.55 81.63 C 615.63 79.55 616.76 77.44 617.47 75.50 Z" />
<path fill="#ffffff" d=" M 620.35 77.31 C 621.52 76.36 622.89 77.63 623.99 78.09 C 627.71 80.34 631.61 82.31 635.23 84.72 C 637.44 86.22 634.69 90.31 632.41 88.62 C 628.32 86.39 624.29 84.04 620.30 81.64 C 618.40 80.92 618.69 78.16 620.35 77.31 Z" />
<path fill="#010101" d=" M 17.44 83.04 C 18.31 79.21 23.80 77.94 26.50 80.63 C 27.71 82.13 28.62 83.85 29.67 85.47 C 30.46 86.77 31.21 88.09 32.08 89.34 C 33.70 91.94 36.63 94.61 35.55 97.97 C 34.71 101.94 28.60 103.20 26.21 99.97 C 23.76 96.58 21.69 92.94 19.36 89.47 C 18.19 87.57 16.51 85.41 17.44 83.04 Z" />
<path fill="#ffffff" d=" M 21.33 82.46 C 22.43 81.59 24.23 81.97 24.80 83.29 C 27.47 87.25 30.09 91.26 32.58 95.34 C 34.18 97.49 30.38 100.32 28.73 98.35 C 25.74 94.30 23.12 89.97 20.45 85.70 C 19.55 84.60 20.20 83.07 21.33 82.46 Z" />
<path fill="#010101" d=" M 603.48 86.45 C 605.75 85.51 608.54 84.46 610.81 85.99 C 613.55 87.52 613.36 91.07 613.93 93.73 C 614.62 98.12 615.49 102.51 615.57 106.97 C 613.76 109.57 609.89 110.74 607.14 108.97 C 604.51 107.49 604.61 104.11 604.12 101.54 C 603.68 98.86 603.18 96.20 602.66 93.54 C 601.92 91.12 602.30 88.66 603.48 86.45 Z" />
<path fill="#ababab" d=" M 622.45 86.11 C 624.29 87.13 626.13 88.17 627.93 89.27 C 624.16 92.92 620.44 96.78 615.55 98.95 C 615.93 101.61 616.10 104.31 615.57 106.97 C 615.49 102.51 614.62 98.12 613.93 93.73 C 617.34 91.89 620.38 89.42 622.45 86.11 Z" />
<path fill="#ffffff" d=" M 606.30 88.41 C 607.62 87.55 609.93 88.03 610.20 89.78 C 611.19 94.48 611.97 99.23 612.75 103.96 C 613.45 106.01 610.94 107.55 609.19 106.85 C 607.58 106.33 607.67 104.41 607.32 103.08 C 606.67 99.07 605.82 95.10 605.25 91.09 C 604.94 89.92 605.29 89.03 606.30 88.41 Z" />
<path fill="#010101" d=" M 534.23 104.73 C 535.23 104.72 536.22 104.72 537.23 104.72 C 537.10 109.74 537.66 114.83 536.77 119.80 C 534.96 122.49 531.12 121.47 528.39 121.94 C 528.21 124.78 528.31 127.71 527.38 130.43 C 525.23 131.10 522.96 131.27 520.76 131.63 C 525.35 131.86 530.30 131.35 534.55 133.43 C 535.91 135.86 536.52 139.29 534.53 141.56 C 532.07 142.78 529.16 142.08 526.52 142.21 C 526.49 142.75 526.44 143.81 526.42 144.35 C 528.14 146.02 531.18 147.22 531.17 149.99 C 530.58 152.85 528.46 155.05 526.90 157.42 C 528.23 158.31 529.64 159.12 530.85 160.19 C 531.60 164.04 529.47 167.74 528.54 171.40 C 530.16 172.80 532.39 173.85 533.17 175.99 C 532.27 181.28 529.95 186.19 528.47 191.33 C 527.53 191.00 526.60 190.67 525.68 190.35 C 527.19 185.63 528.77 180.93 530.31 176.22 C 528.51 175.22 526.72 174.21 524.93 173.21 C 526.09 169.37 527.25 165.53 528.40 161.69 C 526.41 160.76 524.42 159.83 522.44 158.91 C 524.43 155.89 526.44 152.89 528.43 149.88 C 526.71 148.50 524.99 147.12 523.27 145.74 C 523.47 143.50 523.67 141.27 523.88 139.03 C 526.89 139.13 529.91 139.23 532.94 139.35 C 532.83 138.36 532.61 136.39 532.49 135.41 C 527.73 134.91 522.97 134.41 518.21 133.91 C 518.60 132.02 518.99 130.13 519.39 128.24 C 521.26 128.19 523.14 128.14 525.02 128.10 C 525.19 125.02 525.34 121.95 525.51 118.87 C 528.39 118.81 531.27 118.74 534.16 118.70 C 534.20 114.04 534.25 109.38 534.23 104.73 Z" />
<path fill="#4286f4" d=" M 537.23 104.72 C 553.10 104.74 568.96 104.79 584.83 104.80 C 584.28 114.92 583.51 125.03 582.69 135.13 C 581.49 145.60 579.66 155.99 578.48 166.47 C 575.05 165.83 571.57 164.51 568.07 165.07 C 566.20 166.20 566.13 168.58 565.79 170.49 C 564.54 181.56 563.28 192.62 561.95 203.67 C 550.77 199.62 539.62 195.46 528.47 191.33 C 529.95 186.19 532.27 181.28 533.17 175.99 C 532.39 173.85 530.16 172.80 528.54 171.40 C 529.47 167.74 531.60 164.04 530.85 160.19 C 529.64 159.12 528.23 158.31 526.90 157.42 C 528.46 155.05 530.58 152.85 531.17 149.99 C 531.18 147.22 528.14 146.02 526.42 144.35 C 526.44 143.81 526.49 142.75 526.52 142.21 C 529.16 142.08 532.07 142.78 534.53 141.56 C 536.52 139.29 535.91 135.86 534.55 133.43 C 530.30 131.35 525.35 131.86 520.76 131.63 C 522.96 131.27 525.23 131.10 527.38 130.43 C 528.31 127.71 528.21 124.78 528.39 121.94 C 531.12 121.47 534.96 122.49 536.77 119.80 C 537.66 114.83 537.10 109.74 537.23 104.72 Z" />
<path fill="#010101" d=" M 584.83 104.80 C 585.58 104.79 587.10 104.78 587.85 104.77 C 586.88 118.58 586.40 132.47 584.24 146.16 C 583.13 154.04 582.01 161.92 580.92 169.81 C 576.99 169.09 573.07 168.36 569.16 167.63 C 567.77 180.01 566.20 192.36 564.92 204.74 C 563.93 204.38 562.94 204.02 561.95 203.67 C 563.28 192.62 564.54 181.56 565.79 170.49 C 566.13 168.58 566.20 166.20 568.07 165.07 C 571.57 164.51 575.05 165.83 578.48 166.47 C 579.66 155.99 581.49 145.60 582.69 135.13 C 583.51 125.03 584.28 114.92 584.83 104.80 Z" />
<path fill="#010101" d=" M 392.77 115.62 C 397.28 113.01 401.41 109.75 406.06 107.41 C 409.12 106.21 411.33 108.88 412.90 111.07 L 412.79 111.74 C 412.71 113.92 411.95 116.00 410.22 117.40 C 406.60 119.62 403.05 121.93 399.48 124.22 C 397.76 125.24 395.80 125.70 393.83 125.83 C 392.00 124.87 390.67 123.20 390.09 121.23 C 390.18 119.04 391.12 117.04 392.77 115.62 Z" />
<path fill="#ffffff" d=" M 406.41 110.39 C 407.70 109.46 409.58 110.60 409.84 112.06 C 410.65 113.78 408.74 114.79 407.61 115.60 C 403.94 117.91 400.37 120.37 396.64 122.58 C 394.13 124.33 391.41 119.54 394.18 118.27 C 398.18 115.54 402.27 112.92 406.41 110.39 Z" />
<path fill="#ababab" d=" M 412.79 111.74 C 417.14 116.92 421.23 122.30 425.37 127.65 C 427.99 130.99 430.20 134.78 433.64 137.36 C 439.16 141.45 445.63 143.91 451.56 147.29 C 450.55 147.69 449.56 148.10 448.58 148.54 C 448.19 149.50 447.80 150.47 447.42 151.43 C 440.02 147.03 431.34 144.10 425.81 137.15 C 420.67 130.52 415.75 123.71 410.22 117.40 C 411.95 116.00 412.71 113.92 412.79 111.74 Z" />
<path fill="#ffffff" d=" M 399.48 124.22 C 403.05 121.93 406.60 119.62 410.22 117.40 C 415.75 123.71 420.67 130.52 425.81 137.15 C 431.34 144.10 440.02 147.03 447.42 151.43 C 446.02 154.87 444.58 158.28 443.31 161.77 C 438.47 159.63 433.52 157.75 428.81 155.35 C 422.36 152.08 417.56 146.50 412.83 141.20 C 408.14 135.73 403.35 130.31 399.48 124.22 Z" />
<path fill="#010101" d=" M 490.47 122.44 C 492.85 121.15 495.52 121.01 498.10 121.88 C 500.33 122.35 502.58 122.75 504.83 123.16 C 507.71 123.91 511.83 123.60 513.29 126.80 C 514.42 129.01 513.40 131.42 512.55 133.53 C 510.79 134.23 508.95 135.20 507.04 134.45 C 504.43 133.94 501.82 133.45 499.20 133.00 C 496.49 132.46 493.60 132.31 491.13 131.01 C 488.38 128.94 489.10 125.11 490.47 122.44 Z" />
<path fill="#ababab" d=" M 393.83 125.83 C 395.80 125.70 397.76 125.24 399.48 124.22 C 403.35 130.31 408.14 135.73 412.83 141.20 C 417.56 146.50 422.36 152.08 428.81 155.35 C 433.52 157.75 438.47 159.63 443.31 161.77 C 442.77 163.44 442.43 165.17 442.28 166.92 C 437.05 165.23 432.08 162.85 427.10 160.57 C 419.94 157.26 414.59 151.26 409.44 145.49 C 404.01 139.14 398.28 132.93 393.83 125.83 Z" />
<path fill="#ffffff" d=" M 493.25 124.40 C 494.59 123.65 496.16 124.54 497.59 124.63 C 501.68 125.54 505.87 126.06 509.91 127.21 C 512.16 128.46 510.57 132.66 508.01 131.81 C 503.33 130.98 498.64 130.08 494.00 129.06 C 491.64 128.92 491.39 125.39 493.25 124.40 Z" />
<path fill="#ababab" d=" M 499.20 133.00 C 501.82 133.45 504.43 133.94 507.04 134.45 C 506.53 134.72 505.51 135.27 505.00 135.54 C 504.35 141.64 505.17 147.90 503.50 153.90 C 502.40 158.78 499.12 163.46 494.20 165.02 C 489.56 166.42 484.61 165.43 480.15 163.87 C 472.38 161.23 464.76 158.17 457.06 155.33 C 457.48 153.59 457.59 151.79 457.63 150.01 C 467.57 152.81 476.82 157.83 486.95 160.04 C 490.96 161.05 495.70 159.31 497.29 155.30 C 500.04 148.23 499.36 140.43 499.20 133.00 Z" />
<path fill="#010101" d=" M 448.58 148.54 C 449.56 148.10 450.55 147.69 451.56 147.29 C 453.88 146.85 456.26 148.17 457.63 150.01 C 457.59 151.79 457.48 153.59 457.06 155.33 C 456.04 158.28 454.75 161.13 453.56 164.01 C 452.81 165.82 452.13 167.66 451.42 169.49 C 450.63 169.82 449.84 170.13 449.05 170.44 C 447.22 171.42 445.31 170.11 443.57 169.58 C 443.10 168.71 442.68 167.82 442.28 166.92 C 442.43 165.17 442.77 163.44 443.31 161.77 C 444.58 158.28 446.02 154.87 447.42 151.43 C 447.80 150.47 448.19 149.50 448.58 148.54 Z" />
<path fill="#ffffff" d=" M 451.16 150.23 C 452.75 149.57 454.50 150.43 455.12 152.00 C 453.64 157.01 451.54 161.84 449.57 166.68 C 448.76 169.41 444.05 167.47 445.15 165.02 C 447.03 160.06 448.60 154.88 451.16 150.23 Z" />
<path fill="#010101" d=" M 747.33 177.16 C 749.44 170.71 752.37 164.06 758.00 159.92 L 758.00 163.09 C 756.26 165.91 754.10 168.48 752.71 171.49 C 749.33 178.65 747.94 186.50 745.88 194.09 C 744.63 199.42 742.95 204.65 741.96 210.03 C 741.60 214.36 742.08 218.71 742.14 223.05 C 740.04 223.01 737.93 222.97 735.86 222.89 C 735.60 223.17 735.07 223.72 734.81 224.00 L 734.31 224.00 C 732.53 221.98 730.44 220.28 728.40 218.55 C 726.84 220.36 725.29 222.17 723.75 223.99 L 728.44 224.00 L 720.10 224.00 C 722.78 221.12 724.62 216.49 728.88 215.80 C 731.13 216.86 733.02 218.52 734.97 220.05 C 736.31 220.03 737.67 220.02 739.03 220.01 C 738.84 215.35 738.44 210.60 739.76 206.06 C 742.37 196.45 744.50 186.71 747.33 177.16 Z" />
<path fill="#ababab" d=" M 451.42 169.49 C 452.13 167.66 452.81 165.82 453.56 164.01 C 453.69 165.58 454.76 166.55 456.21 167.00 C 473.09 173.64 490.04 180.13 507.03 186.51 C 506.54 188.28 506.40 190.13 506.45 191.97 C 492.96 187.20 479.67 181.90 466.31 176.78 C 460.56 174.65 455.02 171.95 449.05 170.44 C 449.84 170.13 450.63 169.82 451.42 169.49 Z" />
<path fill="#ffffff" d=" M 752.71 171.49 C 754.10 168.48 756.26 165.91 758.00 163.09 L 758.00 224.00 L 734.81 224.00 C 735.07 223.72 735.60 223.17 735.86 222.89 C 737.93 222.97 740.04 223.01 742.14 223.05 C 742.08 218.71 741.60 214.36 741.96 210.03 C 742.95 204.65 744.63 199.42 745.88 194.09 C 747.94 186.50 749.33 178.65 752.71 171.49 Z" />
<path fill="#010101" d=" M 512.54 172.45 C 515.06 170.93 517.96 171.08 520.52 172.45 C 523.68 177.66 519.08 182.93 517.66 187.96 C 516.73 190.38 515.64 192.79 513.82 194.67 C 511.07 195.21 508.03 194.39 506.45 191.97 C 506.40 190.13 506.54 188.28 507.03 186.51 C 508.78 181.79 510.72 177.15 512.54 172.45 Z" />
<path fill="#ffffff" d=" M 515.20 174.21 C 516.94 173.37 519.81 175.05 518.84 177.10 C 517.24 181.67 515.46 186.19 513.59 190.66 C 512.75 193.42 507.99 191.46 509.17 188.96 C 511.07 184.02 512.58 178.81 515.20 174.21 Z" />
<path fill="#ababab" d=" M 513.82 194.67 C 515.64 192.79 516.73 190.38 517.66 187.96 C 517.66 188.56 517.67 189.75 517.67 190.34 C 531.13 195.80 544.91 200.49 558.50 205.63 C 563.60 207.31 568.45 209.82 573.80 210.62 C 573.15 212.43 572.57 214.26 572.17 216.14 C 558.48 211.77 545.16 206.34 531.64 201.50 C 525.70 199.21 519.64 197.25 513.82 194.67 Z" />
<path fill="#010101" d=" M 470.48 193.41 C 474.45 193.61 478.42 193.83 482.39 194.01 C 481.89 197.71 483.01 201.16 485.19 204.11 C 486.92 204.23 488.64 204.39 490.39 204.40 C 491.96 203.27 493.06 201.62 494.35 200.19 C 499.93 200.30 505.55 200.69 511.10 199.86 C 513.68 199.67 516.39 198.73 518.88 199.94 C 517.61 200.85 516.47 202.11 514.88 202.42 C 508.53 203.59 502.05 203.38 495.62 203.30 C 494.43 204.61 493.40 206.14 491.89 207.12 C 489.18 207.69 486.12 207.52 483.60 206.33 C 480.89 203.92 479.68 200.35 479.00 196.89 C 477.04 196.76 475.08 196.62 473.14 196.48 C 473.82 201.79 475.21 207.04 478.03 211.65 C 485.37 212.28 492.68 213.26 500.02 213.97 C 502.54 214.29 505.18 214.37 507.54 215.45 C 509.30 217.94 508.44 221.16 508.56 224.00 L 505.44 224.00 C 505.55 221.88 505.66 219.77 505.78 217.66 C 496.09 216.59 486.42 215.47 476.73 214.45 C 471.92 208.67 470.10 200.81 470.48 193.41 Z" />
<path fill="#4286f4" d=" M 473.14 196.48 C 475.08 196.62 477.04 196.76 479.00 196.89 C 479.68 200.35 480.89 203.92 483.60 206.33 C 486.12 207.52 489.18 207.69 491.89 207.12 C 493.40 206.14 494.43 204.61 495.62 203.30 C 502.05 203.38 508.53 203.59 514.88 202.42 C 516.47 202.11 517.61 200.85 518.88 199.94 C 532.75 205.16 546.67 210.24 560.57 215.37 C 560.26 218.24 559.94 221.12 559.64 224.00 L 508.56 224.00 C 508.44 221.16 509.30 217.94 507.54 215.45 C 505.18 214.37 502.54 214.29 500.02 213.97 C 492.68 213.26 485.37 212.28 478.03 211.65 C 475.21 207.04 473.82 201.79 473.14 196.48 Z" />
<path fill="#010101" d=" M 578.54 198.44 C 581.07 196.94 583.98 197.07 586.53 198.46 C 587.14 200.20 588.34 202.04 587.52 203.94 C 585.68 209.21 583.48 214.36 581.47 219.56 C 578.95 221.11 576.04 220.94 573.50 219.54 C 573.02 218.41 572.51 217.30 572.17 216.14 C 572.57 214.26 573.15 212.43 573.80 210.62 C 575.31 206.53 576.94 202.49 578.54 198.44 Z" />
<path fill="#ffffff" d=" M 581.15 200.23 C 582.75 199.58 584.51 200.42 585.12 202.02 C 583.64 207.02 581.53 211.83 579.58 216.67 C 579.09 218.28 576.81 218.41 575.78 217.26 C 574.00 215.83 575.79 213.71 576.19 212.03 C 577.92 208.13 578.93 203.89 581.15 200.23 Z" />
<path fill="#010101" d=" M 560.57 215.37 C 561.54 215.73 562.52 216.09 563.50 216.46 C 563.20 218.97 562.91 221.48 562.62 224.00 L 559.64 224.00 C 559.94 221.12 560.26 218.24 560.57 215.37 Z" />
<path fill="#ffffff" d=" M 728.40 218.55 C 730.44 220.28 732.53 221.98 734.31 224.00 L 728.44 224.00 L 723.75 223.99 C 725.29 222.17 726.84 220.36 728.40 218.55 Z" />
</svg>
