<?xml version="1.0" encoding="UTF-8" ?>
<!DOCTYPE svg PUBLIC "-//W3C//DTD SVG 1.1//EN" "http://www.w3.org/Graphics/SVG/1.1/DTD/svg11.dtd">
<svg width="758pt" height="224pt" viewBox="0 0 758 224" version="1.1" xmlns="http://www.w3.org/2000/svg">
<path fill="#ffffff" d=" M 658.33 15.11 C 661.09 13.78 665.38 14.02 666.71 17.24 C 668.04 20.21 666.20 23.18 664.61 25.60 C 653.29 42.94 641.97 60.27 630.38 77.43 C 627.05 82.27 624.08 87.67 619.06 90.98 C 615.03 93.92 609.92 94.78 605.04 94.82 C 580.04 94.77 555.04 94.55 530.04 94.78 C 525.67 94.77 520.89 94.58 517.26 91.83 C 509.59 85.79 509.91 71.48 518.94 66.82 C 523.61 64.75 528.93 65.05 533.92 65.27 C 536.31 65.32 538.34 66.61 540.22 67.95 C 540.22 69.98 540.23 72.01 540.22 74.04 C 535.87 78.15 529.64 76.31 524.32 77.16 C 522.18 78.43 523.09 81.16 524.36 82.70 C 526.19 83.10 528.07 83.11 529.95 83.14 C 555.63 82.88 581.32 83.21 607.00 83.10 C 611.66 83.52 614.87 79.65 617.20 76.18 C 630.17 57.36 642.56 38.14 655.06 19.01 C 656.02 17.61 656.98 16.17 658.33 15.11 Z" />
<path fill="#ababab" d=" M 658.51 19.46 C 659.51 17.35 661.89 17.38 663.87 17.02 C 663.73 19.21 663.77 21.56 662.39 23.40 C 651.05 40.69 639.80 58.05 628.19 75.16 C 624.66 80.45 621.28 86.25 615.62 89.54 C 612.16 91.68 607.96 91.75 604.03 91.73 C 577.99 91.58 551.94 91.68 525.91 91.64 C 520.45 91.88 515.74 87.34 514.98 82.08 C 513.70 76.62 516.73 70.05 522.43 68.69 C 526.95 67.87 531.58 68.37 536.14 68.47 C 536.52 69.11 537.28 70.37 537.66 71.00 C 537.28 71.64 536.52 72.92 536.14 73.55 C 531.83 73.77 527.44 73.31 523.20 74.19 C 519.35 75.80 519.42 81.42 521.75 84.29 C 523.18 86.26 525.85 86.17 528.03 86.29 C 552.35 86.20 576.67 86.22 601.00 86.32 C 604.75 86.25 608.74 86.73 612.29 85.18 C 616.37 83.10 618.94 79.11 621.46 75.44 C 634.09 56.98 646.16 38.12 658.51 19.46 Z" />
<path fill="#ffffff" d=" M 668.83 25.90 C 670.01 24.09 671.55 22.17 673.88 21.93 C 676.93 21.31 680.33 23.77 680.19 26.99 C 680.43 29.26 679.09 31.20 677.98 33.02 C 666.53 50.88 654.91 68.62 643.36 86.41 C 638.60 93.43 634.22 101.18 627.00 105.99 C 619.63 110.81 610.57 111.66 601.98 111.83 C 577.31 111.71 552.62 111.26 527.96 111.93 C 523.38 111.75 520.21 115.83 518.71 119.70 C 513.29 134.05 516.42 151.10 507.14 164.06 C 529.85 173.00 552.61 181.81 575.34 190.72 C 580.71 192.98 586.56 194.35 591.25 197.98 C 591.23 199.88 591.19 201.79 591.13 203.70 C 590.31 204.55 589.49 205.41 588.68 206.27 C 586.04 206.24 583.31 206.24 580.84 205.19 C 560.51 197.14 540.11 189.28 519.76 181.30 C 511.80 177.96 503.38 175.60 495.96 171.09 C 492.46 169.36 488.32 169.91 484.67 168.58 C 471.92 164.34 459.39 159.44 447.15 153.92 C 438.07 149.52 428.07 145.51 421.71 137.30 C 416.07 129.58 410.04 122.15 404.21 114.57 C 402.45 112.56 402.83 109.79 402.75 107.33 C 403.61 106.47 404.47 105.62 405.32 104.76 C 408.02 104.81 411.24 104.36 412.96 106.96 C 419.17 114.46 424.94 122.33 430.84 130.07 C 433.46 133.55 437.21 135.88 440.96 137.96 C 455.06 145.82 470.33 151.23 485.40 156.90 C 484.13 151.99 483.45 146.85 484.48 141.82 C 488.81 117.90 492.99 93.95 497.27 70.03 C 498.61 62.78 502.54 55.85 508.80 51.78 C 513.55 48.59 519.49 48.26 525.04 48.12 C 528.74 48.15 532.53 47.86 536.17 48.76 C 541.19 49.64 541.17 58.36 536.17 59.26 C 529.99 60.73 523.55 59.13 517.34 60.33 C 511.74 62.39 508.88 68.46 508.03 74.02 C 504.00 97.00 499.84 119.95 495.82 142.93 C 494.80 147.74 495.61 152.77 498.15 156.98 C 502.41 150.45 502.84 142.46 503.97 134.96 C 505.37 125.51 506.43 115.24 512.56 107.48 C 517.09 101.59 524.92 100.14 531.94 100.09 C 555.30 99.90 578.67 99.99 602.03 100.14 C 607.37 100.10 612.99 100.31 617.92 97.89 C 623.17 95.41 626.60 90.48 629.80 85.84 C 643.04 66.01 655.86 45.91 668.83 25.90 Z" />
<path fill="#ababab" d=" M 671.51 27.47 C 672.48 25.39 674.83 25.33 676.77 24.80 C 677.99 28.78 675.01 31.95 673.04 35.04 C 661.28 53.27 649.46 71.47 637.56 89.61 C 633.74 95.29 629.56 101.13 623.45 104.53 C 617.26 108.00 609.99 108.74 603.01 108.71 C 579.00 108.61 554.99 108.54 530.98 108.65 C 527.79 108.72 524.39 108.88 521.64 110.70 C 518.26 112.85 516.48 116.66 515.28 120.33 C 511.71 131.75 512.39 144.07 508.45 155.41 C 507.24 159.17 504.61 162.18 502.01 165.06 C 526.20 175.10 550.78 184.17 575.11 193.85 C 579.85 195.87 585.21 196.91 589.02 200.63 C 588.50 201.42 587.46 203.00 586.94 203.78 C 582.98 202.68 579.06 201.44 575.31 199.74 C 551.81 190.59 528.33 181.39 504.82 172.26 C 501.63 171.04 498.92 168.87 495.77 167.58 C 491.81 166.66 487.65 166.61 483.80 165.18 C 468.63 159.79 453.50 154.08 439.19 146.66 C 433.76 143.74 428.10 140.69 424.35 135.64 C 419.24 128.77 414.07 121.95 408.65 115.34 C 406.91 113.39 406.01 110.92 404.88 108.61 C 406.66 108.49 409.00 106.64 410.28 108.72 C 414.61 113.45 418.21 118.81 422.24 123.79 C 426.13 128.51 429.05 134.26 434.37 137.58 C 443.00 143.09 452.44 147.18 461.87 151.11 C 471.39 154.93 480.98 158.65 490.80 161.64 C 489.29 158.21 487.59 154.75 487.24 150.97 C 486.54 144.55 488.11 138.23 489.24 131.96 C 492.89 111.67 496.46 91.37 500.06 71.07 C 501.61 62.37 507.56 53.58 516.68 51.76 C 523.24 50.85 529.90 51.31 536.50 51.56 C 536.52 53.19 536.52 54.81 536.51 56.44 C 530.36 57.00 524.16 56.26 518.05 57.08 C 510.70 58.29 506.44 65.77 505.30 72.56 C 501.21 95.72 497.10 118.88 492.94 142.03 C 491.54 148.81 492.88 156.25 497.83 161.32 C 500.04 159.05 502.38 156.71 503.34 153.60 C 507.87 140.26 505.99 125.24 512.74 112.58 C 515.75 106.62 522.35 103.20 528.92 103.30 C 553.95 103.10 578.99 103.24 604.02 103.30 C 609.95 103.22 616.18 102.60 621.37 99.47 C 625.96 96.77 629.09 92.32 632.05 88.02 C 645.41 67.98 658.35 47.65 671.51 27.47 Z" />
<path fill="#ffffff" d=" M 246.98 33.73 C 262.97 33.53 278.96 33.34 294.96 33.21 C 303.62 33.22 312.31 33.04 320.95 33.83 C 327.16 34.18 333.55 35.64 338.61 39.44 C 343.31 43.00 347.79 46.98 351.06 51.93 C 368.62 77.29 386.17 102.67 405.13 127.01 C 410.91 134.46 416.96 141.74 423.88 148.18 C 429.60 153.47 437.27 155.71 444.23 158.88 C 488.96 177.04 534.35 193.53 579.65 210.19 C 584.56 211.17 585.10 218.93 580.74 220.95 C 578.17 221.66 575.52 220.80 573.09 219.99 C 531.81 204.80 490.49 189.67 449.60 173.44 C 441.16 169.89 432.58 166.63 424.36 162.58 C 417.69 159.31 412.66 153.66 407.72 148.27 C 386.82 124.38 369.26 97.87 350.88 72.06 C 345.09 64.24 340.45 55.31 332.54 49.32 C 328.77 46.25 323.80 45.09 319.02 45.01 C 298.69 44.66 278.36 45.12 258.02 45.00 C 208.02 44.79 158.02 45.79 108.02 45.94 C 102.78 45.58 97.89 47.81 93.61 50.61 C 71.37 65.17 49.93 80.89 28.63 96.76 C 26.58 98.49 23.82 98.19 21.33 98.27 C 20.47 97.40 19.60 96.53 18.73 95.67 C 18.81 92.99 18.35 89.76 20.96 88.07 C 40.11 73.33 59.95 59.49 79.86 45.79 C 86.42 41.43 93.08 36.55 101.02 35.18 C 110.96 33.59 121.06 34.32 131.09 34.14 C 169.72 33.75 208.35 34.31 246.98 33.73 Z" />
<path fill="#ababab" d=" M 219.02 36.82 C 249.67 36.58 280.31 36.23 310.96 36.33 C 318.45 36.53 326.37 36.36 333.27 39.71 C 340.59 43.78 346.47 50.05 350.90 57.10 C 364.75 77.16 378.73 97.13 393.30 116.67 C 401.45 127.43 409.61 138.25 419.05 147.94 C 422.72 151.75 427.11 154.86 432.01 156.90 C 451.80 165.57 472.04 173.19 492.21 180.92 C 521.62 192.14 551.21 202.90 580.73 213.83 C 580.47 215.46 580.99 217.62 579.10 218.43 C 577.32 218.16 575.61 217.67 573.92 217.09 C 533.32 202.13 492.66 187.28 452.43 171.31 C 443.96 167.86 435.45 164.49 427.16 160.61 C 421.52 158.03 416.97 153.67 412.78 149.19 C 401.81 137.36 392.17 124.39 382.61 111.42 C 370.65 94.96 359.00 78.27 347.36 61.58 C 343.14 55.06 338.12 48.72 331.29 44.80 C 324.39 41.43 316.44 41.90 308.97 41.71 C 243.99 41.76 179.01 42.81 114.02 42.69 C 109.66 42.72 105.22 42.63 100.97 43.78 C 96.36 45.03 92.36 47.75 88.41 50.35 C 67.70 64.14 47.55 78.73 27.67 93.68 C 25.98 95.01 22.86 96.70 21.69 93.87 C 20.84 91.74 22.98 90.54 24.31 89.33 C 43.21 75.11 62.48 61.37 82.02 48.05 C 86.70 44.93 91.36 41.66 96.59 39.51 C 101.45 37.53 106.79 37.32 111.97 37.30 C 134.97 37.29 157.98 37.23 180.99 37.14 C 193.66 36.65 206.34 36.91 219.02 36.82 Z" />
</svg>
